<svg version="1.1" viewBox="0.0 0.0 600.0 371.0" fill="none" stroke="none" stroke-linecap="square" stroke-miterlimit="10" width="600" height="371" xmlns:xlink="http://www.w3.org/1999/xlink" xmlns="http://www.w3.org/2000/svg"><path fill="#ffffff" d="M0 0L600.0 0L600.0 371.0L0 371.0L0 0Z" fill-rule="nonzero"/><path stroke="#333333" stroke-width="1.0" stroke-linecap="butt" d="M59.5 287.5L581.5 287.5" fill-rule="nonzero"/><path fill="#eeeeee" d="M48.5 298.5L59.5 288.5L581.5 288.5L570.5 298.5Z" fill-rule="nonzero"/><path stroke="#cccccc" stroke-width="1.0" stroke-linecap="butt" d="M59.5 236.5L581.5 236.5" fill-rule="nonzero"/><path stroke="#cccccc" stroke-width="1.0" stroke-linecap="butt" d="M59.5 186.5L581.5 186.5" fill-rule="nonzero"/><path stroke="#cccccc" stroke-width="1.0" stroke-linecap="butt" d="M59.5 135.5L581.5 135.5" fill-rule="nonzero"/><path stroke="#cccccc" stroke-width="1.0" stroke-linecap="butt" d="M59.5 84.5L581.5 84.5" fill-rule="nonzero"/><clipPath id="id_0"><path d="M48.55 84.78333L581.45 84.78333L581.45 298.45L48.55 298.45L48.55 84.78333Z" clip-rule="nonzero"/></clipPath><path fill="#0000a6" clip-path="url(#id_0)" d="M108.0 91.0L108.0 287.0L101.0 294.0L101.0 98.0Z" fill-rule="nonzero"/><path fill="#3333ff" clip-path="url(#id_0)" d="M101.0 98.0L75.0 98.0L82.0 91.0L108.0 91.0Z" fill-rule="nonzero"/><path stroke="#000000" stroke-width="0.0" stroke-linecap="butt" stroke-opacity="0.0" clip-path="url(#id_0)" d="M101.0 294.0L75.0 294.0L75.0 98.0L101.0 98.0Z" fill-rule="nonzero"/><path fill="#0000ff" clip-path="url(#id_0)" d="M101.0 294.0L75.0 294.0L75.0 98.0L101.0 98.0Z" fill-rule="nonzero"/><path fill="#0000a6" clip-path="url(#id_0)" d="M192.0 93.0L192.0 287.0L185.0 294.0L185.0 100.0Z" fill-rule="nonzero"/><path fill="#3333ff" clip-path="url(#id_0)" d="M185.0 100.0L159.0 100.0L166.0 93.0L192.0 93.0Z" fill-rule="nonzero"/><path stroke="#000000" stroke-width="0.0" stroke-linecap="butt" stroke-opacity="0.0" clip-path="url(#id_0)" d="M185.0 294.0L159.0 294.0L159.0 100.0L185.0 100.0Z" fill-rule="nonzero"/><path fill="#0000ff" clip-path="url(#id_0)" d="M185.0 294.0L159.0 294.0L159.0 100.0L185.0 100.0Z" fill-rule="nonzero"/><path fill="#0000a6" clip-path="url(#id_0)" d="M276.0 93.0L276.0 287.0L269.0 294.0L269.0 100.0Z" fill-rule="nonzero"/><path fill="#3333ff" clip-path="url(#id_0)" d="M269.0 100.0L243.0 100.0L250.0 93.0L276.0 93.0Z" fill-rule="nonzero"/><path stroke="#000000" stroke-width="0.0" stroke-linecap="butt" stroke-opacity="0.0" clip-path="url(#id_0)" d="M269.0 294.0L243.0 294.0L243.0 100.0L269.0 100.0Z" fill-rule="nonzero"/><path fill="#0000ff" clip-path="url(#id_0)" d="M269.0 294.0L243.0 294.0L243.0 100.0L269.0 100.0Z" fill-rule="nonzero"/><path fill="#0000a6" clip-path="url(#id_0)" d="M359.0 96.0L359.0 287.0L352.0 294.0L352.0 103.0Z" fill-rule="nonzero"/><path fill="#3333ff" clip-path="url(#id_0)" d="M352.0 103.0L326.0 103.0L333.0 96.0L359.0 96.0Z" fill-rule="nonzero"/><path stroke="#000000" stroke-width="0.0" stroke-linecap="butt" stroke-opacity="0.0" clip-path="url(#id_0)" d="M352.0 294.0L326.0 294.0L326.0 103.0L352.0 103.0Z" fill-rule="nonzero"/><path fill="#0000ff" clip-path="url(#id_0)" d="M352.0 294.0L326.0 294.0L326.0 103.0L352.0 103.0Z" fill-rule="nonzero"/><path fill="#0000a6" clip-path="url(#id_0)" d="M443.0 105.0L443.0 287.0L436.0 294.0L436.0 112.0Z" fill-rule="nonzero"/><path fill="#3333ff" clip-path="url(#id_0)" d="M436.0 112.0L410.0 112.0L417.0 105.0L443.0 105.0Z" fill-rule="nonzero"/><path stroke="#000000" stroke-width="0.0" stroke-linecap="butt" stroke-opacity="0.0" clip-path="url(#id_0)" d="M436.0 294.0L410.0 294.0L410.0 112.0L436.0 112.0Z" fill-rule="nonzero"/><path fill="#0000ff" clip-path="url(#id_0)" d="M436.0 294.0L410.0 294.0L410.0 112.0L436.0 112.0Z" fill-rule="nonzero"/><path fill="#0000a6" clip-path="url(#id_0)" d="M527.0 167.0L527.0 287.0L520.0 294.0L520.0 174.0Z" fill-rule="nonzero"/><path fill="#3333ff" clip-path="url(#id_0)" d="M520.0 174.0L494.0 174.0L501.0 167.0L527.0 167.0Z" fill-rule="nonzero"/><path stroke="#000000" stroke-width="0.0" stroke-linecap="butt" stroke-opacity="0.0" clip-path="url(#id_0)" d="M520.0 294.0L494.0 294.0L494.0 174.0L520.0 174.0Z" fill-rule="nonzero"/><path fill="#0000ff" clip-path="url(#id_0)" d="M520.0 294.0L494.0 294.0L494.0 174.0L520.0 174.0Z" fill-rule="nonzero"/><path fill="#8e2c24" clip-path="url(#id_0)" d="M135.0 281.0L135.0 287.0L128.0 294.0L128.0 288.0Z" fill-rule="nonzero"/><path fill="#e2695f" clip-path="url(#id_0)" d="M128.0 288.0L102.0 288.0L109.0 281.0L135.0 281.0Z" fill-rule="nonzero"/><path stroke="#000000" stroke-width="0.0" stroke-linecap="butt" stroke-opacity="0.0" clip-path="url(#id_0)" d="M128.0 294.0L102.0 294.0L102.0 288.0L128.0 288.0Z" fill-rule="nonzero"/><path fill="#db4437" clip-path="url(#id_0)" d="M128.0 294.0L102.0 294.0L102.0 288.0L128.0 288.0Z" fill-rule="nonzero"/><path fill="#8e2c24" clip-path="url(#id_0)" d="M219.0 279.0L219.0 287.0L212.0 294.0L212.0 286.0Z" fill-rule="nonzero"/><path fill="#e2695f" clip-path="url(#id_0)" d="M212.0 286.0L186.0 286.0L193.0 279.0L219.0 279.0Z" fill-rule="nonzero"/><path stroke="#000000" stroke-width="0.0" stroke-linecap="butt" stroke-opacity="0.0" clip-path="url(#id_0)" d="M212.0 294.0L186.0 294.0L186.0 286.0L212.0 286.0Z" fill-rule="nonzero"/><path fill="#db4437" clip-path="url(#id_0)" d="M212.0 294.0L186.0 294.0L186.0 286.0L212.0 286.0Z" fill-rule="nonzero"/><path fill="#8e2c24" clip-path="url(#id_0)" d="M303.0 279.0L303.0 287.0L296.0 294.0L296.0 286.0Z" fill-rule="nonzero"/><path fill="#e2695f" clip-path="url(#id_0)" d="M296.0 286.0L270.0 286.0L277.0 279.0L303.0 279.0Z" fill-rule="nonzero"/><path stroke="#000000" stroke-width="0.0" stroke-linecap="butt" stroke-opacity="0.0" clip-path="url(#id_0)" d="M296.0 294.0L270.0 294.0L270.0 286.0L296.0 286.0Z" fill-rule="nonzero"/><path fill="#db4437" clip-path="url(#id_0)" d="M296.0 294.0L270.0 294.0L270.0 286.0L296.0 286.0Z" fill-rule="nonzero"/><path fill="#8e2c24" clip-path="url(#id_0)" d="M386.0 276.0L386.0 287.0L379.0 294.0L379.0 283.0Z" fill-rule="nonzero"/><path fill="#e2695f" clip-path="url(#id_0)" d="M379.0 283.0L353.0 283.0L360.0 276.0L386.0 276.0Z" fill-rule="nonzero"/><path stroke="#000000" stroke-width="0.0" stroke-linecap="butt" stroke-opacity="0.0" clip-path="url(#id_0)" d="M379.0 294.0L353.0 294.0L353.0 283.0L379.0 283.0Z" fill-rule="nonzero"/><path fill="#db4437" clip-path="url(#id_0)" d="M379.0 294.0L353.0 294.0L353.0 283.0L379.0 283.0Z" fill-rule="nonzero"/><path fill="#8e2c24" clip-path="url(#id_0)" d="M470.0 268.0L470.0 287.0L463.0 294.0L463.0 275.0Z" fill-rule="nonzero"/><path fill="#e2695f" clip-path="url(#id_0)" d="M463.0 275.0L437.0 275.0L444.0 268.0L470.0 268.0Z" fill-rule="nonzero"/><path stroke="#000000" stroke-width="0.0" stroke-linecap="butt" stroke-opacity="0.0" clip-path="url(#id_0)" d="M463.0 294.0L437.0 294.0L437.0 275.0L463.0 275.0Z" fill-rule="nonzero"/><path fill="#db4437" clip-path="url(#id_0)" d="M463.0 294.0L437.0 294.0L437.0 275.0L463.0 275.0Z" fill-rule="nonzero"/><path fill="#8e2c24" clip-path="url(#id_0)" d="M554.0 205.0L554.0 287.0L547.0 294.0L547.0 212.0Z" fill-rule="nonzero"/><path fill="#e2695f" clip-path="url(#id_0)" d="M547.0 212.0L521.0 212.0L528.0 205.0L554.0 205.0Z" fill-rule="nonzero"/><path stroke="#000000" stroke-width="0.0" stroke-linecap="butt" stroke-opacity="0.0" clip-path="url(#id_0)" d="M547.0 294.0L521.0 294.0L521.0 212.0L547.0 212.0Z" fill-rule="nonzero"/><path fill="#db4437" clip-path="url(#id_0)" d="M547.0 294.0L521.0 294.0L521.0 212.0L547.0 212.0Z" fill-rule="nonzero"/><path fill="#000000" d="M294.26562 346.7469Q294.10938 348.09064 293.26562 348.84064Q292.42188 349.575 291.03125 349.575Q289.51562 349.575 288.60938 348.4969Q287.70312 347.40314 287.70312 345.575L287.70312 344.7625Q287.70312 343.575 288.125 342.66876Q288.54688 341.7625 289.32812 341.27814Q290.10938 340.79376 291.125 340.79376Q292.48438 340.79376 293.29688 341.5594Q294.125 342.325 294.26562 343.65314L293.14062 343.65314Q292.98438 342.6375 292.5 342.1844Q292.01562 341.73126 291.125 341.73126Q290.04688 341.73126 289.4375 342.52814Q288.82812 343.325 288.82812 344.79376L288.82812 345.6219Q288.82812 347.0125 289.40625 347.84064Q289.98438 348.65314 291.03125 348.65314Q291.96875 348.65314 292.46875 348.23126Q292.96875 347.79376 293.14062 346.7469L294.26562 346.7469ZM297.0 349.45L295.92188 349.45L295.92188 340.45L297.0 340.45L297.0 349.45ZM302.73438 349.45Q302.64062 349.2625 302.57812 348.77814Q301.82812 349.575 300.78125 349.575Q299.84375 349.575 299.23438 349.04376Q298.64062 348.5125 298.64062 347.6844Q298.64062 346.7 299.39062 346.15314Q300.14062 345.60626 301.51562 345.60626L302.5625 345.60626L302.5625 345.10626Q302.5625 344.54376 302.21875 344.21564Q301.89062 343.8719 301.21875 343.8719Q300.64062 343.8719 300.25 344.16876Q299.85938 344.45 299.85938 344.8719L298.76562 344.8719Q298.76562 344.3875 299.09375 343.95Q299.4375 343.5125 300.01562 343.2625Q300.59375 342.9969 301.28125 342.9969Q302.39062 342.9969 303.0 343.54376Q303.625 344.09064 303.65625 345.04376L303.65625 347.96564Q303.65625 348.84064 303.875 349.35626L303.875 349.45L302.73438 349.45ZM300.9375 348.6219Q301.45312 348.6219 301.90625 348.35626Q302.35938 348.09064 302.5625 347.66876L302.5625 346.3719L301.71875 346.3719Q299.71875 346.3719 299.71875 347.54376Q299.71875 348.04376 300.0625 348.34064Q300.40625 348.6219 300.9375 348.6219ZM309.51562 347.7625Q309.51562 347.325 309.17188 347.09064Q308.84375 346.84064 308.01562 346.66876Q307.20312 346.4969 306.71875 346.2469Q306.23438 345.9969 306.0 345.66876Q305.78125 345.325 305.78125 344.85626Q305.78125 344.075 306.4375 343.54376Q307.09375 342.9969 308.125 342.9969Q309.20312 342.9969 309.85938 343.5594Q310.53125 344.10626 310.53125 344.96564L309.45312 344.96564Q309.45312 344.52814 309.0625 344.21564Q308.6875 343.8875 308.125 343.8875Q307.53125 343.8875 307.1875 344.15314Q306.85938 344.40314 306.85938 344.8094Q306.85938 345.2 307.17188 345.40314Q307.48438 345.60626 308.29688 345.79376Q309.10938 345.96564 309.60938 346.21564Q310.10938 346.46564 310.34375 346.825Q310.59375 347.1844 310.59375 347.6844Q310.59375 348.54376 309.90625 349.0594Q309.23438 349.575 308.15625 349.575Q307.39062 349.575 306.79688 349.3094Q306.21875 349.02814 305.89062 348.54376Q305.5625 348.0594 305.5625 347.4969L306.64062 347.4969Q306.67188 348.04376 307.07812 348.3719Q307.48438 348.6844 308.15625 348.6844Q308.76562 348.6844 309.14062 348.4344Q309.51562 348.1844 309.51562 347.7625ZM315.51562 347.7625Q315.51562 347.325 315.17188 347.09064Q314.84375 346.84064 314.01562 346.66876Q313.20312 346.4969 312.71875 346.2469Q312.23438 345.9969 312.0 345.66876Q311.78125 345.325 311.78125 344.85626Q311.78125 344.075 312.4375 343.54376Q313.09375 342.9969 314.125 342.9969Q315.20312 342.9969 315.85938 343.5594Q316.53125 344.10626 316.53125 344.96564L315.45312 344.96564Q315.45312 344.52814 315.0625 344.21564Q314.6875 343.8875 314.125 343.8875Q313.53125 343.8875 313.1875 344.15314Q312.85938 344.40314 312.85938 344.8094Q312.85938 345.2 313.17188 345.40314Q313.48438 345.60626 314.29688 345.79376Q315.10938 345.96564 315.60938 346.21564Q316.10938 346.46564 316.34375 346.825Q316.59375 347.1844 316.59375 347.6844Q316.59375 348.54376 315.90625 349.0594Q315.23438 349.575 314.15625 349.575Q313.39062 349.575 312.79688 349.3094Q312.21875 349.02814 311.89062 348.54376Q311.5625 348.0594 311.5625 347.4969L312.64062 347.4969Q312.67188 348.04376 313.07812 348.3719Q313.48438 348.6844 314.15625 348.6844Q314.76562 348.6844 315.14062 348.4344Q315.51562 348.1844 315.51562 347.7625ZM319.0 349.45L317.92188 349.45L317.92188 343.10626L319.0 343.10626L319.0 349.45ZM317.82812 341.4344Q317.82812 341.16876 317.98438 340.98126Q318.15625 340.79376 318.46875 340.79376Q318.78125 340.79376 318.9375 340.98126Q319.10938 341.16876 319.10938 341.4344Q319.10938 341.6844 318.9375 341.8719Q318.78125 342.04376 318.46875 342.04376Q318.15625 342.04376 317.98438 341.8719Q317.82812 341.6844 317.82812 341.4344ZM321.35938 349.45L321.35938 343.95L320.35938 343.95L320.35938 343.10626L321.35938 343.10626L321.35938 342.46564Q321.35938 341.4344 321.89062 340.8875Q322.4375 340.325 323.4375 340.325Q323.8125 340.325 324.1875 340.41876L324.125 341.3094Q323.84375 341.2469 323.54688 341.2469Q323.01562 341.2469 322.71875 341.5594Q322.4375 341.8719 322.4375 342.4344L322.4375 343.10626L323.79688 343.10626L323.79688 343.95L322.4375 343.95L322.4375 349.45L321.35938 349.45ZM326.0 349.45L324.92188 349.45L324.92188 343.10626L326.0 343.10626L326.0 349.45ZM324.82812 341.4344Q324.82812 341.16876 324.98438 340.98126Q325.15625 340.79376 325.46875 340.79376Q325.78125 340.79376 325.9375 340.98126Q326.10938 341.16876 326.10938 341.4344Q326.10938 341.6844 325.9375 341.8719Q325.78125 342.04376 325.46875 342.04376Q325.15625 342.04376 324.98438 341.8719Q324.82812 341.6844 324.82812 341.4344ZM330.45312 349.575Q329.15625 349.575 328.34375 348.73126Q327.54688 347.8719 327.54688 346.45L327.54688 346.2625Q327.54688 345.3094 327.90625 344.575Q328.26562 343.825 328.90625 343.41876Q329.5625 342.9969 330.3125 342.9969Q331.54688 342.9969 332.23438 343.8094Q332.92188 344.6219 332.92188 346.1375L332.92188 346.59064L328.625 346.59064Q328.65625 347.52814 329.17188 348.10626Q329.70312 348.6844 330.51562 348.6844Q331.07812 348.6844 331.46875 348.45Q331.875 348.21564 332.1875 347.825L332.84375 348.34064Q332.04688 349.575 330.45312 349.575ZM330.3125 343.8875Q329.65625 343.8875 329.20312 344.3719Q328.76562 344.84064 328.67188 345.7L331.84375 345.7L331.84375 345.6219Q331.79688 344.79376 331.39062 344.34064Q331.0 343.8875 330.3125 343.8875ZM336.89062 344.075Q336.64062 344.04376 336.35938 344.04376Q335.28125 344.04376 334.90625 344.95L334.90625 349.45L333.82812 349.45L333.82812 343.10626L334.875 343.10626L334.89062 343.84064Q335.42188 342.9969 336.40625 342.9969Q336.71875 342.9969 336.89062 343.075L336.89062 344.075ZM341.51562 347.7625Q341.51562 347.325 341.17188 347.09064Q340.84375 346.84064 340.01562 346.66876Q339.20312 346.4969 338.71875 346.2469Q338.23438 345.9969 338.0 345.66876Q337.78125 345.325 337.78125 344.85626Q337.78125 344.075 338.4375 343.54376Q339.09375 342.9969 340.125 342.9969Q341.20312 342.9969 341.85938 343.5594Q342.53125 344.10626 342.53125 344.96564L341.45312 344.96564Q341.45312 344.52814 341.0625 344.21564Q340.6875 343.8875 340.125 343.8875Q339.53125 343.8875 339.1875 344.15314Q338.85938 344.40314 338.85938 344.8094Q338.85938 345.2 339.17188 345.40314Q339.48438 345.60626 340.29688 345.79376Q341.10938 345.96564 341.60938 346.21564Q342.10938 346.46564 342.34375 346.825Q342.59375 347.1844 342.59375 347.6844Q342.59375 348.54376 341.90625 349.0594Q341.23438 349.575 340.15625 349.575Q339.39062 349.575 338.79688 349.3094Q338.21875 349.02814 337.89062 348.54376Q337.5625 348.0594 337.5625 347.4969L338.64062 347.4969Q338.67188 348.04376 339.07812 348.3719Q339.48438 348.6844 340.15625 348.6844Q340.76562 348.6844 341.14062 348.4344Q341.51562 348.1844 341.51562 347.7625Z" fill-rule="nonzero"/><path fill="#000000" d="M41.6125 288.3094Q41.6125 290.21564 40.95625 291.15314Q40.315624 292.075 38.925 292.075Q37.565624 292.075 36.909374 291.16876Q36.253124 290.2625 36.221874 288.45L36.221874 287.0125Q36.221874 285.1219 36.8625 284.21564Q37.51875 283.29376 38.909374 283.29376Q40.284374 283.29376 40.940624 284.1844Q41.596874 285.0594 41.6125 286.90314L41.6125 288.3094ZM40.51875 286.825Q40.51875 285.45 40.128124 284.825Q39.753124 284.1844 38.909374 284.1844Q38.08125 284.1844 37.690624 284.825Q37.315624 285.45 37.315624 286.7469L37.315624 288.48126Q37.315624 289.85626 37.70625 290.52814Q38.1125 291.1844 38.925 291.1844Q39.721874 291.1844 40.1125 290.5594Q40.503124 289.9344 40.51875 288.60626L40.51875 286.825Z" fill-rule="nonzero"/><path fill="#000000" d="M24.6125 237.64272Q24.6125 239.54897 23.95625 240.48647Q23.315624 241.40834 21.925 241.40834Q20.565624 241.40834 19.909374 240.50209Q19.253124 239.59584 19.221874 237.78334L19.221874 236.34584Q19.221874 234.45522 19.8625 233.54897Q20.51875 232.62709 21.909374 232.62709Q23.284374 232.62709 23.940624 233.51772Q24.596874 234.39272 24.6125 236.23647L24.6125 237.64272ZM23.51875 236.15834Q23.51875 234.78334 23.128124 234.15834Q22.753124 233.51772 21.909374 233.51772Q21.08125 233.51772 20.690624 234.15834Q20.315624 234.78334 20.315624 236.08022L20.315624 237.81459Q20.315624 239.18959 20.70625 239.86147Q21.1125 240.51772 21.925 240.51772Q22.721874 240.51772 23.1125 239.89272Q23.503124 239.26772 23.51875 237.93959L23.51875 236.15834ZM26.39375 240.72084Q26.39375 240.43959 26.55 240.25209Q26.721874 240.06459 27.05 240.06459Q27.39375 240.06459 27.565624 240.25209Q27.7375 240.43959 27.7375 240.72084Q27.7375 240.98647 27.565624 241.17397Q27.39375 241.34584 27.05 241.34584Q26.721874 241.34584 26.55 241.17397Q26.39375 240.98647 26.39375 240.72084ZM34.846874 241.28334L29.253124 241.28334L29.253124 240.50209L32.20625 237.22084Q32.8625 236.47084 33.1125 236.01772Q33.3625 235.54897 33.3625 235.04897Q33.3625 234.37709 32.95625 233.95522Q32.565624 233.51772 31.878124 233.51772Q31.08125 233.51772 30.628124 233.98647Q30.175 234.43959 30.175 235.26772L29.096874 235.26772Q29.096874 234.08022 29.846874 233.36147Q30.6125 232.62709 31.878124 232.62709Q33.08125 232.62709 33.76875 233.25209Q34.45625 233.87709 34.45625 234.92397Q34.45625 236.17397 32.846874 237.92397L30.565624 240.39272L34.846874 240.39272L34.846874 241.28334ZM36.753124 237.00209L37.190624 232.75209L41.565624 232.75209L41.565624 233.75209L38.1125 233.75209L37.846874 236.08022Q38.4875 235.70522 39.284374 235.70522Q40.440624 235.70522 41.128124 236.48647Q41.815624 237.25209 41.815624 238.56459Q41.815624 239.87709 41.096874 240.64272Q40.39375 241.40834 39.1125 241.40834Q37.9875 241.40834 37.26875 240.78334Q36.55 240.14272 36.45625 239.03334L37.471874 239.03334Q37.58125 239.76772 38.003124 240.14272Q38.425 240.51772 39.1125 240.51772Q39.8625 240.51772 40.3 240.00209Q40.7375 239.48647 40.7375 238.58022Q40.7375 237.72084 40.26875 237.20522Q39.8 236.68959 39.01875 236.68959Q38.315624 236.68959 37.909374 236.98647L37.628124 237.22084L36.753124 237.00209Z" fill-rule="nonzero"/><path fill="#000000" d="M31.6125 186.97604Q31.6125 188.8823 30.95625 189.8198Q30.315624 190.74167 28.925 190.74167Q27.565624 190.74167 26.909374 189.83542Q26.253124 188.92917 26.221874 187.11667L26.221874 185.67917Q26.221874 183.78854 26.8625 182.8823Q27.51875 181.96042 28.909374 181.96042Q30.284374 181.96042 30.940624 182.85104Q31.596874 183.72604 31.6125 185.5698L31.6125 186.97604ZM30.51875 185.49167Q30.51875 184.11667 30.128124 183.49167Q29.753124 182.85104 28.909374 182.85104Q28.08125 182.85104 27.690624 183.49167Q27.315624 184.11667 27.315624 185.41354L27.315624 187.14792Q27.315624 188.52292 27.70625 189.1948Q28.1125 189.85104 28.925 189.85104Q29.721874 189.85104 30.1125 189.22604Q30.503124 188.60104 30.51875 187.27292L30.51875 185.49167ZM33.39375 190.05417Q33.39375 189.77292 33.55 189.58542Q33.721874 189.39792 34.05 189.39792Q34.39375 189.39792 34.565624 189.58542Q34.7375 189.77292 34.7375 190.05417Q34.7375 190.3198 34.565624 190.5073Q34.39375 190.67917 34.05 190.67917Q33.721874 190.67917 33.55 190.5073Q33.39375 190.3198 33.39375 190.05417ZM36.753124 186.33542L37.190624 182.08542L41.565624 182.08542L41.565624 183.08542L38.1125 183.08542L37.846874 185.41354Q38.4875 185.03854 39.284374 185.03854Q40.440624 185.03854 41.128124 185.8198Q41.815624 186.58542 41.815624 187.89792Q41.815624 189.21042 41.096874 189.97604Q40.39375 190.74167 39.1125 190.74167Q37.9875 190.74167 37.26875 190.11667Q36.55 189.47604 36.45625 188.36667L37.471874 188.36667Q37.58125 189.10104 38.003124 189.47604Q38.425 189.85104 39.1125 189.85104Q39.8625 189.85104 40.3 189.33542Q40.7375 188.8198 40.7375 187.91354Q40.7375 187.05417 40.26875 186.53854Q39.8 186.02292 39.01875 186.02292Q38.315624 186.02292 37.909374 186.3198L37.628124 186.55417L36.753124 186.33542Z" fill-rule="nonzero"/><path fill="#000000" d="M24.6125 136.30937Q24.6125 138.21562 23.95625 139.15312Q23.315624 140.075 21.925 140.075Q20.565624 140.075 19.909374 139.16875Q19.253124 138.2625 19.221874 136.45L19.221874 135.0125Q19.221874 133.12187 19.8625 132.21562Q20.51875 131.29375 21.909374 131.29375Q23.284374 131.29375 23.940624 132.18437Q24.596874 133.05937 24.6125 134.90312L24.6125 136.30937ZM23.51875 134.825Q23.51875 133.45 23.128124 132.825Q22.753124 132.18437 21.909374 132.18437Q21.08125 132.18437 20.690624 132.825Q20.315624 133.45 20.315624 134.74687L20.315624 136.48125Q20.315624 137.85625 20.70625 138.52812Q21.1125 139.18437 21.925 139.18437Q22.721874 139.18437 23.1125 138.55937Q23.503124 137.93437 23.51875 136.60625L23.51875 134.825ZM26.39375 139.3875Q26.39375 139.10625 26.55 138.91875Q26.721874 138.73125 27.05 138.73125Q27.39375 138.73125 27.565624 138.91875Q27.7375 139.10625 27.7375 139.3875Q27.7375 139.65312 27.565624 139.84062Q27.39375 140.0125 27.05 140.0125Q26.721874 140.0125 26.55 139.84062Q26.39375 139.65312 26.39375 139.3875ZM34.76875 132.02812L31.2375 139.95L30.096874 139.95L33.6125 132.30937L29.003124 132.30937L29.003124 131.41875L34.76875 131.41875L34.76875 132.02812ZM36.753124 135.66875L37.190624 131.41875L41.565624 131.41875L41.565624 132.41875L38.1125 132.41875L37.846874 134.74687Q38.4875 134.37187 39.284374 134.37187Q40.440624 134.37187 41.128124 135.15312Q41.815624 135.91875 41.815624 137.23125Q41.815624 138.54375 41.096874 139.30937Q40.39375 140.075 39.1125 140.075Q37.9875 140.075 37.26875 139.45Q36.55 138.80937 36.45625 137.7L37.471874 137.7Q37.58125 138.43437 38.003124 138.80937Q38.425 139.18437 39.1125 139.18437Q39.8625 139.18437 40.3 138.66875Q40.7375 138.15312 40.7375 137.24687Q40.7375 136.3875 40.26875 135.87187Q39.8 135.35625 39.01875 135.35625Q38.315624 135.35625 37.909374 135.65312L37.628124 135.8875L36.753124 135.66875Z" fill-rule="nonzero"/><path fill="#000000" d="M39.815624 89.28333L38.7375 89.28333L38.7375 82.06458L36.55 82.86146L36.55 81.87708L39.659374 80.70521L39.815624 80.70521L39.815624 89.28333Z" fill-rule="nonzero"/><path fill="#000000" d="M98.82185 312.9969L96.80623 312.9969L96.80623 316.45L95.68123 316.45L95.68123 307.91876L98.50935 307.91876Q99.94685 307.91876 100.71248 308.575Q101.49373 309.23126 101.49373 310.48126Q101.49373 311.27814 101.05623 311.8719Q100.63435 312.46564 99.86873 312.7625L101.86873 316.3719L101.86873 316.45L100.6656 316.45L98.82185 312.9969ZM96.80623 312.075L98.5406 312.075Q99.38435 312.075 99.86873 311.65314Q100.36873 311.21564 100.36873 310.48126Q100.36873 309.7 99.89998 309.27814Q99.43123 308.85626 98.5406 308.84064L96.80623 308.84064L96.80623 312.075ZM107.39998 312.6844L103.80623 312.6844L103.80623 316.45L102.68123 316.45L102.68123 307.91876L107.9781 307.91876L107.9781 308.84064L103.80623 308.84064L103.80623 311.7625L107.39998 311.7625L107.39998 312.6844Z" fill-rule="nonzero"/><path fill="#000000" d="M179.10248 316.45L179.10248 307.91876L181.52435 307.91876Q182.63373 307.91876 183.47748 308.41876Q184.33685 308.90314 184.8056 309.8094Q185.27435 310.71564 185.27435 311.90314L185.27435 312.4344Q185.27435 313.65314 184.8056 314.5594Q184.35248 315.46564 183.47748 315.95Q182.6181 316.4344 181.47748 316.45L179.10248 316.45ZM180.22748 308.84064L180.22748 315.52814L181.41498 315.52814Q182.71185 315.52814 183.4306 314.73126Q184.16498 313.91876 184.16498 312.41876L184.16498 311.91876Q184.16498 310.46564 183.47748 309.66876Q182.8056 308.85626 181.53998 308.84064L180.22748 308.84064ZM193.00873 308.84064L190.25873 308.84064L190.25873 316.45L189.14935 316.45L189.14935 308.84064L186.39935 308.84064L186.39935 307.91876L193.00873 307.91876L193.00873 308.84064Z" fill-rule="nonzero"/><path fill="#000000" d="M259.97687 307.91876L262.77374 314.8719L265.555 307.91876L267.02374 307.91876L267.02374 316.45L265.89874 316.45L265.89874 313.1219L266.00812 309.54376L263.19562 316.45L262.33624 316.45L259.53937 309.5594L259.64874 313.1219L259.64874 316.45L258.52374 316.45L258.52374 307.91876L259.97687 307.91876ZM269.66437 315.52814L273.71124 315.52814L273.71124 316.45L268.52374 316.45L268.52374 307.91876L269.66437 307.91876L269.66437 315.52814ZM275.64874 313.10626L275.64874 316.45L274.52374 316.45L274.52374 307.91876L277.68 307.91876Q279.07062 307.91876 279.8675 308.6375Q280.66437 309.34064 280.66437 310.52814Q280.66437 311.7625 279.88312 312.4344Q279.1175 313.10626 277.66437 313.10626L275.64874 313.10626ZM275.64874 312.1844L277.68 312.1844Q278.58624 312.1844 279.055 311.7625Q279.53937 311.34064 279.53937 310.54376Q279.53937 309.77814 279.055 309.325Q278.58624 308.85626 277.7425 308.84064L275.64874 308.84064L275.64874 312.1844Z" fill-rule="nonzero"/><path fill="#000000" d="M344.46063 312.65314Q343.02313 312.23126 342.35126 311.6219Q341.695 311.0125 341.695 310.1219Q341.695 309.1219 342.49188 308.46564Q343.30438 307.79376 344.60126 307.79376Q345.47626 307.79376 346.16376 308.1375Q346.85126 308.48126 347.22626 309.075Q347.61688 309.66876 347.61688 310.3875L346.47626 310.3875Q346.47626 309.60626 345.97626 309.16876Q345.49188 308.73126 344.60126 308.73126Q343.77313 308.73126 343.30438 309.10626Q342.83563 309.46564 342.83563 310.10626Q342.83563 310.6375 343.27313 310.9969Q343.72626 311.35626 344.78876 311.65314Q345.85126 311.95 346.445 312.3094Q347.05438 312.66876 347.33563 313.15314Q347.6325 313.6375 347.6325 314.27814Q347.6325 315.325 346.82 315.95Q346.0075 316.575 344.66376 316.575Q343.77313 316.575 343.0075 316.23126Q342.2575 315.8875 341.83563 315.3094Q341.42938 314.71564 341.42938 313.98126L342.55438 313.98126Q342.55438 314.7469 343.1325 315.2Q343.71063 315.65314 344.66376 315.65314Q345.55438 315.65314 346.02313 315.29376Q346.49188 314.91876 346.49188 314.29376Q346.49188 313.66876 346.05438 313.325Q345.61688 312.98126 344.46063 312.65314ZM351.77313 314.95L354.21063 307.91876L355.445 307.91876L352.27313 316.45L351.28876 316.45L348.1325 307.91876L349.35126 307.91876L351.77313 314.95ZM358.39813 307.91876L361.195 314.8719L363.97626 307.91876L365.445 307.91876L365.445 316.45L364.32 316.45L364.32 313.1219L364.42938 309.54376L361.61688 316.45L360.7575 316.45L357.96063 309.5594L358.07 313.1219L358.07 316.45L356.945 316.45L356.945 307.91876L358.39813 307.91876Z" fill-rule="nonzero"/><path fill="#000000" d="M429.3819 312.65314Q427.9444 312.23126 427.27252 311.6219Q426.61627 311.0125 426.61627 310.1219Q426.61627 309.1219 427.41315 308.46564Q428.22565 307.79376 429.52252 307.79376Q430.39752 307.79376 431.08502 308.1375Q431.77252 308.48126 432.14752 309.075Q432.53815 309.66876 432.53815 310.3875L431.39752 310.3875Q431.39752 309.60626 430.89752 309.16876Q430.41315 308.73126 429.52252 308.73126Q428.6944 308.73126 428.22565 309.10626Q427.7569 309.46564 427.7569 310.10626Q427.7569 310.6375 428.1944 310.9969Q428.64752 311.35626 429.71002 311.65314Q430.77252 311.95 431.36627 312.3094Q431.97565 312.66876 432.2569 313.15314Q432.55377 313.6375 432.55377 314.27814Q432.55377 315.325 431.74127 315.95Q430.92877 316.575 429.58502 316.575Q428.6944 316.575 427.92877 316.23126Q427.17877 315.8875 426.7569 315.3094Q426.35065 314.71564 426.35065 313.98126L427.47565 313.98126Q427.47565 314.7469 428.05377 315.2Q428.6319 315.65314 429.58502 315.65314Q430.47565 315.65314 430.9444 315.29376Q431.41315 314.91876 431.41315 314.29376Q431.41315 313.66876 430.97565 313.325Q430.53815 312.98126 429.3819 312.65314ZM440.17877 315.325Q439.74127 315.95 438.96002 316.2625Q438.17877 316.575 437.14752 316.575Q436.11627 316.575 435.30377 316.09064Q434.49127 315.59064 434.05377 314.6844Q433.61627 313.77814 433.60065 312.59064L433.60065 311.85626Q433.60065 309.91876 434.49127 308.85626Q435.39752 307.79376 437.02252 307.79376Q438.36627 307.79376 439.17877 308.48126Q439.99127 309.16876 440.17877 310.41876L439.05377 310.41876Q438.72565 308.73126 437.03815 308.73126Q435.89752 308.73126 435.3194 309.52814Q434.74127 310.3094 434.72565 311.825L434.72565 312.5125Q434.72565 313.95 435.3819 314.8094Q436.03815 315.65314 437.16315 315.65314Q437.78815 315.65314 438.2569 315.5125Q438.74127 315.3719 439.05377 315.02814L439.05377 313.1219L437.08502 313.1219L437.08502 312.2L440.17877 312.2L440.17877 315.325ZM441.86627 316.45L441.86627 307.91876L444.28815 307.91876Q445.39752 307.91876 446.24127 308.41876Q447.10065 308.90314 447.5694 309.8094Q448.03815 310.71564 448.03815 311.90314L448.03815 312.4344Q448.03815 313.65314 447.5694 314.5594Q447.11627 315.46564 446.24127 315.95Q445.3819 316.4344 444.24127 316.45L441.86627 316.45ZM442.99127 308.84064L442.99127 315.52814L444.17877 315.52814Q445.47565 315.52814 446.1944 314.73126Q446.92877 313.91876 446.92877 312.41876L446.92877 311.91876Q446.92877 310.46564 446.24127 309.66876Q445.5694 308.85626 444.30377 308.84064L442.99127 308.84064Z" fill-rule="nonzero"/><path fill="#000000" d="M516.60004 315.325Q516.16254 315.95 515.3813 316.2625Q514.60004 316.575 513.5688 316.575Q512.53754 316.575 511.72504 316.09064Q510.91254 315.59064 510.47504 314.6844Q510.03754 313.77814 510.0219 312.59064L510.0219 311.85626Q510.0219 309.91876 510.91254 308.85626Q511.8188 307.79376 513.4438 307.79376Q514.78754 307.79376 515.60004 308.48126Q516.41254 309.16876 516.60004 310.41876L515.47504 310.41876Q515.1469 308.73126 513.4594 308.73126Q512.3188 308.73126 511.74066 309.52814Q511.16254 310.3094 511.1469 311.825L511.1469 312.5125Q511.1469 313.95 511.80316 314.8094Q512.4594 315.65314 513.5844 315.65314Q514.2094 315.65314 514.67816 315.5125Q515.16254 315.3719 515.47504 315.02814L515.47504 313.1219L513.5063 313.1219L513.5063 312.2L516.60004 312.2L516.60004 315.325ZM524.85004 316.45L523.72504 316.45L519.42816 309.8719L519.42816 316.45L518.28754 316.45L518.28754 307.91876L519.42816 307.91876L523.72504 314.52814L523.72504 307.91876L524.85004 307.91876L524.85004 316.45ZM527.28754 316.45L527.28754 307.91876L530.0844 307.91876Q531.47504 307.91876 532.16254 308.4969Q532.86566 309.0594 532.86566 310.1844Q532.86566 310.79376 532.5219 311.2625Q532.1938 311.71564 531.60004 311.96564Q532.30316 312.15314 532.6938 312.7Q533.10004 313.23126 533.10004 313.98126Q533.10004 315.1375 532.35004 315.79376Q531.61566 316.45 530.2563 316.45L527.28754 316.45ZM528.41254 312.46564L528.41254 315.52814L530.2719 315.52814Q531.0688 315.52814 531.5219 315.1219Q531.97504 314.71564 531.97504 313.9969Q531.97504 312.46564 530.28754 312.46564L528.41254 312.46564ZM528.41254 311.5594L530.11566 311.5594Q530.85004 311.5594 531.28754 311.2Q531.74066 310.825 531.74066 310.1844Q531.74066 309.48126 531.3344 309.16876Q530.92816 308.84064 530.0844 308.84064L528.41254 308.84064L528.41254 311.5594Z" fill-rule="nonzero"/><path fill="#0000ff" d="M188.0 52.416668C188.0 51.864384 188.44771 51.416668 189.0 51.416668L199.0 51.416668C199.55229 51.416668 200.0 51.864384 200.0 52.416668L200.0 62.416668C200.0 62.968952 199.55229 63.416668 199.0 63.416668L189.0 63.416668C188.44771 63.416668 188.0 62.968952 188.0 62.416668Z" fill-rule="nonzero"/><path fill="#000000" d="M213.70312 59.682293L210.125 59.682293L209.32812 61.916668L208.17188 61.916668L211.42188 53.385418L212.40625 53.385418L215.67188 61.916668L214.51562 61.916668L213.70312 59.682293ZM210.46875 58.760418L213.375 58.760418L211.92188 54.776043L210.46875 58.760418ZM219.35938 61.151043Q219.9375 61.151043 220.375 60.807293Q220.8125 60.447918 220.85938 59.916668L221.89062 59.916668Q221.85938 60.463543 221.5 60.963543Q221.15625 61.447918 220.57812 61.744793Q220.01562 62.041668 219.35938 62.041668Q218.0625 62.041668 217.29688 61.182293Q216.54688 60.307293 216.54688 58.807293L216.54688 58.619793Q216.54688 57.697918 216.875 56.979168Q217.21875 56.260418 217.84375 55.869793Q218.48438 55.463543 219.35938 55.463543Q220.42188 55.463543 221.125 56.104168Q221.84375 56.729168 221.89062 57.760418L220.85938 57.760418Q220.8125 57.135418 220.39062 56.744793Q219.96875 56.354168 219.35938 56.354168Q218.53125 56.354168 218.07812 56.947918Q217.625 57.541668 217.625 58.666668L217.625 58.869793Q217.625 59.963543 218.07812 60.557293Q218.53125 61.151043 219.35938 61.151043ZM225.35938 61.151043Q225.9375 61.151043 226.375 60.807293Q226.8125 60.447918 226.85938 59.916668L227.89062 59.916668Q227.85938 60.463543 227.5 60.963543Q227.15625 61.447918 226.57812 61.744793Q226.01562 62.041668 225.35938 62.041668Q224.0625 62.041668 223.29688 61.182293Q222.54688 60.307293 222.54688 58.807293L222.54688 58.619793Q222.54688 57.697918 222.875 56.979168Q223.21875 56.260418 223.84375 55.869793Q224.48438 55.463543 225.35938 55.463543Q226.42188 55.463543 227.125 56.104168Q227.84375 56.729168 227.89062 57.760418L226.85938 57.760418Q226.8125 57.135418 226.39062 56.744793Q225.96875 56.354168 225.35938 56.354168Q224.53125 56.354168 224.07812 56.947918Q223.625 57.541668 223.625 58.666668L223.625 58.869793Q223.625 59.963543 224.07812 60.557293Q224.53125 61.151043 225.35938 61.151043ZM232.73438 61.291668Q232.10938 62.041668 230.875 62.041668Q229.85938 62.041668 229.32812 61.447918Q228.79688 60.854168 228.79688 59.697918L228.79688 55.572918L229.875 55.572918L229.875 59.666668Q229.875 61.119793 231.04688 61.119793Q232.29688 61.119793 232.70312 60.182293L232.70312 55.572918L233.79688 55.572918L233.79688 61.916668L232.76562 61.916668L232.73438 61.291668ZM238.89062 56.541668Q238.64062 56.510418 238.35938 56.510418Q237.28125 56.510418 236.90625 57.416668L236.90625 61.916668L235.82812 61.916668L235.82812 55.572918L236.875 55.572918L236.89062 56.307293Q237.42188 55.463543 238.40625 55.463543Q238.71875 55.463543 238.89062 55.541668L238.89062 56.541668ZM243.73438 61.916668Q243.64062 61.729168 243.57812 61.244793Q242.82812 62.041668 241.78125 62.041668Q240.84375 62.041668 240.23438 61.510418Q239.64062 60.979168 239.64062 60.151043Q239.64062 59.166668 240.39062 58.619793Q241.14062 58.072918 242.51562 58.072918L243.5625 58.072918L243.5625 57.572918Q243.5625 57.010418 243.21875 56.682293Q242.89062 56.338543 242.21875 56.338543Q241.64062 56.338543 241.25 56.635418Q240.85938 56.916668 240.85938 57.338543L239.76562 57.338543Q239.76562 56.854168 240.09375 56.416668Q240.4375 55.979168 241.01562 55.729168Q241.59375 55.463543 242.28125 55.463543Q243.39062 55.463543 244.0 56.010418Q244.625 56.557293 244.65625 57.510418L244.65625 60.432293Q244.65625 61.307293 244.875 61.822918L244.875 61.916668L243.73438 61.916668ZM241.9375 61.088543Q242.45312 61.088543 242.90625 60.822918Q243.35938 60.557293 243.5625 60.135418L243.5625 58.838543L242.71875 58.838543Q240.71875 58.838543 240.71875 60.010418Q240.71875 60.510418 241.0625 60.807293Q241.40625 61.088543 241.9375 61.088543ZM249.35938 61.151043Q249.9375 61.151043 250.375 60.807293Q250.8125 60.447918 250.85938 59.916668L251.89062 59.916668Q251.85938 60.463543 251.5 60.963543Q251.15625 61.447918 250.57812 61.744793Q250.01562 62.041668 249.35938 62.041668Q248.0625 62.041668 247.29688 61.182293Q246.54688 60.307293 246.54688 58.807293L246.54688 58.619793Q246.54688 57.697918 246.875 56.979168Q247.21875 56.260418 247.84375 55.869793Q248.48438 55.463543 249.35938 55.463543Q250.42188 55.463543 251.125 56.104168Q251.84375 56.729168 251.89062 57.760418L250.85938 57.760418Q250.8125 57.135418 250.39062 56.744793Q249.96875 56.354168 249.35938 56.354168Q248.53125 56.354168 248.07812 56.947918Q247.625 57.541668 247.625 58.666668L247.625 58.869793Q247.625 59.963543 248.07812 60.557293Q248.53125 61.151043 249.35938 61.151043ZM254.89062 60.322918L256.375 55.572918L257.53125 55.572918L254.98438 62.901043Q254.39062 64.47917 253.10938 64.47917L252.89062 64.46355L252.5 64.38542L252.5 63.510418L252.78125 63.526043Q253.34375 63.526043 253.64062 63.307293Q253.95312 63.088543 254.15625 62.494793L254.39062 61.838543L252.125 55.572918L253.3125 55.572918L254.89062 60.322918Z" fill-rule="nonzero"/><path fill="#db4437" d="M274.0 52.416668C274.0 51.864384 274.44772 51.416668 275.0 51.416668L285.0 51.416668C285.55228 51.416668 286.0 51.864384 286.0 52.416668L286.0 62.416668C286.0 62.968952 285.55228 63.416668 285.0 63.416668L275.0 63.416668C274.44772 63.416668 274.0 62.968952 274.0 62.416668Z" fill-rule="nonzero"/><path fill="#000000" d="M296.4375 53.385418L299.23438 60.338543L302.01562 53.385418L303.48438 53.385418L303.48438 61.916668L302.35938 61.916668L302.35938 58.588543L302.46875 55.010418L299.65625 61.916668L298.79688 61.916668L296.0 55.026043L296.10938 58.588543L296.10938 61.916668L294.98438 61.916668L294.98438 53.385418L296.4375 53.385418ZM306.0 61.916668L304.92188 61.916668L304.92188 55.572918L306.0 55.572918L306.0 61.916668ZM304.82812 53.901043Q304.82812 53.635418 304.98438 53.447918Q305.15625 53.260418 305.46875 53.260418Q305.78125 53.260418 305.9375 53.447918Q306.10938 53.635418 306.10938 53.901043Q306.10938 54.151043 305.9375 54.338543Q305.78125 54.510418 305.46875 54.510418Q305.15625 54.510418 304.98438 54.338543Q304.82812 54.151043 304.82812 53.901043ZM311.51562 60.229168Q311.51562 59.791668 311.17188 59.557293Q310.84375 59.307293 310.01562 59.135418Q309.20312 58.963543 308.71875 58.713543Q308.23438 58.463543 308.0 58.135418Q307.78125 57.791668 307.78125 57.322918Q307.78125 56.541668 308.4375 56.010418Q309.09375 55.463543 310.125 55.463543Q311.20312 55.463543 311.85938 56.026043Q312.53125 56.572918 312.53125 57.432293L311.45312 57.432293Q311.45312 56.994793 311.0625 56.682293Q310.6875 56.354168 310.125 56.354168Q309.53125 56.354168 309.1875 56.619793Q308.85938 56.869793 308.85938 57.276043Q308.85938 57.666668 309.17188 57.869793Q309.48438 58.072918 310.29688 58.260418Q311.10938 58.432293 311.60938 58.682293Q312.10938 58.932293 312.34375 59.291668Q312.59375 59.651043 312.59375 60.151043Q312.59375 61.010418 311.90625 61.526043Q311.23438 62.041668 310.15625 62.041668Q309.39062 62.041668 308.79688 61.776043Q308.21875 61.494793 307.89062 61.010418Q307.5625 60.526043 307.5625 59.963543L308.64062 59.963543Q308.67188 60.510418 309.07812 60.838543Q309.48438 61.151043 310.15625 61.151043Q310.76562 61.151043 311.14062 60.901043Q311.51562 60.651043 311.51562 60.229168ZM316.35938 61.151043Q316.9375 61.151043 317.375 60.807293Q317.8125 60.447918 317.85938 59.916668L318.89062 59.916668Q318.85938 60.463543 318.5 60.963543Q318.15625 61.447918 317.57812 61.744793Q317.01562 62.041668 316.35938 62.041668Q315.0625 62.041668 314.29688 61.182293Q313.54688 60.307293 313.54688 58.807293L313.54688 58.619793Q313.54688 57.697918 313.875 56.979168Q314.21875 56.260418 314.84375 55.869793Q315.48438 55.463543 316.35938 55.463543Q317.42188 55.463543 318.125 56.104168Q318.84375 56.729168 318.89062 57.760418L317.85938 57.760418Q317.8125 57.135418 317.39062 56.744793Q316.96875 56.354168 316.35938 56.354168Q315.53125 56.354168 315.07812 56.947918Q314.625 57.541668 314.625 58.666668L314.625 58.869793Q314.625 59.963543 315.07812 60.557293Q315.53125 61.151043 316.35938 61.151043ZM321.0 61.916668L319.92188 61.916668L319.92188 52.916668L321.0 52.916668L321.0 61.916668ZM326.73438 61.916668Q326.64062 61.729168 326.57812 61.244793Q325.82812 62.041668 324.78125 62.041668Q323.84375 62.041668 323.23438 61.510418Q322.64062 60.979168 322.64062 60.151043Q322.64062 59.166668 323.39062 58.619793Q324.14062 58.072918 325.51562 58.072918L326.5625 58.072918L326.5625 57.572918Q326.5625 57.010418 326.21875 56.682293Q325.89062 56.338543 325.21875 56.338543Q324.64062 56.338543 324.25 56.635418Q323.85938 56.916668 323.85938 57.338543L322.76562 57.338543Q322.76562 56.854168 323.09375 56.416668Q323.4375 55.979168 324.01562 55.729168Q324.59375 55.463543 325.28125 55.463543Q326.39062 55.463543 327.0 56.010418Q327.625 56.557293 327.65625 57.510418L327.65625 60.432293Q327.65625 61.307293 327.875 61.822918L327.875 61.916668L326.73438 61.916668ZM324.9375 61.088543Q325.45312 61.088543 325.90625 60.822918Q326.35938 60.557293 326.5625 60.135418L326.5625 58.838543L325.71875 58.838543Q323.71875 58.838543 323.71875 60.010418Q323.71875 60.510418 324.0625 60.807293Q324.40625 61.088543 324.9375 61.088543ZM333.51562 60.229168Q333.51562 59.791668 333.17188 59.557293Q332.84375 59.307293 332.01562 59.135418Q331.20312 58.963543 330.71875 58.713543Q330.23438 58.463543 330.0 58.135418Q329.78125 57.791668 329.78125 57.322918Q329.78125 56.541668 330.4375 56.010418Q331.09375 55.463543 332.125 55.463543Q333.20312 55.463543 333.85938 56.026043Q334.53125 56.572918 334.53125 57.432293L333.45312 57.432293Q333.45312 56.994793 333.0625 56.682293Q332.6875 56.354168 332.125 56.354168Q331.53125 56.354168 331.1875 56.619793Q330.85938 56.869793 330.85938 57.276043Q330.85938 57.666668 331.17188 57.869793Q331.48438 58.072918 332.29688 58.260418Q333.10938 58.432293 333.60938 58.682293Q334.10938 58.932293 334.34375 59.291668Q334.59375 59.651043 334.59375 60.151043Q334.59375 61.010418 333.90625 61.526043Q333.23438 62.041668 332.15625 62.041668Q331.39062 62.041668 330.79688 61.776043Q330.21875 61.494793 329.89062 61.010418Q329.5625 60.526043 329.5625 59.963543L330.64062 59.963543Q330.67188 60.510418 331.07812 60.838543Q331.48438 61.151043 332.15625 61.151043Q332.76562 61.151043 333.14062 60.901043Q333.51562 60.651043 333.51562 60.229168ZM339.51562 60.229168Q339.51562 59.791668 339.17188 59.557293Q338.84375 59.307293 338.01562 59.135418Q337.20312 58.963543 336.71875 58.713543Q336.23438 58.463543 336.0 58.135418Q335.78125 57.791668 335.78125 57.322918Q335.78125 56.541668 336.4375 56.010418Q337.09375 55.463543 338.125 55.463543Q339.20312 55.463543 339.85938 56.026043Q340.53125 56.572918 340.53125 57.432293L339.45312 57.432293Q339.45312 56.994793 339.0625 56.682293Q338.6875 56.354168 338.125 56.354168Q337.53125 56.354168 337.1875 56.619793Q336.85938 56.869793 336.85938 57.276043Q336.85938 57.666668 337.17188 57.869793Q337.48438 58.072918 338.29688 58.260418Q339.10938 58.432293 339.60938 58.682293Q340.10938 58.932293 340.34375 59.291668Q340.59375 59.651043 340.59375 60.151043Q340.59375 61.010418 339.90625 61.526043Q339.23438 62.041668 338.15625 62.041668Q337.39062 62.041668 336.79688 61.776043Q336.21875 61.494793 335.89062 61.010418Q335.5625 60.526043 335.5625 59.963543L336.64062 59.963543Q336.67188 60.510418 337.07812 60.838543Q337.48438 61.151043 338.15625 61.151043Q338.76562 61.151043 339.14062 60.901043Q339.51562 60.651043 339.51562 60.229168ZM343.0 61.916668L341.92188 61.916668L341.92188 55.572918L343.0 55.572918L343.0 61.916668ZM341.82812 53.901043Q341.82812 53.635418 341.98438 53.447918Q342.15625 53.260418 342.46875 53.260418Q342.78125 53.260418 342.9375 53.447918Q343.10938 53.635418 343.10938 53.901043Q343.10938 54.151043 342.9375 54.338543Q342.78125 54.510418 342.46875 54.510418Q342.15625 54.510418 341.98438 54.338543Q341.82812 54.151043 341.82812 53.901043ZM345.35938 61.916668L345.35938 56.416668L344.35938 56.416668L344.35938 55.572918L345.35938 55.572918L345.35938 54.932293Q345.35938 53.901043 345.89062 53.354168Q346.4375 52.791668 347.4375 52.791668Q347.8125 52.791668 348.1875 52.885418L348.125 53.776043Q347.84375 53.713543 347.54688 53.713543Q347.01562 53.713543 346.71875 54.026043Q346.4375 54.338543 346.4375 54.901043L346.4375 55.572918L347.79688 55.572918L347.79688 56.416668L346.4375 56.416668L346.4375 61.916668L345.35938 61.916668ZM350.0 61.916668L348.92188 61.916668L348.92188 55.572918L350.0 55.572918L350.0 61.916668ZM348.82812 53.901043Q348.82812 53.635418 348.98438 53.447918Q349.15625 53.260418 349.46875 53.260418Q349.78125 53.260418 349.9375 53.447918Q350.10938 53.635418 350.10938 53.901043Q350.10938 54.151043 349.9375 54.338543Q349.78125 54.510418 349.46875 54.510418Q349.15625 54.510418 348.98438 54.338543Q348.82812 54.151043 348.82812 53.901043ZM354.35938 61.151043Q354.9375 61.151043 355.375 60.807293Q355.8125 60.447918 355.85938 59.916668L356.89062 59.916668Q356.85938 60.463543 356.5 60.963543Q356.15625 61.447918 355.57812 61.744793Q355.01562 62.041668 354.35938 62.041668Q353.0625 62.041668 352.29688 61.182293Q351.54688 60.307293 351.54688 58.807293L351.54688 58.619793Q351.54688 57.697918 351.875 56.979168Q352.21875 56.260418 352.84375 55.869793Q353.48438 55.463543 354.35938 55.463543Q355.42188 55.463543 356.125 56.104168Q356.84375 56.729168 356.89062 57.760418L355.85938 57.760418Q355.8125 57.135418 355.39062 56.744793Q354.96875 56.354168 354.35938 56.354168Q353.53125 56.354168 353.07812 56.947918Q352.625 57.541668 352.625 58.666668L352.625 58.869793Q352.625 59.963543 353.07812 60.557293Q353.53125 61.151043 354.35938 61.151043ZM361.73438 61.916668Q361.64062 61.729168 361.57812 61.244793Q360.82812 62.041668 359.78125 62.041668Q358.84375 62.041668 358.23438 61.510418Q357.64062 60.979168 357.64062 60.151043Q357.64062 59.166668 358.39062 58.619793Q359.14062 58.072918 360.51562 58.072918L361.5625 58.072918L361.5625 57.572918Q361.5625 57.010418 361.21875 56.682293Q360.89062 56.338543 360.21875 56.338543Q359.64062 56.338543 359.25 56.635418Q358.85938 56.916668 358.85938 57.338543L357.76562 57.338543Q357.76562 56.854168 358.09375 56.416668Q358.4375 55.979168 359.01562 55.729168Q359.59375 55.463543 360.28125 55.463543Q361.39062 55.463543 362.0 56.010418Q362.625 56.557293 362.65625 57.510418L362.65625 60.432293Q362.65625 61.307293 362.875 61.822918L362.875 61.916668L361.73438 61.916668ZM359.9375 61.088543Q360.45312 61.088543 360.90625 60.822918Q361.35938 60.557293 361.5625 60.135418L361.5625 58.838543L360.71875 58.838543Q358.71875 58.838543 358.71875 60.010418Q358.71875 60.510418 359.0625 60.807293Q359.40625 61.088543 359.9375 61.088543ZM366.29688 54.041668L366.29688 55.572918L367.46875 55.572918L367.46875 56.416668L366.29688 56.416668L366.29688 60.338543Q366.29688 60.729168 366.45312 60.916668Q366.60938 61.104168 366.98438 61.104168Q367.17188 61.104168 367.5 61.041668L367.5 61.916668Q367.07812 62.041668 366.67188 62.041668Q365.95312 62.041668 365.57812 61.604168Q365.20312 61.151043 365.20312 60.338543L365.20312 56.416668L364.04688 56.416668L364.04688 55.572918L365.20312 55.572918L365.20312 54.041668L366.29688 54.041668ZM370.0 61.916668L368.92188 61.916668L368.92188 55.572918L370.0 55.572918L370.0 61.916668ZM368.82812 53.901043Q368.82812 53.635418 368.98438 53.447918Q369.15625 53.260418 369.46875 53.260418Q369.78125 53.260418 369.9375 53.447918Q370.10938 53.635418 370.10938 53.901043Q370.10938 54.151043 369.9375 54.338543Q369.78125 54.510418 369.46875 54.510418Q369.15625 54.510418 368.98438 54.338543Q368.82812 54.151043 368.82812 53.901043ZM371.53125 58.682293Q371.53125 57.760418 371.89062 57.010418Q372.26562 56.260418 372.92188 55.869793Q373.57812 55.463543 374.40625 55.463543Q375.70312 55.463543 376.5 56.354168Q377.3125 57.244793 377.3125 58.744793L377.3125 58.822918Q377.3125 59.744793 376.95312 60.479168Q376.59375 61.213543 375.9375 61.635418Q375.28125 62.041668 374.42188 62.041668Q373.14062 62.041668 372.32812 61.151043Q371.53125 60.244793 371.53125 58.760418L371.53125 58.682293ZM372.625 58.822918Q372.625 59.869793 373.10938 60.510418Q373.60938 61.151043 374.42188 61.151043Q375.25 61.151043 375.73438 60.510418Q376.21875 59.854168 376.21875 58.682293Q376.21875 57.651043 375.71875 57.010418Q375.23438 56.354168 374.40625 56.354168Q373.60938 56.354168 373.10938 56.994793Q372.625 57.619793 372.625 58.822918ZM379.84375 55.572918L379.875 56.369793Q380.60938 55.463543 381.78125 55.463543Q383.79688 55.463543 383.8125 57.729168L383.8125 61.916668L382.71875 61.916668L382.71875 57.713543Q382.71875 57.041668 382.40625 56.713543Q382.10938 56.385418 381.45312 56.385418Q380.92188 56.385418 380.51562 56.666668Q380.125 56.947918 379.90625 57.401043L379.90625 61.916668L378.82812 61.916668L378.82812 55.572918L379.84375 55.572918ZM392.125 58.463543L390.10938 58.463543L390.10938 61.916668L388.98438 61.916668L388.98438 53.385418L391.8125 53.385418Q393.25 53.385418 394.01562 54.041668Q394.79688 54.697918 394.79688 55.947918Q394.79688 56.744793 394.35938 57.338543Q393.9375 57.932293 393.17188 58.229168L395.17188 61.838543L395.17188 61.916668L393.96875 61.916668L392.125 58.463543ZM390.10938 57.541668L391.84375 57.541668Q392.6875 57.541668 393.17188 57.119793Q393.67188 56.682293 393.67188 55.947918Q393.67188 55.166668 393.20312 54.744793Q392.73438 54.322918 391.84375 54.307293L390.10938 54.307293L390.10938 57.541668ZM399.73438 61.916668Q399.64062 61.729168 399.57812 61.244793Q398.82812 62.041668 397.78125 62.041668Q396.84375 62.041668 396.23438 61.510418Q395.64062 60.979168 395.64062 60.151043Q395.64062 59.166668 396.39062 58.619793Q397.14062 58.072918 398.51562 58.072918L399.5625 58.072918L399.5625 57.572918Q399.5625 57.010418 399.21875 56.682293Q398.89062 56.338543 398.21875 56.338543Q397.64062 56.338543 397.25 56.635418Q396.85938 56.916668 396.85938 57.338543L395.76562 57.338543Q395.76562 56.854168 396.09375 56.416668Q396.4375 55.979168 397.01562 55.729168Q397.59375 55.463543 398.28125 55.463543Q399.39062 55.463543 400.0 56.010418Q400.625 56.557293 400.65625 57.510418L400.65625 60.432293Q400.65625 61.307293 400.875 61.822918L400.875 61.916668L399.73438 61.916668ZM397.9375 61.088543Q398.45312 61.088543 398.90625 60.822918Q399.35938 60.557293 399.5625 60.135418L399.5625 58.838543L398.71875 58.838543Q396.71875 58.838543 396.71875 60.010418Q396.71875 60.510418 397.0625 60.807293Q397.40625 61.088543 397.9375 61.088543ZM404.29688 54.041668L404.29688 55.572918L405.46875 55.572918L405.46875 56.416668L404.29688 56.416668L404.29688 60.338543Q404.29688 60.729168 404.45312 60.916668Q404.60938 61.104168 404.98438 61.104168Q405.17188 61.104168 405.5 61.041668L405.5 61.916668Q405.07812 62.041668 404.67188 62.041668Q403.95312 62.041668 403.57812 61.604168Q403.20312 61.151043 403.20312 60.338543L403.20312 56.416668L402.04688 56.416668L402.04688 55.572918L403.20312 55.572918L403.20312 54.041668L404.29688 54.041668ZM409.45312 62.041668Q408.15625 62.041668 407.34375 61.197918Q406.54688 60.338543 406.54688 58.916668L406.54688 58.729168Q406.54688 57.776043 406.90625 57.041668Q407.26562 56.291668 407.90625 55.885418Q408.5625 55.463543 409.3125 55.463543Q410.54688 55.463543 411.23438 56.276043Q411.92188 57.088543 411.92188 58.604168L411.92188 59.057293L407.625 59.057293Q407.65625 59.994793 408.17188 60.572918Q408.70312 61.151043 409.51562 61.151043Q410.07812 61.151043 410.46875 60.916668Q410.875 60.682293 411.1875 60.291668L411.84375 60.807293Q411.04688 62.041668 409.45312 62.041668ZM409.3125 56.354168Q408.65625 56.354168 408.20312 56.838543Q407.76562 57.307293 407.67188 58.166668L410.84375 58.166668L410.84375 58.088543Q410.79688 57.260418 410.39062 56.807293Q410.0 56.354168 409.3125 56.354168Z" fill-rule="nonzero"/><path fill="#000000" d="M70.109375 30.58125L65.34375 30.58125L64.265625 33.55L62.71875 33.55L67.0625 22.175L68.375 22.175L72.734375 33.55L71.1875 33.55L70.109375 30.58125ZM65.796875 29.346874L69.65625 29.346874L67.71875 24.01875L65.796875 29.346874ZM76.984375 32.51875Q77.765625 32.51875 78.34375 32.05Q78.921875 31.58125 78.984375 30.878124L80.34375 30.878124Q80.3125 31.6125 79.84375 32.26875Q79.390625 32.925 78.609375 33.315624Q77.84375 33.70625 76.984375 33.70625Q75.265625 33.70625 74.234375 32.55Q73.21875 31.39375 73.21875 29.39375L73.21875 29.159374Q73.21875 27.925 73.671875 26.971874Q74.125 26.003124 74.96875 25.471874Q75.828125 24.940624 76.984375 24.940624Q78.40625 24.940624 79.34375 25.8Q80.28125 26.64375 80.34375 28.003124L78.984375 28.003124Q78.921875 27.175 78.359375 26.659374Q77.796875 26.128124 76.984375 26.128124Q75.875 26.128124 75.265625 26.925Q74.671875 27.70625 74.671875 29.20625L74.671875 29.4875Q74.671875 30.940624 75.265625 31.7375Q75.875 32.51875 76.984375 32.51875ZM84.984375 32.51875Q85.765625 32.51875 86.34375 32.05Q86.921875 31.58125 86.984375 30.878124L88.34375 30.878124Q88.3125 31.6125 87.84375 32.26875Q87.390625 32.925 86.609375 33.315624Q85.84375 33.70625 84.984375 33.70625Q83.265625 33.70625 82.234375 32.55Q81.21875 31.39375 81.21875 29.39375L81.21875 29.159374Q81.21875 27.925 81.671875 26.971874Q82.125 26.003124 82.96875 25.471874Q83.828125 24.940624 84.984375 24.940624Q86.40625 24.940624 87.34375 25.8Q88.28125 26.64375 88.34375 28.003124L86.984375 28.003124Q86.921875 27.175 86.359375 26.659374Q85.796875 26.128124 84.984375 26.128124Q83.875 26.128124 83.265625 26.925Q82.671875 27.70625 82.671875 29.20625L82.671875 29.4875Q82.671875 30.940624 83.265625 31.7375Q83.875 32.51875 84.984375 32.51875ZM94.8125 32.70625Q93.96875 33.70625 92.34375 33.70625Q90.984375 33.70625 90.28125 32.925Q89.578125 32.128124 89.5625 30.596874L89.5625 25.096874L91.015625 25.096874L91.015625 30.55Q91.015625 32.471874 92.578125 32.471874Q94.234375 32.471874 94.78125 31.2375L94.78125 25.096874L96.21875 25.096874L96.21875 33.55L94.84375 33.55L94.8125 32.70625ZM102.6875 26.39375Q102.359375 26.33125 101.96875 26.33125Q100.546875 26.33125 100.046875 27.55L100.046875 33.55L98.59375 33.55L98.59375 25.096874L100.0 25.096874L100.03125 26.065624Q100.734375 24.940624 102.046875 24.940624Q102.46875 24.940624 102.6875 25.05L102.6875 26.39375ZM108.8125 33.55Q108.6875 33.3 108.609375 32.659374Q107.609375 33.70625 106.203125 33.70625Q104.953125 33.70625 104.15625 33.003124Q103.359375 32.284374 103.359375 31.20625Q103.359375 29.878124 104.359375 29.159374Q105.359375 28.425 107.1875 28.425L108.59375 28.425L108.59375 27.753124Q108.59375 27.003124 108.140625 26.55Q107.6875 26.096874 106.796875 26.096874Q106.03125 26.096874 105.5 26.4875Q104.984375 26.878124 104.984375 27.440624L103.53125 27.440624Q103.53125 26.8 103.96875 26.221874Q104.421875 25.628124 105.1875 25.284374Q105.96875 24.940624 106.890625 24.940624Q108.34375 24.940624 109.171875 25.675Q110.0 26.39375 110.03125 27.675L110.03125 31.565624Q110.03125 32.7375 110.328125 33.425L110.328125 33.55L108.8125 33.55ZM106.421875 32.440624Q107.09375 32.440624 107.703125 32.096874Q108.3125 31.7375 108.59375 31.175L108.59375 29.440624L107.453125 29.440624Q104.796875 29.440624 104.796875 31.003124Q104.796875 31.675 105.25 32.065624Q105.703125 32.440624 106.421875 32.440624ZM115.984375 32.51875Q116.765625 32.51875 117.34375 32.05Q117.921875 31.58125 117.984375 30.878124L119.34375 30.878124Q119.3125 31.6125 118.84375 32.26875Q118.390625 32.925 117.609375 33.315624Q116.84375 33.70625 115.984375 33.70625Q114.265625 33.70625 113.234375 32.55Q112.21875 31.39375 112.21875 29.39375L112.21875 29.159374Q112.21875 27.925 112.671875 26.971874Q113.125 26.003124 113.96875 25.471874Q114.828125 24.940624 115.984375 24.940624Q117.40625 24.940624 118.34375 25.8Q119.28125 26.64375 119.34375 28.003124L117.984375 28.003124Q117.921875 27.175 117.359375 26.659374Q116.796875 26.128124 115.984375 26.128124Q114.875 26.128124 114.265625 26.925Q113.671875 27.70625 113.671875 29.20625L113.671875 29.4875Q113.671875 30.940624 114.265625 31.7375Q114.875 32.51875 115.984375 32.51875ZM123.359375 31.425L125.328125 25.096874L126.875 25.096874L123.484375 34.8625Q122.6875 36.971874 120.96875 36.971874L120.703125 36.940624L120.15625 36.846874L120.15625 35.675L120.546875 35.70625Q121.28125 35.70625 121.6875 35.409374Q122.109375 35.1125 122.375 34.315624L122.6875 33.45625L119.671875 25.096874L121.25 25.096874L123.359375 31.425ZM137.8125 33.55Q137.6875 33.3 137.60938 32.659374Q136.60938 33.70625 135.20312 33.70625Q133.95312 33.70625 133.15625 33.003124Q132.35938 32.284374 132.35938 31.20625Q132.35938 29.878124 133.35938 29.159374Q134.35938 28.425 136.1875 28.425L137.59375 28.425L137.59375 27.753124Q137.59375 27.003124 137.14062 26.55Q136.6875 26.096874 135.79688 26.096874Q135.03125 26.096874 134.5 26.4875Q133.98438 26.878124 133.98438 27.440624L132.53125 27.440624Q132.53125 26.8 132.96875 26.221874Q133.42188 25.628124 134.1875 25.284374Q134.96875 24.940624 135.89062 24.940624Q137.34375 24.940624 138.17188 25.675Q139.0 26.39375 139.03125 27.675L139.03125 31.565624Q139.03125 32.7375 139.32812 33.425L139.32812 33.55L137.8125 33.55ZM135.42188 32.440624Q136.09375 32.440624 136.70312 32.096874Q137.3125 31.7375 137.59375 31.175L137.59375 29.440624L136.45312 29.440624Q133.79688 29.440624 133.79688 31.003124Q133.79688 31.675 134.25 32.065624Q134.70312 32.440624 135.42188 32.440624ZM142.96875 25.096874L143.01562 26.159374Q143.98438 24.940624 145.54688 24.940624Q148.21875 24.940624 148.25 27.95625L148.25 33.55L146.79688 33.55L146.79688 27.95625Q146.79688 27.034374 146.375 26.596874Q145.96875 26.159374 145.10938 26.159374Q144.40625 26.159374 143.875 26.534374Q143.34375 26.909374 143.04688 27.51875L143.04688 33.55L141.59375 33.55L141.59375 25.096874L142.96875 25.096874ZM150.25 29.253124Q150.25 27.3 151.17188 26.128124Q152.09375 24.940624 153.57812 24.940624Q155.0625 24.940624 155.9375 25.95625L155.9375 21.55L157.375 21.55L157.375 33.55L156.04688 33.55L155.98438 32.64375Q155.10938 33.70625 153.5625 33.70625Q152.09375 33.70625 151.17188 32.503124Q150.25 31.3 150.25 29.3625L150.25 29.253124ZM151.6875 29.409374Q151.6875 30.846874 152.28125 31.659374Q152.875 32.471874 153.92188 32.471874Q155.29688 32.471874 155.9375 31.2375L155.9375 27.3625Q155.28125 26.159374 153.9375 26.159374Q152.875 26.159374 152.28125 26.9875Q151.6875 27.8 151.6875 29.409374ZM165.76562 22.175L169.48438 31.45625L173.20312 22.175L175.14062 22.175L175.14062 33.55L173.64062 33.55L173.64062 29.1125L173.78125 24.33125L170.04688 33.55L168.90625 33.55L165.17188 24.3625L165.32812 29.1125L165.32812 33.55L163.82812 33.55L163.82812 22.175L165.76562 22.175ZM179.17188 33.55L177.71875 33.55L177.71875 25.096874L179.17188 25.096874L179.17188 33.55ZM177.60938 22.846874Q177.60938 22.503124 177.8125 22.26875Q178.03125 22.01875 178.45312 22.01875Q178.875 22.01875 179.09375 22.26875Q179.3125 22.503124 179.3125 22.8625Q179.3125 23.20625 179.09375 23.440624Q178.875 23.675 178.45312 23.675Q178.03125 23.675 177.8125 23.440624Q177.60938 23.20625 177.60938 22.846874ZM186.51562 31.3Q186.51562 30.721874 186.07812 30.39375Q185.64062 30.065624 184.53125 29.83125Q183.4375 29.596874 182.79688 29.26875Q182.15625 28.940624 181.84375 28.4875Q181.53125 28.034374 181.53125 27.409374Q181.53125 26.378124 182.40625 25.659374Q183.29688 24.940624 184.65625 24.940624Q186.09375 24.940624 186.98438 25.690624Q187.89062 26.425 187.89062 27.58125L186.4375 27.58125Q186.4375 26.9875 185.92188 26.565624Q185.42188 26.128124 184.65625 26.128124Q183.875 26.128124 183.42188 26.471874Q182.98438 26.815624 182.98438 27.3625Q182.98438 27.89375 183.39062 28.159374Q183.8125 28.425 184.89062 28.675Q185.96875 28.909374 186.64062 29.253124Q187.3125 29.58125 187.64062 30.05Q187.96875 30.51875 187.96875 31.20625Q187.96875 32.33125 187.0625 33.01875Q186.15625 33.70625 184.70312 33.70625Q183.6875 33.70625 182.90625 33.346874Q182.125 32.9875 181.6875 32.346874Q181.25 31.690624 181.25 30.940624L182.6875 30.940624Q182.73438 31.675 183.26562 32.096874Q183.8125 32.51875 184.70312 32.51875Q185.53125 32.51875 186.01562 32.190624Q186.51562 31.8625 186.51562 31.3ZM192.98438 32.51875Q193.76562 32.51875 194.34375 32.05Q194.92188 31.58125 194.98438 30.878124L196.34375 30.878124Q196.3125 31.6125 195.84375 32.26875Q195.39062 32.925 194.60938 33.315624Q193.84375 33.70625 192.98438 33.70625Q191.26562 33.70625 190.23438 32.55Q189.21875 31.39375 189.21875 29.39375L189.21875 29.159374Q189.21875 27.925 189.67188 26.971874Q190.125 26.003124 190.96875 25.471874Q191.82812 24.940624 192.98438 24.940624Q194.40625 24.940624 195.34375 25.8Q196.28125 26.64375 196.34375 28.003124L194.98438 28.003124Q194.92188 27.175 194.35938 26.659374Q193.79688 26.128124 192.98438 26.128124Q191.875 26.128124 191.26562 26.925Q190.67188 27.70625 190.67188 29.20625L190.67188 29.4875Q190.67188 30.940624 191.26562 31.7375Q191.875 32.51875 192.98438 32.51875ZM199.17188 33.55L197.71875 33.55L197.71875 21.55L199.17188 21.55L199.17188 33.55ZM206.8125 33.55Q206.6875 33.3 206.60938 32.659374Q205.60938 33.70625 204.20312 33.70625Q202.95312 33.70625 202.15625 33.003124Q201.35938 32.284374 201.35938 31.20625Q201.35938 29.878124 202.35938 29.159374Q203.35938 28.425 205.1875 28.425L206.59375 28.425L206.59375 27.753124Q206.59375 27.003124 206.14062 26.55Q205.6875 26.096874 204.79688 26.096874Q204.03125 26.096874 203.5 26.4875Q202.98438 26.878124 202.98438 27.440624L201.53125 27.440624Q201.53125 26.8 201.96875 26.221874Q202.42188 25.628124 203.1875 25.284374Q203.96875 24.940624 204.89062 24.940624Q206.34375 24.940624 207.17188 25.675Q208.0 26.39375 208.03125 27.675L208.03125 31.565624Q208.03125 32.7375 208.32812 33.425L208.32812 33.55L206.8125 33.55ZM204.42188 32.440624Q205.09375 32.440624 205.70312 32.096874Q206.3125 31.7375 206.59375 31.175L206.59375 29.440624L205.45312 29.440624Q202.79688 29.440624 202.79688 31.003124Q202.79688 31.675 203.25 32.065624Q203.70312 32.440624 204.42188 32.440624ZM215.51562 31.3Q215.51562 30.721874 215.07812 30.39375Q214.64062 30.065624 213.53125 29.83125Q212.4375 29.596874 211.79688 29.26875Q211.15625 28.940624 210.84375 28.4875Q210.53125 28.034374 210.53125 27.409374Q210.53125 26.378124 211.40625 25.659374Q212.29688 24.940624 213.65625 24.940624Q215.09375 24.940624 215.98438 25.690624Q216.89062 26.425 216.89062 27.58125L215.4375 27.58125Q215.4375 26.9875 214.92188 26.565624Q214.42188 26.128124 213.65625 26.128124Q212.875 26.128124 212.42188 26.471874Q211.98438 26.815624 211.98438 27.3625Q211.98438 27.89375 212.39062 28.159374Q212.8125 28.425 213.89062 28.675Q214.96875 28.909374 215.64062 29.253124Q216.3125 29.58125 216.64062 30.05Q216.96875 30.51875 216.96875 31.20625Q216.96875 32.33125 216.0625 33.01875Q215.15625 33.70625 213.70312 33.70625Q212.6875 33.70625 211.90625 33.346874Q211.125 32.9875 210.6875 32.346874Q210.25 31.690624 210.25 30.940624L211.6875 30.940624Q211.73438 31.675 212.26562 32.096874Q212.8125 32.51875 213.70312 32.51875Q214.53125 32.51875 215.01562 32.190624Q215.51562 31.8625 215.51562 31.3ZM223.51562 31.3Q223.51562 30.721874 223.07812 30.39375Q222.64062 30.065624 221.53125 29.83125Q220.4375 29.596874 219.79688 29.26875Q219.15625 28.940624 218.84375 28.4875Q218.53125 28.034374 218.53125 27.409374Q218.53125 26.378124 219.40625 25.659374Q220.29688 24.940624 221.65625 24.940624Q223.09375 24.940624 223.98438 25.690624Q224.89062 26.425 224.89062 27.58125L223.4375 27.58125Q223.4375 26.9875 222.92188 26.565624Q222.42188 26.128124 221.65625 26.128124Q220.875 26.128124 220.42188 26.471874Q219.98438 26.815624 219.98438 27.3625Q219.98438 27.89375 220.39062 28.159374Q220.8125 28.425 221.89062 28.675Q222.96875 28.909374 223.64062 29.253124Q224.3125 29.58125 224.64062 30.05Q224.96875 30.51875 224.96875 31.20625Q224.96875 32.33125 224.0625 33.01875Q223.15625 33.70625 221.70312 33.70625Q220.6875 33.70625 219.90625 33.346874Q219.125 32.9875 218.6875 32.346874Q218.25 31.690624 218.25 30.940624L219.6875 30.940624Q219.73438 31.675 220.26562 32.096874Q220.8125 32.51875 221.70312 32.51875Q222.53125 32.51875 223.01562 32.190624Q223.51562 31.8625 223.51562 31.3ZM228.17188 33.55L226.71875 33.55L226.71875 25.096874L228.17188 25.096874L228.17188 33.55ZM226.60938 22.846874Q226.60938 22.503124 226.8125 22.26875Q227.03125 22.01875 227.45312 22.01875Q227.875 22.01875 228.09375 22.26875Q228.3125 22.503124 228.3125 22.8625Q228.3125 23.20625 228.09375 23.440624Q227.875 23.675 227.45312 23.675Q227.03125 23.675 226.8125 23.440624Q226.60938 23.20625 226.60938 22.846874ZM231.3125 33.55L231.3125 26.20625L229.96875 26.20625L229.96875 25.096874L231.3125 25.096874L231.3125 24.221874Q231.3125 22.8625 232.03125 22.128124Q232.76562 21.378124 234.09375 21.378124Q234.59375 21.378124 235.07812 21.51875L235.0 22.690624Q234.64062 22.6125 234.21875 22.6125Q233.51562 22.6125 233.125 23.034374Q232.75 23.440624 232.75 24.20625L232.75 25.096874L234.5625 25.096874L234.5625 26.20625L232.75 26.20625L232.75 33.55L231.3125 33.55ZM238.17188 33.55L236.71875 33.55L236.71875 25.096874L238.17188 25.096874L238.17188 33.55ZM236.60938 22.846874Q236.60938 22.503124 236.8125 22.26875Q237.03125 22.01875 237.45312 22.01875Q237.875 22.01875 238.09375 22.26875Q238.3125 22.503124 238.3125 22.8625Q238.3125 23.20625 238.09375 23.440624Q237.875 23.675 237.45312 23.675Q237.03125 23.675 236.8125 23.440624Q236.60938 23.20625 236.60938 22.846874ZM243.98438 32.51875Q244.76562 32.51875 245.34375 32.05Q245.92188 31.58125 245.98438 30.878124L247.34375 30.878124Q247.3125 31.6125 246.84375 32.26875Q246.39062 32.925 245.60938 33.315624Q244.84375 33.70625 243.98438 33.70625Q242.26562 33.70625 241.23438 32.55Q240.21875 31.39375 240.21875 29.39375L240.21875 29.159374Q240.21875 27.925 240.67188 26.971874Q241.125 26.003124 241.96875 25.471874Q242.82812 24.940624 243.98438 24.940624Q245.40625 24.940624 246.34375 25.8Q247.28125 26.64375 247.34375 28.003124L245.98438 28.003124Q245.92188 27.175 245.35938 26.659374Q244.79688 26.128124 243.98438 26.128124Q242.875 26.128124 242.26562 26.925Q241.67188 27.70625 241.67188 29.20625L241.67188 29.4875Q241.67188 30.940624 242.26562 31.7375Q242.875 32.51875 243.98438 32.51875ZM253.8125 33.55Q253.6875 33.3 253.60938 32.659374Q252.60938 33.70625 251.20312 33.70625Q249.95312 33.70625 249.15625 33.003124Q248.35938 32.284374 248.35938 31.20625Q248.35938 29.878124 249.35938 29.159374Q250.35938 28.425 252.1875 28.425L253.59375 28.425L253.59375 27.753124Q253.59375 27.003124 253.14062 26.55Q252.6875 26.096874 251.79688 26.096874Q251.03125 26.096874 250.5 26.4875Q249.98438 26.878124 249.98438 27.440624L248.53125 27.440624Q248.53125 26.8 248.96875 26.221874Q249.42188 25.628124 250.1875 25.284374Q250.96875 24.940624 251.89062 24.940624Q253.34375 24.940624 254.17188 25.675Q255.0 26.39375 255.03125 27.675L255.03125 31.565624Q255.03125 32.7375 255.32812 33.425L255.32812 33.55L253.8125 33.55ZM251.42188 32.440624Q252.09375 32.440624 252.70312 32.096874Q253.3125 31.7375 253.59375 31.175L253.59375 29.440624L252.45312 29.440624Q249.79688 29.440624 249.79688 31.003124Q249.79688 31.675 250.25 32.065624Q250.70312 32.440624 251.42188 32.440624ZM259.5625 23.05L259.5625 25.096874L261.14062 25.096874L261.14062 26.20625L259.5625 26.20625L259.5625 31.45625Q259.5625 31.95625 259.76562 32.221874Q259.98438 32.471874 260.48438 32.471874Q260.73438 32.471874 261.17188 32.378124L261.17188 33.55Q260.60938 33.70625 260.0625 33.70625Q259.09375 33.70625 258.59375 33.128124Q258.10938 32.534374 258.10938 31.45625L258.10938 26.20625L256.57812 26.20625L256.57812 25.096874L258.10938 25.096874L258.10938 23.05L259.5625 23.05ZM264.17188 33.55L262.71875 33.55L262.71875 25.096874L264.17188 25.096874L264.17188 33.55ZM262.60938 22.846874Q262.60938 22.503124 262.8125 22.26875Q263.03125 22.01875 263.45312 22.01875Q263.875 22.01875 264.09375 22.26875Q264.3125 22.503124 264.3125 22.8625Q264.3125 23.20625 264.09375 23.440624Q263.875 23.675 263.45312 23.675Q263.03125 23.675 262.8125 23.440624Q262.60938 23.20625 262.60938 22.846874ZM266.21875 29.2375Q266.21875 28.003124 266.70312 27.01875Q267.1875 26.01875 268.0625 25.4875Q268.9375 24.940624 270.04688 24.940624Q271.78125 24.940624 272.84375 26.14375Q273.90625 27.33125 273.90625 29.315624L273.90625 29.409374Q273.90625 30.64375 273.4375 31.628124Q272.96875 32.6125 272.07812 33.159374Q271.20312 33.70625 270.0625 33.70625Q268.34375 33.70625 267.28125 32.51875Q266.21875 31.315624 266.21875 29.346874L266.21875 29.2375ZM267.67188 29.409374Q267.67188 30.815624 268.3125 31.675Q268.96875 32.51875 270.0625 32.51875Q271.17188 32.51875 271.8125 31.659374Q272.46875 30.8 272.46875 29.2375Q272.46875 27.846874 271.79688 26.9875Q271.14062 26.128124 270.04688 26.128124Q268.98438 26.128124 268.32812 26.9875Q267.67188 27.83125 267.67188 29.409374ZM276.96875 25.096874L277.01562 26.159374Q277.98438 24.940624 279.54688 24.940624Q282.21875 24.940624 282.25 27.95625L282.25 33.55L280.79688 33.55L280.79688 27.95625Q280.79688 27.034374 280.375 26.596874Q279.96875 26.159374 279.10938 26.159374Q278.40625 26.159374 277.875 26.534374Q277.34375 26.909374 277.04688 27.51875L277.04688 33.55L275.59375 33.55L275.59375 25.096874L276.96875 25.096874ZM293.0 28.940624L290.32812 28.940624L290.32812 33.55L288.8125 33.55L288.8125 22.175L292.57812 22.175Q294.5 22.175 295.53125 23.05Q296.57812 23.925 296.57812 25.596874Q296.57812 26.659374 296.0 27.45625Q295.42188 28.2375 294.40625 28.628124L297.07812 33.45625L297.07812 33.55L295.46875 33.55L293.0 28.940624ZM290.32812 27.721874L292.625 27.721874Q293.75 27.721874 294.40625 27.14375Q295.0625 26.565624 295.0625 25.596874Q295.0625 24.534374 294.4375 23.971874Q293.8125 23.409374 292.625 23.409374L290.32812 23.409374L290.32812 27.721874ZM303.8125 33.55Q303.6875 33.3 303.60938 32.659374Q302.60938 33.70625 301.20312 33.70625Q299.95312 33.70625 299.15625 33.003124Q298.35938 32.284374 298.35938 31.20625Q298.35938 29.878124 299.35938 29.159374Q300.35938 28.425 302.1875 28.425L303.59375 28.425L303.59375 27.753124Q303.59375 27.003124 303.14062 26.55Q302.6875 26.096874 301.79688 26.096874Q301.03125 26.096874 300.5 26.4875Q299.98438 26.878124 299.98438 27.440624L298.53125 27.440624Q298.53125 26.8 298.96875 26.221874Q299.42188 25.628124 300.1875 25.284374Q300.96875 24.940624 301.89062 24.940624Q303.34375 24.940624 304.17188 25.675Q305.0 26.39375 305.03125 27.675L305.03125 31.565624Q305.03125 32.7375 305.32812 33.425L305.32812 33.55L303.8125 33.55ZM301.42188 32.440624Q302.09375 32.440624 302.70312 32.096874Q303.3125 31.7375 303.59375 31.175L303.59375 29.440624L302.45312 29.440624Q299.79688 29.440624 299.79688 31.003124Q299.79688 31.675 300.25 32.065624Q300.70312 32.440624 301.42188 32.440624ZM309.5625 23.05L309.5625 25.096874L311.14062 25.096874L311.14062 26.20625L309.5625 26.20625L309.5625 31.45625Q309.5625 31.95625 309.76562 32.221874Q309.98438 32.471874 310.48438 32.471874Q310.73438 32.471874 311.17188 32.378124L311.17188 33.55Q310.60938 33.70625 310.0625 33.70625Q309.09375 33.70625 308.59375 33.128124Q308.10938 32.534374 308.10938 31.45625L308.10938 26.20625L306.57812 26.20625L306.57812 25.096874L308.10938 25.096874L308.10938 23.05L309.5625 23.05ZM316.10938 33.70625Q314.39062 33.70625 313.3125 32.58125Q312.23438 31.440624 312.23438 29.55L312.23438 29.284374Q312.23438 28.034374 312.70312 27.05Q313.1875 26.05 314.04688 25.503124Q314.92188 24.940624 315.92188 24.940624Q317.57812 24.940624 318.48438 26.034374Q319.40625 27.1125 319.40625 29.128124L319.40625 29.7375L313.67188 29.7375Q313.70312 30.9875 314.40625 31.753124Q315.10938 32.51875 316.1875 32.51875Q316.95312 32.51875 317.48438 32.20625Q318.01562 31.89375 318.40625 31.378124L319.29688 32.065624Q318.23438 33.70625 316.10938 33.70625ZM315.92188 26.128124Q315.04688 26.128124 314.45312 26.76875Q313.85938 27.39375 313.71875 28.55L317.95312 28.55L317.95312 28.440624Q317.89062 27.33125 317.35938 26.7375Q316.82812 26.128124 315.92188 26.128124ZM333.57812 28.221874Q333.57812 29.89375 333.01562 31.14375Q332.45312 32.39375 331.42188 33.05Q330.39062 33.70625 329.01562 33.70625Q327.67188 33.70625 326.625 33.05Q325.59375 32.378124 325.01562 31.159374Q324.4375 29.940624 324.42188 28.33125L324.42188 27.503124Q324.42188 25.8625 324.98438 24.6125Q325.5625 23.346874 326.60938 22.690624Q327.65625 22.01875 329.0 22.01875Q330.35938 22.01875 331.40625 22.675Q332.45312 23.33125 333.01562 24.596874Q333.57812 25.846874 333.57812 27.503124L333.57812 28.221874ZM332.07812 27.4875Q332.07812 25.471874 331.26562 24.39375Q330.45312 23.3 329.0 23.3Q327.57812 23.3 326.75 24.39375Q325.9375 25.471874 325.92188 27.39375L325.92188 28.221874Q325.92188 30.190624 326.73438 31.315624Q327.5625 32.425 329.01562 32.425Q330.46875 32.425 331.26562 31.378124Q332.0625 30.315624 332.07812 28.33125L332.07812 27.4875ZM342.75 29.409374Q342.75 31.346874 341.85938 32.534374Q340.96875 33.70625 339.46875 33.70625Q337.875 33.70625 337.0 32.565624L336.92188 33.55L335.59375 33.55L335.59375 21.55L337.04688 21.55L337.04688 26.01875Q337.92188 24.940624 339.45312 24.940624Q341.0 24.940624 341.875 26.1125Q342.75 27.26875 342.75 29.284374L342.75 29.409374ZM341.3125 29.253124Q341.3125 27.76875 340.73438 26.971874Q340.17188 26.159374 339.09375 26.159374Q337.67188 26.159374 337.04688 27.4875L337.04688 31.14375Q337.70312 32.471874 339.10938 32.471874Q340.15625 32.471874 340.73438 31.675Q341.3125 30.8625 341.3125 29.253124ZM346.5625 23.05L346.5625 25.096874L348.14062 25.096874L348.14062 26.20625L346.5625 26.20625L346.5625 31.45625Q346.5625 31.95625 346.76562 32.221874Q346.98438 32.471874 347.48438 32.471874Q347.73438 32.471874 348.17188 32.378124L348.17188 33.55Q347.60938 33.70625 347.0625 33.70625Q346.09375 33.70625 345.59375 33.128124Q345.10938 32.534374 345.10938 31.45625L345.10938 26.20625L343.57812 26.20625L343.57812 25.096874L345.10938 25.096874L345.10938 23.05L346.5625 23.05ZM354.8125 33.55Q354.6875 33.3 354.60938 32.659374Q353.60938 33.70625 352.20312 33.70625Q350.95312 33.70625 350.15625 33.003124Q349.35938 32.284374 349.35938 31.20625Q349.35938 29.878124 350.35938 29.159374Q351.35938 28.425 353.1875 28.425L354.59375 28.425L354.59375 27.753124Q354.59375 27.003124 354.14062 26.55Q353.6875 26.096874 352.79688 26.096874Q352.03125 26.096874 351.5 26.4875Q350.98438 26.878124 350.98438 27.440624L349.53125 27.440624Q349.53125 26.8 349.96875 26.221874Q350.42188 25.628124 351.1875 25.284374Q351.96875 24.940624 352.89062 24.940624Q354.34375 24.940624 355.17188 25.675Q356.0 26.39375 356.03125 27.675L356.03125 31.565624Q356.03125 32.7375 356.32812 33.425L356.32812 33.55L354.8125 33.55ZM352.42188 32.440624Q353.09375 32.440624 353.70312 32.096874Q354.3125 31.7375 354.59375 31.175L354.59375 29.440624L353.45312 29.440624Q350.79688 29.440624 350.79688 31.003124Q350.79688 31.675 351.25 32.065624Q351.70312 32.440624 352.42188 32.440624ZM360.17188 33.55L358.71875 33.55L358.71875 25.096874L360.17188 25.096874L360.17188 33.55ZM358.60938 22.846874Q358.60938 22.503124 358.8125 22.26875Q359.03125 22.01875 359.45312 22.01875Q359.875 22.01875 360.09375 22.26875Q360.3125 22.503124 360.3125 22.8625Q360.3125 23.20625 360.09375 23.440624Q359.875 23.675 359.45312 23.675Q359.03125 23.675 358.8125 23.440624Q358.60938 23.20625 358.60938 22.846874ZM363.96875 25.096874L364.01562 26.159374Q364.98438 24.940624 366.54688 24.940624Q369.21875 24.940624 369.25 27.95625L369.25 33.55L367.79688 33.55L367.79688 27.95625Q367.79688 27.034374 367.375 26.596874Q366.96875 26.159374 366.10938 26.159374Q365.40625 26.159374 364.875 26.534374Q364.34375 26.909374 364.04688 27.51875L364.04688 33.55L362.59375 33.55L362.59375 25.096874L363.96875 25.096874ZM375.10938 33.70625Q373.39062 33.70625 372.3125 32.58125Q371.23438 31.440624 371.23438 29.55L371.23438 29.284374Q371.23438 28.034374 371.70312 27.05Q372.1875 26.05 373.04688 25.503124Q373.92188 24.940624 374.92188 24.940624Q376.57812 24.940624 377.48438 26.034374Q378.40625 27.1125 378.40625 29.128124L378.40625 29.7375L372.67188 29.7375Q372.70312 30.9875 373.40625 31.753124Q374.10938 32.51875 375.1875 32.51875Q375.95312 32.51875 376.48438 32.20625Q377.01562 31.89375 377.40625 31.378124L378.29688 32.065624Q377.23438 33.70625 375.10938 33.70625ZM374.92188 26.128124Q374.04688 26.128124 373.45312 26.76875Q372.85938 27.39375 372.71875 28.55L376.95312 28.55L376.95312 28.440624Q376.89062 27.33125 376.35938 26.7375Q375.82812 26.128124 374.92188 26.128124ZM379.25 29.253124Q379.25 27.3 380.17188 26.128124Q381.09375 24.940624 382.57812 24.940624Q384.0625 24.940624 384.9375 25.95625L384.9375 21.55L386.375 21.55L386.375 33.55L385.04688 33.55L384.98438 32.64375Q384.10938 33.70625 382.5625 33.70625Q381.09375 33.70625 380.17188 32.503124Q379.25 31.3 379.25 29.3625L379.25 29.253124ZM380.6875 29.409374Q380.6875 30.846874 381.28125 31.659374Q381.875 32.471874 382.92188 32.471874Q384.29688 32.471874 384.9375 31.2375L384.9375 27.3625Q384.28125 26.159374 382.9375 26.159374Q381.875 26.159374 381.28125 26.9875Q380.6875 27.8 380.6875 29.409374ZM393.3125 33.55L393.3125 26.20625L391.96875 26.20625L391.96875 25.096874L393.3125 25.096874L393.3125 24.221874Q393.3125 22.8625 394.03125 22.128124Q394.76562 21.378124 396.09375 21.378124Q396.59375 21.378124 397.07812 21.51875L397.0 22.690624Q396.64062 22.6125 396.21875 22.6125Q395.51562 22.6125 395.125 23.034374Q394.75 23.440624 394.75 24.20625L394.75 25.096874L396.5625 25.096874L396.5625 26.20625L394.75 26.20625L394.75 33.55L393.3125 33.55ZM402.6875 26.39375Q402.35938 26.33125 401.96875 26.33125Q400.54688 26.33125 400.04688 27.55L400.04688 33.55L398.59375 33.55L398.59375 25.096874L400.0 25.096874L400.03125 26.065624Q400.73438 24.940624 402.04688 24.940624Q402.46875 24.940624 402.6875 25.05L402.6875 26.39375ZM403.21875 29.2375Q403.21875 28.003124 403.70312 27.01875Q404.1875 26.01875 405.0625 25.4875Q405.9375 24.940624 407.04688 24.940624Q408.78125 24.940624 409.84375 26.14375Q410.90625 27.33125 410.90625 29.315624L410.90625 29.409374Q410.90625 30.64375 410.4375 31.628124Q409.96875 32.6125 409.07812 33.159374Q408.20312 33.70625 407.0625 33.70625Q405.34375 33.70625 404.28125 32.51875Q403.21875 31.315624 403.21875 29.346874L403.21875 29.2375ZM404.67188 29.409374Q404.67188 30.815624 405.3125 31.675Q405.96875 32.51875 407.0625 32.51875Q408.17188 32.51875 408.8125 31.659374Q409.46875 30.8 409.46875 29.2375Q409.46875 27.846874 408.79688 26.9875Q408.14062 26.128124 407.04688 26.128124Q405.98438 26.128124 405.32812 26.9875Q404.67188 27.83125 404.67188 29.409374ZM413.95312 25.096874L414.0 26.034374Q414.92188 24.940624 416.5 24.940624Q418.28125 24.940624 418.92188 26.3Q419.34375 25.690624 420.01562 25.315624Q420.6875 24.940624 421.60938 24.940624Q424.39062 24.940624 424.4375 27.878124L424.4375 33.55L423.0 33.55L423.0 27.971874Q423.0 27.065624 422.57812 26.6125Q422.17188 26.159374 421.1875 26.159374Q420.39062 26.159374 419.85938 26.64375Q419.32812 27.128124 419.23438 27.940624L419.23438 33.55L417.78125 33.55L417.78125 28.003124Q417.78125 26.159374 415.98438 26.159374Q414.5625 26.159374 414.03125 27.378124L414.03125 33.55L412.59375 33.55L412.59375 25.096874L413.95312 25.096874ZM432.32812 32.315624L437.71875 32.315624L437.71875 33.55L430.82812 33.55L430.82812 22.175L432.32812 22.175L432.32812 32.315624ZM443.10938 33.70625Q441.39062 33.70625 440.3125 32.58125Q439.23438 31.440624 439.23438 29.55L439.23438 29.284374Q439.23438 28.034374 439.70312 27.05Q440.1875 26.05 441.04688 25.503124Q441.92188 24.940624 442.92188 24.940624Q444.57812 24.940624 445.48438 26.034374Q446.40625 27.1125 446.40625 29.128124L446.40625 29.7375L440.67188 29.7375Q440.70312 30.9875 441.40625 31.753124Q442.10938 32.51875 443.1875 32.51875Q443.95312 32.51875 444.48438 32.20625Q445.01562 31.89375 445.40625 31.378124L446.29688 32.065624Q445.23438 33.70625 443.10938 33.70625ZM442.92188 26.128124Q442.04688 26.128124 441.45312 26.76875Q440.85938 27.39375 440.71875 28.55L444.95312 28.55L444.95312 28.440624Q444.89062 27.33125 444.35938 26.7375Q443.82812 26.128124 442.92188 26.128124ZM450.39062 31.58125L452.48438 25.096874L453.95312 25.096874L450.92188 33.55L449.82812 33.55L446.76562 25.096874L448.23438 25.096874L450.39062 31.58125ZM459.10938 33.70625Q457.39062 33.70625 456.3125 32.58125Q455.23438 31.440624 455.23438 29.55L455.23438 29.284374Q455.23438 28.034374 455.70312 27.05Q456.1875 26.05 457.04688 25.503124Q457.92188 24.940624 458.92188 24.940624Q460.57812 24.940624 461.48438 26.034374Q462.40625 27.1125 462.40625 29.128124L462.40625 29.7375L456.67188 29.7375Q456.70312 30.9875 457.40625 31.753124Q458.10938 32.51875 459.1875 32.51875Q459.95312 32.51875 460.48438 32.20625Q461.01562 31.89375 461.40625 31.378124L462.29688 32.065624Q461.23438 33.70625 459.10938 33.70625ZM458.92188 26.128124Q458.04688 26.128124 457.45312 26.76875Q456.85938 27.39375 456.71875 28.55L460.95312 28.55L460.95312 28.440624Q460.89062 27.33125 460.35938 26.7375Q459.82812 26.128124 458.92188 26.128124ZM465.17188 33.55L463.71875 33.55L463.71875 21.55L465.17188 21.55L465.17188 33.55ZM476.20312 33.55L474.75 33.55L474.75 23.909374L471.82812 24.9875L471.82812 23.675L475.96875 22.1125L476.20312 22.1125L476.20312 33.55ZM492.07812 31.55L493.70312 25.096874L495.15625 25.096874L492.6875 33.55L491.51562 33.55L489.46875 27.14375L487.46875 33.55L486.29688 33.55L483.84375 25.096874L485.28125 25.096874L486.9375 31.425L488.90625 25.096874L490.07812 25.096874L492.07812 31.55ZM498.17188 33.55L496.71875 33.55L496.71875 25.096874L498.17188 25.096874L498.17188 33.55ZM496.60938 22.846874Q496.60938 22.503124 496.8125 22.26875Q497.03125 22.01875 497.45312 22.01875Q497.875 22.01875 498.09375 22.26875Q498.3125 22.503124 498.3125 22.8625Q498.3125 23.20625 498.09375 23.440624Q497.875 23.675 497.45312 23.675Q497.03125 23.675 496.8125 23.440624Q496.60938 23.20625 496.60938 22.846874ZM502.5625 23.05L502.5625 25.096874L504.14062 25.096874L504.14062 26.20625L502.5625 26.20625L502.5625 31.45625Q502.5625 31.95625 502.76562 32.221874Q502.98438 32.471874 503.48438 32.471874Q503.73438 32.471874 504.17188 32.378124L504.17188 33.55Q503.60938 33.70625 503.0625 33.70625Q502.09375 33.70625 501.59375 33.128124Q501.10938 32.534374 501.10938 31.45625L501.10938 26.20625L499.57812 26.20625L499.57812 25.096874L501.10938 25.096874L501.10938 23.05L502.5625 23.05ZM507.04688 26.1125Q508.0 24.940624 509.54688 24.940624Q512.21875 24.940624 512.25 27.95625L512.25 33.55L510.79688 33.55L510.79688 27.95625Q510.79688 27.034374 510.375 26.596874Q509.96875 26.159374 509.10938 26.159374Q508.40625 26.159374 507.875 26.534374Q507.34375 26.909374 507.04688 27.51875L507.04688 33.55L505.59375 33.55L505.59375 21.55L507.04688 21.55L507.04688 26.1125ZM518.8281 33.55L518.8281 22.175L522.03125 22.175Q523.5156 22.175 524.65625 22.83125Q525.7969 23.4875 526.4219 24.70625Q527.0469 25.909374 527.0469 27.471874L527.0469 28.20625Q527.0469 29.815624 526.4219 31.034374Q525.8125 32.2375 524.65625 32.89375Q523.5 33.534374 521.96875 33.55L518.8281 33.55ZM520.3281 23.409374L520.3281 32.315624L521.90625 32.315624Q523.6406 32.315624 524.59375 31.2375Q525.5625 30.159374 525.5625 28.175L525.5625 27.503124Q525.5625 25.565624 524.65625 24.503124Q523.75 23.425 522.0781 23.409374L520.3281 23.409374ZM536.90625 33.55L529.4531 33.55L529.4531 32.503124L533.3906 28.128124Q534.2656 27.14375 534.59375 26.51875Q534.9219 25.89375 534.9219 25.2375Q534.9219 24.346874 534.375 23.784374Q533.84375 23.20625 532.9531 23.20625Q531.875 23.20625 531.2656 23.815624Q530.6719 24.425 530.6719 25.51875L529.2344 25.51875Q529.2344 23.95625 530.2344 22.9875Q531.25 22.01875 532.9531 22.01875Q534.53125 22.01875 535.4531 22.846874Q536.375 23.675 536.375 25.065624Q536.375 26.7375 534.2344 29.065624L531.1875 32.3625L536.90625 32.3625L536.90625 33.55Z" fill-rule="nonzero"/></svg>