<svg version="1.1" viewBox="0.0 0.0 600.0 371.0" fill="none" stroke="none" stroke-linecap="square" stroke-miterlimit="10" width="600" height="371" xmlns:xlink="http://www.w3.org/1999/xlink" xmlns="http://www.w3.org/2000/svg"><path fill="#ffffff" d="M0 0L600.0 0L600.0 371.0L0 371.0L0 0Z" fill-rule="nonzero"/><path stroke="#333333" stroke-width="1.0" stroke-linecap="butt" d="M99.5 112.5L99.5 331.5" fill-rule="nonzero"/><path fill="#eeeeee" d="M93.5 106.5L98.5 112.5L98.5 331.5L93.5 325.5Z" fill-rule="nonzero"/><path stroke="#cccccc" stroke-width="1.0" stroke-linecap="butt" d="M220.5 112.5L220.5 331.5" fill-rule="nonzero"/><path stroke="#cccccc" stroke-width="1.0" stroke-linecap="butt" d="M340.5 112.5L340.5 331.5" fill-rule="nonzero"/><path stroke="#cccccc" stroke-width="1.0" stroke-linecap="butt" d="M460.5 112.5L460.5 331.5" fill-rule="nonzero"/><path stroke="#cccccc" stroke-width="1.0" stroke-linecap="butt" d="M581.5 112.5L581.5 331.5" fill-rule="nonzero"/><clipPath id="id_0"><path d="M93.55 106.28333L581.45 106.28333L581.45 331.45L93.55 331.45L93.55 106.28333Z" clip-rule="nonzero"/></clipPath><path fill="#2b569f" clip-path="url(#id_0)" d="M569.0 146.0L100.0 146.0L96.0 142.0L565.0 142.0Z" fill-rule="nonzero"/><path fill="#689df6" clip-path="url(#id_0)" d="M565.0 142.0L565.0 128.0L569.0 132.0L569.0 146.0Z" fill-rule="nonzero"/><path stroke="#000000" stroke-width="0.0" stroke-linecap="butt" stroke-opacity="0.0" clip-path="url(#id_0)" d="M96.0 142.0L96.0 128.0L565.0 128.0L565.0 142.0Z" fill-rule="nonzero"/><path fill="#4285f4" clip-path="url(#id_0)" d="M96.0 142.0L96.0 128.0L565.0 128.0L565.0 142.0Z" fill-rule="nonzero"/><path fill="#2b569f" clip-path="url(#id_0)" d="M566.0 213.0L100.0 213.0L96.0 209.0L562.0 209.0Z" fill-rule="nonzero"/><path fill="#689df6" clip-path="url(#id_0)" d="M562.0 209.0L562.0 195.0L566.0 199.0L566.0 213.0Z" fill-rule="nonzero"/><path stroke="#000000" stroke-width="0.0" stroke-linecap="butt" stroke-opacity="0.0" clip-path="url(#id_0)" d="M96.0 209.0L96.0 195.0L562.0 195.0L562.0 209.0Z" fill-rule="nonzero"/><path fill="#4285f4" clip-path="url(#id_0)" d="M96.0 209.0L96.0 195.0L562.0 195.0L562.0 209.0Z" fill-rule="nonzero"/><path fill="#2b569f" clip-path="url(#id_0)" d="M571.0 280.0L100.0 280.0L96.0 276.0L567.0 276.0Z" fill-rule="nonzero"/><path fill="#689df6" clip-path="url(#id_0)" d="M567.0 276.0L567.0 262.0L571.0 266.0L571.0 280.0Z" fill-rule="nonzero"/><path stroke="#000000" stroke-width="0.0" stroke-linecap="butt" stroke-opacity="0.0" clip-path="url(#id_0)" d="M96.0 276.0L96.0 262.0L567.0 262.0L567.0 276.0Z" fill-rule="nonzero"/><path fill="#4285f4" clip-path="url(#id_0)" d="M96.0 276.0L96.0 262.0L567.0 262.0L567.0 276.0Z" fill-rule="nonzero"/><path fill="#8e2c24" clip-path="url(#id_0)" d="M112.0 161.0L100.0 161.0L96.0 157.0L108.0 157.0Z" fill-rule="nonzero"/><path fill="#e2695f" clip-path="url(#id_0)" d="M108.0 157.0L108.0 143.0L112.0 147.0L112.0 161.0Z" fill-rule="nonzero"/><path stroke="#000000" stroke-width="0.0" stroke-linecap="butt" stroke-opacity="0.0" clip-path="url(#id_0)" d="M96.0 157.0L96.0 143.0L108.0 143.0L108.0 157.0Z" fill-rule="nonzero"/><path fill="#db4437" clip-path="url(#id_0)" d="M96.0 157.0L96.0 143.0L108.0 143.0L108.0 157.0Z" fill-rule="nonzero"/><path fill="#8e2c24" clip-path="url(#id_0)" d="M115.0 228.0L100.0 228.0L96.0 224.0L111.0 224.0Z" fill-rule="nonzero"/><path fill="#e2695f" clip-path="url(#id_0)" d="M111.0 224.0L111.0 210.0L115.0 214.0L115.0 228.0Z" fill-rule="nonzero"/><path stroke="#000000" stroke-width="0.0" stroke-linecap="butt" stroke-opacity="0.0" clip-path="url(#id_0)" d="M96.0 224.0L96.0 210.0L111.0 210.0L111.0 224.0Z" fill-rule="nonzero"/><path fill="#db4437" clip-path="url(#id_0)" d="M96.0 224.0L96.0 210.0L111.0 210.0L111.0 224.0Z" fill-rule="nonzero"/><path fill="#8e2c24" clip-path="url(#id_0)" d="M110.0 295.0L100.0 295.0L96.0 291.0L106.0 291.0Z" fill-rule="nonzero"/><path fill="#e2695f" clip-path="url(#id_0)" d="M106.0 291.0L106.0 277.0L110.0 281.0L110.0 295.0Z" fill-rule="nonzero"/><path stroke="#000000" stroke-width="0.0" stroke-linecap="butt" stroke-opacity="0.0" clip-path="url(#id_0)" d="M96.0 291.0L96.0 277.0L106.0 277.0L106.0 291.0Z" fill-rule="nonzero"/><path fill="#db4437" clip-path="url(#id_0)" d="M96.0 291.0L96.0 277.0L106.0 277.0L106.0 291.0Z" fill-rule="nonzero"/><path fill="#9f7500" clip-path="url(#id_0)" d="M124.0 176.0L100.0 176.0L96.0 172.0L120.0 172.0Z" fill-rule="nonzero"/><path fill="#f6c333" clip-path="url(#id_0)" d="M120.0 172.0L120.0 158.0L124.0 162.0L124.0 176.0Z" fill-rule="nonzero"/><path stroke="#000000" stroke-width="0.0" stroke-linecap="butt" stroke-opacity="0.0" clip-path="url(#id_0)" d="M96.0 172.0L96.0 158.0L120.0 158.0L120.0 172.0Z" fill-rule="nonzero"/><path fill="#f4b400" clip-path="url(#id_0)" d="M96.0 172.0L96.0 158.0L120.0 158.0L120.0 172.0Z" fill-rule="nonzero"/><path fill="#9f7500" clip-path="url(#id_0)" d="M131.0 243.0L100.0 243.0L96.0 239.0L127.0 239.0Z" fill-rule="nonzero"/><path fill="#f6c333" clip-path="url(#id_0)" d="M127.0 239.0L127.0 225.0L131.0 229.0L131.0 243.0Z" fill-rule="nonzero"/><path stroke="#000000" stroke-width="0.0" stroke-linecap="butt" stroke-opacity="0.0" clip-path="url(#id_0)" d="M96.0 239.0L96.0 225.0L127.0 225.0L127.0 239.0Z" fill-rule="nonzero"/><path fill="#f4b400" clip-path="url(#id_0)" d="M96.0 239.0L96.0 225.0L127.0 225.0L127.0 239.0Z" fill-rule="nonzero"/><path fill="#9f7500" clip-path="url(#id_0)" d="M110.0 310.0L100.0 310.0L96.0 306.0L106.0 306.0Z" fill-rule="nonzero"/><path fill="#f6c333" clip-path="url(#id_0)" d="M106.0 306.0L106.0 292.0L110.0 296.0L110.0 310.0Z" fill-rule="nonzero"/><path stroke="#000000" stroke-width="0.0" stroke-linecap="butt" stroke-opacity="0.0" clip-path="url(#id_0)" d="M96.0 306.0L96.0 292.0L106.0 292.0L106.0 306.0Z" fill-rule="nonzero"/><path fill="#f4b400" clip-path="url(#id_0)" d="M96.0 306.0L96.0 292.0L106.0 292.0L106.0 306.0Z" fill-rule="nonzero"/><path fill="#000000" d="M27.846888 252.60104Q29.190638 252.7573 29.940638 253.60104Q30.675013 254.4448 30.675013 255.83542Q30.675013 257.35104 29.596888 258.2573Q28.503138 259.16354 26.675013 259.16354L25.862513 259.16354Q24.675013 259.16354 23.768763 258.74167Q22.862513 258.3198 22.378138 257.53854Q21.893763 256.7573 21.893763 255.74167Q21.893763 254.3823 22.659388 253.5698Q23.425013 252.74167 24.753138 252.60104L24.753138 253.72604Q23.737513 253.8823 23.284388 254.36667Q22.831263 254.85104 22.831263 255.74167Q22.831263 256.8198 23.628138 257.42917Q24.425013 258.03854 25.893763 258.03854L26.721888 258.03854Q28.112513 258.03854 28.940638 257.46042Q29.753138 256.8823 29.753138 255.83542Q29.753138 254.89792 29.331263 254.39792Q28.893763 253.89792 27.846888 253.72604L27.846888 252.60104ZM30.550013 247.1323Q30.362513 247.22604 29.878138 247.28854Q30.675013 248.03854 30.675013 249.08542Q30.675013 250.02292 30.143763 250.6323Q29.612513 251.22604 28.784388 251.22604Q27.800013 251.22604 27.253138 250.47604Q26.706263 249.72604 26.706263 248.35104L26.706263 247.30417L26.206263 247.30417Q25.643763 247.30417 25.315638 247.64792Q24.971888 247.97604 24.971888 248.64792Q24.971888 249.22604 25.268763 249.61667Q25.550013 250.0073 25.971888 250.0073L25.971888 251.10104Q25.487513 251.10104 25.050013 250.77292Q24.612513 250.42917 24.362513 249.85104Q24.096888 249.27292 24.096888 248.58542Q24.096888 247.47604 24.643763 246.86667Q25.190638 246.24167 26.143763 246.21042L29.065638 246.21042Q29.940638 246.21042 30.456263 245.99167L30.550013 245.99167L30.550013 247.1323ZM29.721888 248.92917Q29.721888 248.41354 29.456263 247.96042Q29.190638 247.5073 28.768763 247.30417L27.471888 247.30417L27.471888 248.14792Q27.471888 250.14792 28.643763 250.14792Q29.143763 250.14792 29.440638 249.80417Q29.721888 249.46042 29.721888 248.92917ZM28.862513 240.35104Q28.425013 240.35104 28.190638 240.6948Q27.940638 241.02292 27.768763 241.85104Q27.596888 242.66354 27.346888 243.14792Q27.096888 243.6323 26.768763 243.86667Q26.425013 244.08542 25.956263 244.08542Q25.175013 244.08542 24.643763 243.42917Q24.096888 242.77292 24.096888 241.74167Q24.096888 240.66354 24.659388 240.0073Q25.206263 239.33542 26.065638 239.33542L26.065638 240.41354Q25.628138 240.41354 25.315638 240.80417Q24.987513 241.17917 24.987513 241.74167Q24.987513 242.33542 25.253138 242.67917Q25.503138 243.0073 25.909388 243.0073Q26.300013 243.0073 26.503138 242.6948Q26.706263 242.3823 26.893763 241.5698Q27.065638 240.7573 27.315638 240.2573Q27.565638 239.7573 27.925013 239.52292Q28.284388 239.27292 28.784388 239.27292Q29.643763 239.27292 30.159388 239.96042Q30.675013 240.6323 30.675013 241.71042Q30.675013 242.47604 30.409388 243.0698Q30.128138 243.64792 29.643763 243.97604Q29.159388 244.30417 28.596888 244.30417L28.596888 243.22604Q29.143763 243.1948 29.471888 242.78854Q29.784388 242.3823 29.784388 241.71042Q29.784388 241.10104 29.534388 240.72604Q29.284388 240.35104 28.862513 240.35104ZM30.675013 235.41354Q30.675013 236.71042 29.831263 237.52292Q28.971888 238.3198 27.550013 238.3198L27.362513 238.3198Q26.409388 238.3198 25.675013 237.96042Q24.925013 237.60104 24.518763 236.96042Q24.096888 236.30417 24.096888 235.55417Q24.096888 234.3198 24.909388 233.6323Q25.721888 232.9448 27.237513 232.9448L27.690638 232.9448L27.690638 237.24167Q28.628138 237.21042 29.206263 236.6948Q29.784388 236.16354 29.784388 235.35104Q29.784388 234.78854 29.550013 234.39792Q29.315638 233.99167 28.925013 233.67917L29.440638 233.02292Q30.675013 233.8198 30.675013 235.41354ZM24.987513 235.55417Q24.987513 236.21042 25.471888 236.66354Q25.940638 237.10104 26.800013 237.1948L26.800013 234.02292L26.721888 234.02292Q25.893763 234.0698 25.440638 234.47604Q24.987513 234.86667 24.987513 235.55417ZM26.753138 226.36667Q26.331263 227.80417 25.721888 228.47604Q25.112513 229.1323 24.221888 229.1323Q23.221888 229.1323 22.565638 228.33542Q21.893763 227.52292 21.893763 226.22604Q21.893763 225.35104 22.237513 224.66354Q22.581263 223.97604 23.175013 223.60104Q23.768763 223.21042 24.487513 223.21042L24.487513 224.35104Q23.706263 224.35104 23.268763 224.85104Q22.831263 225.33542 22.831263 226.22604Q22.831263 227.05417 23.206263 227.52292Q23.565638 227.99167 24.206263 227.99167Q24.737513 227.99167 25.096888 227.55417Q25.456263 227.10104 25.753138 226.03854Q26.050013 224.97604 26.409388 224.3823Q26.768763 223.77292 27.253138 223.49167Q27.737513 223.1948 28.378138 223.1948Q29.425013 223.1948 30.050013 224.0073Q30.675013 224.8198 30.675013 226.16354Q30.675013 227.05417 30.331263 227.8198Q29.987513 228.5698 29.409388 228.99167Q28.815638 229.39792 28.081263 229.39792L28.081263 228.27292Q28.846888 228.27292 29.300013 227.6948Q29.753138 227.11667 29.753138 226.16354Q29.753138 225.27292 29.393763 224.80417Q29.018763 224.33542 28.393763 224.33542Q27.768763 224.33542 27.425013 224.77292Q27.081263 225.21042 26.753138 226.36667ZM22.675013 220.5698L24.206263 220.5698L24.206263 219.39792L25.050013 219.39792L25.050013 220.5698L28.971888 220.5698Q29.362513 220.5698 29.550013 220.41354Q29.737513 220.2573 29.737513 219.8823Q29.737513 219.6948 29.675013 219.36667L30.550013 219.36667Q30.675013 219.78854 30.675013 220.1948Q30.675013 220.91354 30.237513 221.28854Q29.784388 221.66354 28.971888 221.66354L25.050013 221.66354L25.050013 222.8198L24.206263 222.8198L24.206263 221.66354L22.675013 221.66354L22.675013 220.5698ZM29.925013 214.1323Q30.675013 214.7573 30.675013 215.99167Q30.675013 217.0073 30.081263 217.53854Q29.487513 218.0698 28.331263 218.0698L24.206263 218.0698L24.206263 216.99167L28.300013 216.99167Q29.753138 216.99167 29.753138 215.8198Q29.753138 214.5698 28.815638 214.16354L24.206263 214.16354L24.206263 213.0698L30.550013 213.0698L30.550013 214.10104L29.925013 214.1323ZM27.331263 211.30417Q25.862513 211.30417 24.987513 210.61667Q24.096888 209.92917 24.096888 208.80417Q24.096888 207.6948 24.846888 207.03854L21.550013 207.03854L21.550013 205.96042L30.550013 205.96042L30.550013 206.96042L29.862513 207.0073Q30.675013 207.66354 30.675013 208.8198Q30.675013 209.91354 29.768763 210.61667Q28.862513 211.30417 27.409388 211.30417L27.331263 211.30417ZM27.456263 210.22604Q28.534388 210.22604 29.143763 209.78854Q29.753138 209.33542 29.753138 208.55417Q29.753138 207.52292 28.815638 207.03854L25.909388 207.03854Q25.018763 207.52292 25.018763 208.53854Q25.018763 209.33542 25.628138 209.78854Q26.237513 210.22604 27.456263 210.22604ZM28.956263 201.97604L24.206263 200.49167L24.206263 199.33542L31.534388 201.8823Q33.11251 202.47604 33.11251 203.7573L33.096886 203.97604L33.01876 204.36667L32.14376 204.36667L32.159386 204.08542Q32.159386 203.52292 31.940638 203.22604Q31.721888 202.91354 31.128138 202.71042L30.471888 202.47604L24.206263 204.74167L24.206263 203.55417L28.956263 201.97604Z" fill-rule="nonzero"/><path fill="#000000" d="M55.815624 154.15274L54.7375 154.15274L54.7375 146.93399L52.55 147.73087L52.55 146.74649L55.659374 145.57462L55.815624 145.57462L55.815624 154.15274ZM59.39375 153.59024Q59.39375 153.30899 59.55 153.12149Q59.721874 152.93399 60.05 152.93399Q60.39375 152.93399 60.565624 153.12149Q60.7375 153.30899 60.7375 153.59024Q60.7375 153.85587 60.565624 154.04337Q60.39375 154.21524 60.05 154.21524Q59.721874 154.21524 59.55 154.04337Q59.39375 153.85587 59.39375 153.59024ZM65.33125 150.68399Q65.33125 149.37149 65.675 148.15274Q66.03438 146.93399 66.7375 145.93399Q67.44063 144.93399 68.20625 144.52774L68.425 145.24649Q67.56563 145.90274 67.01875 147.24649Q66.47188 148.59024 66.425 150.26212L66.40938 150.76212Q66.40938 153.02774 67.2375 154.68399Q67.7375 155.68399 68.425 156.24649L68.20625 156.90274Q67.425 156.48087 66.70625 155.44962Q65.33125 153.46524 65.33125 150.68399ZM69.53438 154.15274L69.53438 145.62149L71.95625 145.62149Q73.06563 145.62149 73.90938 146.12149Q74.76875 146.60587 75.2375 147.51212Q75.70625 148.41837 75.70625 149.60587L75.70625 150.13712Q75.70625 151.35587 75.2375 152.26212Q74.78438 153.16837 73.90938 153.65274Q73.05 154.13712 71.90938 154.15274L69.53438 154.15274ZM70.65938 146.54337L70.65938 153.23087L71.84688 153.23087Q73.14375 153.23087 73.8625 152.43399Q74.59688 151.62149 74.59688 150.12149L74.59688 149.62149Q74.59688 148.16837 73.90938 147.37149Q73.2375 146.55899 71.97188 146.54337L70.65938 146.54337ZM80.81563 154.15274L79.7375 154.15274L79.7375 146.93399L77.55 147.73087L77.55 146.74649L80.65938 145.57462L80.81563 145.57462L80.81563 154.15274ZM86.87813 150.74649Q86.87813 152.05899 86.53438 153.26212Q86.19063 154.44962 85.47188 155.46524Q84.76875 156.48087 84.00313 156.90274L83.76875 156.24649Q84.675 155.55899 85.22188 154.10587Q85.76875 152.63712 85.78438 150.87149L85.78438 150.68399Q85.78438 149.44962 85.51875 148.38712Q85.26875 147.32462 84.8 146.49649Q84.34688 145.65274 83.76875 145.18399L84.00313 144.52774Q84.76875 144.94962 85.47188 145.94962Q86.175 146.94962 86.51875 148.16837Q86.87813 149.37149 86.87813 150.74649Z" fill-rule="nonzero"/><path fill="#000000" d="M57.846874 221.36667L52.253124 221.36667L52.253124 220.58542L55.20625 217.30417Q55.8625 216.55417 56.1125 216.10104Q56.3625 215.6323 56.3625 215.1323Q56.3625 214.46042 55.95625 214.03854Q55.565624 213.60104 54.878124 213.60104Q54.08125 213.60104 53.628124 214.0698Q53.175 214.52292 53.175 215.35104L52.096874 215.35104Q52.096874 214.16354 52.846874 213.4448Q53.6125 212.71042 54.878124 212.71042Q56.08125 212.71042 56.76875 213.33542Q57.45625 213.96042 57.45625 215.0073Q57.45625 216.2573 55.846874 218.0073L53.565624 220.47604L57.846874 220.47604L57.846874 221.36667ZM59.39375 220.80417Q59.39375 220.52292 59.55 220.33542Q59.721874 220.14792 60.05 220.14792Q60.39375 220.14792 60.565624 220.33542Q60.7375 220.52292 60.7375 220.80417Q60.7375 221.0698 60.565624 221.2573Q60.39375 221.42917 60.05 221.42917Q59.721874 221.42917 59.55 221.2573Q59.39375 221.0698 59.39375 220.80417ZM65.33125 217.89792Q65.33125 216.58542 65.675 215.36667Q66.03438 214.14792 66.7375 213.14792Q67.44063 212.14792 68.20625 211.74167L68.425 212.46042Q67.56563 213.11667 67.01875 214.46042Q66.47188 215.80417 66.425 217.47604L66.40938 217.97604Q66.40938 220.24167 67.2375 221.89792Q67.7375 222.89792 68.425 223.46042L68.20625 224.11667Q67.425 223.6948 66.70625 222.66354Q65.33125 220.67917 65.33125 217.89792ZM69.53438 221.36667L69.53438 212.83542L71.95625 212.83542Q73.06563 212.83542 73.90938 213.33542Q74.76875 213.8198 75.2375 214.72604Q75.70625 215.6323 75.70625 216.8198L75.70625 217.35104Q75.70625 218.5698 75.2375 219.47604Q74.78438 220.3823 73.90938 220.86667Q73.05 221.35104 71.90938 221.36667L69.53438 221.36667ZM70.65938 213.7573L70.65938 220.4448L71.84688 220.4448Q73.14375 220.4448 73.8625 219.64792Q74.59688 218.83542 74.59688 217.33542L74.59688 216.83542Q74.59688 215.3823 73.90938 214.58542Q73.2375 213.77292 71.97188 213.7573L70.65938 213.7573ZM82.84688 221.36667L77.25313 221.36667L77.25313 220.58542L80.20625 217.30417Q80.8625 216.55417 81.1125 216.10104Q81.3625 215.6323 81.3625 215.1323Q81.3625 214.46042 80.95625 214.03854Q80.56563 213.60104 79.87813 213.60104Q79.08125 213.60104 78.62813 214.0698Q78.175 214.52292 78.175 215.35104L77.09688 215.35104Q77.09688 214.16354 77.84688 213.4448Q78.6125 212.71042 79.87813 212.71042Q81.08125 212.71042 81.76875 213.33542Q82.45625 213.96042 82.45625 215.0073Q82.45625 216.2573 80.84688 218.0073L78.56563 220.47604L82.84688 220.47604L82.84688 221.36667ZM86.87813 217.96042Q86.87813 219.27292 86.53438 220.47604Q86.19063 221.66354 85.47188 222.67917Q84.76875 223.6948 84.00313 224.11667L83.76875 223.46042Q84.675 222.77292 85.22188 221.3198Q85.76875 219.85104 85.78438 218.08542L85.78438 217.89792Q85.78438 216.66354 85.51875 215.60104Q85.26875 214.53854 84.8 213.71042Q84.34688 212.86667 83.76875 212.39792L84.00313 211.74167Q84.76875 212.16354 85.47188 213.16354Q86.175 214.16354 86.51875 215.3823Q86.87813 216.58542 86.87813 217.96042Z" fill-rule="nonzero"/><path fill="#000000" d="M53.83125 283.78372L54.64375 283.78372Q55.425 283.7681 55.8625 283.37747Q56.3 282.98685 56.3 282.31497Q56.3 280.81497 54.8 280.81497Q54.096874 280.81497 53.675 281.22122Q53.26875 281.62747 53.26875 282.28372L52.175 282.28372Q52.175 281.2681 52.909374 280.59622Q53.659374 279.92435 54.8 279.92435Q56.003124 279.92435 56.690624 280.56497Q57.378124 281.2056 57.378124 282.34622Q57.378124 282.90872 57.01875 283.42435Q56.659374 283.93997 56.034374 284.2056Q56.7375 284.42435 57.1125 284.93997Q57.503124 285.4556 57.503124 286.2056Q57.503124 287.34622 56.753124 288.03372Q56.003124 288.7056 54.8 288.7056Q53.6125 288.7056 52.846874 288.04935Q52.096874 287.3931 52.096874 286.3306L53.190624 286.3306Q53.190624 287.00247 53.628124 287.40872Q54.065624 287.81497 54.815624 287.81497Q55.596874 287.81497 56.003124 287.40872Q56.425 286.98685 56.425 286.22122Q56.425 285.48685 55.971874 285.09622Q55.51875 284.68997 54.64375 284.67435L53.83125 284.67435L53.83125 283.78372ZM59.39375 288.0181Q59.39375 287.73685 59.55 287.54935Q59.721874 287.36185 60.05 287.36185Q60.39375 287.36185 60.565624 287.54935Q60.7375 287.73685 60.7375 288.0181Q60.7375 288.28372 60.565624 288.47122Q60.39375 288.6431 60.05 288.6431Q59.721874 288.6431 59.55 288.47122Q59.39375 288.28372 59.39375 288.0181ZM65.33125 285.11185Q65.33125 283.79935 65.675 282.5806Q66.03438 281.36185 66.7375 280.36185Q67.44063 279.36185 68.20625 278.9556L68.425 279.67435Q67.56563 280.3306 67.01875 281.67435Q66.47188 283.0181 66.425 284.68997L66.40938 285.18997Q66.40938 287.4556 67.2375 289.11185Q67.7375 290.11185 68.425 290.67435L68.20625 291.3306Q67.425 290.90872 66.70625 289.87747Q65.33125 287.8931 65.33125 285.11185ZM69.53438 288.5806L69.53438 280.04935L71.95625 280.04935Q73.06563 280.04935 73.90938 280.54935Q74.76875 281.03372 75.2375 281.93997Q75.70625 282.84622 75.70625 284.03372L75.70625 284.56497Q75.70625 285.78372 75.2375 286.68997Q74.78438 287.59622 73.90938 288.0806Q73.05 288.56497 71.90938 288.5806L69.53438 288.5806ZM70.65938 280.97122L70.65938 287.65872L71.84688 287.65872Q73.14375 287.65872 73.8625 286.86185Q74.59688 286.04935 74.59688 284.54935L74.59688 284.04935Q74.59688 282.59622 73.90938 281.79935Q73.2375 280.98685 71.97188 280.97122L70.65938 280.97122ZM78.83125 283.78372L79.64375 283.78372Q80.425 283.7681 80.8625 283.37747Q81.3 282.98685 81.3 282.31497Q81.3 280.81497 79.8 280.81497Q79.09688 280.81497 78.675 281.22122Q78.26875 281.62747 78.26875 282.28372L77.175 282.28372Q77.175 281.2681 77.90938 280.59622Q78.65938 279.92435 79.8 279.92435Q81.00313 279.92435 81.69063 280.56497Q82.37813 281.2056 82.37813 282.34622Q82.37813 282.90872 82.01875 283.42435Q81.65938 283.93997 81.03438 284.2056Q81.7375 284.42435 82.1125 284.93997Q82.50313 285.4556 82.50313 286.2056Q82.50313 287.34622 81.75313 288.03372Q81.00313 288.7056 79.8 288.7056Q78.6125 288.7056 77.84688 288.04935Q77.09688 287.3931 77.09688 286.3306L78.19063 286.3306Q78.19063 287.00247 78.62813 287.40872Q79.06563 287.81497 79.81563 287.81497Q80.59688 287.81497 81.00313 287.40872Q81.425 286.98685 81.425 286.22122Q81.425 285.48685 80.97188 285.09622Q80.51875 284.68997 79.64375 284.67435L78.83125 284.67435L78.83125 283.78372ZM86.87813 285.17435Q86.87813 286.48685 86.53438 287.68997Q86.19063 288.87747 85.47188 289.8931Q84.76875 290.90872 84.00313 291.3306L83.76875 290.67435Q84.675 289.98685 85.22188 288.53372Q85.76875 287.06497 85.78438 285.29935L85.78438 285.11185Q85.78438 283.87747 85.51875 282.81497Q85.26875 281.75247 84.8 280.92435Q84.34688 280.0806 83.76875 279.61185L84.00313 278.9556Q84.76875 279.37747 85.47188 280.37747Q86.175 281.37747 86.51875 282.59622Q86.87813 283.79935 86.87813 285.17435Z" fill-rule="nonzero"/><path fill="#000000" d="M102.1125 345.8094Q102.1125 347.71564 101.45625 348.65314Q100.81563 349.575 99.425 349.575Q98.06563 349.575 97.40938 348.66876Q96.75313 347.7625 96.72188 345.95L96.72188 344.5125Q96.72188 342.6219 97.3625 341.71564Q98.01875 340.79376 99.40938 340.79376Q100.78438 340.79376 101.44063 341.6844Q102.09688 342.5594 102.1125 344.40314L102.1125 345.8094ZM101.01875 344.325Q101.01875 342.95 100.62813 342.325Q100.25313 341.6844 99.40938 341.6844Q98.58125 341.6844 98.19063 342.325Q97.81563 342.95 97.81563 344.2469L97.81563 345.98126Q97.81563 347.35626 98.20625 348.02814Q98.6125 348.6844 99.425 348.6844Q100.22188 348.6844 100.6125 348.0594Q101.00313 347.4344 101.01875 346.10626L101.01875 344.325Z" fill-rule="nonzero"/><path fill="#000000" d="M214.0875 345.8094Q214.0875 347.71564 213.43124 348.65314Q212.79062 349.575 211.4 349.575Q210.04062 349.575 209.38437 348.66876Q208.72812 347.7625 208.69687 345.95L208.69687 344.5125Q208.69687 342.6219 209.3375 341.71564Q209.99374 340.79376 211.38437 340.79376Q212.75937 340.79376 213.41562 341.6844Q214.07187 342.5594 214.0875 344.40314L214.0875 345.8094ZM212.99374 344.325Q212.99374 342.95 212.60312 342.325Q212.22812 341.6844 211.38437 341.6844Q210.55624 341.6844 210.16562 342.325Q209.79062 342.95 209.79062 344.2469L209.79062 345.98126Q209.79062 347.35626 210.18124 348.02814Q210.5875 348.6844 211.4 348.6844Q212.19687 348.6844 212.5875 348.0594Q212.97812 347.4344 212.99374 346.10626L212.99374 344.325ZM215.86874 348.8875Q215.86874 348.60626 216.025 348.41876Q216.19687 348.23126 216.525 348.23126Q216.86874 348.23126 217.04062 348.41876Q217.2125 348.60626 217.2125 348.8875Q217.2125 349.15314 217.04062 349.34064Q216.86874 349.5125 216.525 349.5125Q216.19687 349.5125 216.025 349.34064Q215.86874 349.15314 215.86874 348.8875ZM224.32187 349.45L218.72812 349.45L218.72812 348.66876L221.68124 345.3875Q222.3375 344.6375 222.5875 344.1844Q222.8375 343.71564 222.8375 343.21564Q222.8375 342.54376 222.43124 342.1219Q222.04062 341.6844 221.35312 341.6844Q220.55624 341.6844 220.10312 342.15314Q219.65 342.60626 219.65 343.4344L218.57187 343.4344Q218.57187 342.2469 219.32187 341.52814Q220.0875 340.79376 221.35312 340.79376Q222.55624 340.79376 223.24374 341.41876Q223.93124 342.04376 223.93124 343.09064Q223.93124 344.34064 222.32187 346.09064L220.04062 348.5594L224.32187 348.5594L224.32187 349.45ZM226.22812 345.16876L226.66562 340.91876L231.04062 340.91876L231.04062 341.91876L227.5875 341.91876L227.32187 344.2469Q227.9625 343.8719 228.75937 343.8719Q229.91562 343.8719 230.60312 344.65314Q231.29062 345.41876 231.29062 346.73126Q231.29062 348.04376 230.57187 348.8094Q229.86874 349.575 228.5875 349.575Q227.4625 349.575 226.74374 348.95Q226.025 348.3094 225.93124 347.2L226.94687 347.2Q227.05624 347.9344 227.47812 348.3094Q227.9 348.6844 228.5875 348.6844Q229.3375 348.6844 229.775 348.16876Q230.2125 347.65314 230.2125 346.7469Q230.2125 345.8875 229.74374 345.3719Q229.275 344.85626 228.49374 344.85626Q227.79062 344.85626 227.38437 345.15314L227.10312 345.3875L226.22812 345.16876Z" fill-rule="nonzero"/><path fill="#000000" d="M338.0625 345.8094Q338.0625 347.71564 337.40625 348.65314Q336.76562 349.575 335.375 349.575Q334.01562 349.575 333.35938 348.66876Q332.70312 347.7625 332.67188 345.95L332.67188 344.5125Q332.67188 342.6219 333.3125 341.71564Q333.96875 340.79376 335.35938 340.79376Q336.73438 340.79376 337.39062 341.6844Q338.04688 342.5594 338.0625 344.40314L338.0625 345.8094ZM336.96875 344.325Q336.96875 342.95 336.57812 342.325Q336.20312 341.6844 335.35938 341.6844Q334.53125 341.6844 334.14062 342.325Q333.76562 342.95 333.76562 344.2469L333.76562 345.98126Q333.76562 347.35626 334.15625 348.02814Q334.5625 348.6844 335.375 348.6844Q336.17188 348.6844 336.5625 348.0594Q336.95312 347.4344 336.96875 346.10626L336.96875 344.325ZM339.84375 348.8875Q339.84375 348.60626 340.0 348.41876Q340.17188 348.23126 340.5 348.23126Q340.84375 348.23126 341.01562 348.41876Q341.1875 348.60626 341.1875 348.8875Q341.1875 349.15314 341.01562 349.34064Q340.84375 349.5125 340.5 349.5125Q340.17188 349.5125 340.0 349.34064Q339.84375 349.15314 339.84375 348.8875ZM343.20312 345.16876L343.64062 340.91876L348.01562 340.91876L348.01562 341.91876L344.5625 341.91876L344.29688 344.2469Q344.9375 343.8719 345.73438 343.8719Q346.89062 343.8719 347.57812 344.65314Q348.26562 345.41876 348.26562 346.73126Q348.26562 348.04376 347.54688 348.8094Q346.84375 349.575 345.5625 349.575Q344.4375 349.575 343.71875 348.95Q343.0 348.3094 342.90625 347.2L343.92188 347.2Q344.03125 347.9344 344.45312 348.3094Q344.875 348.6844 345.5625 348.6844Q346.3125 348.6844 346.75 348.16876Q347.1875 347.65314 347.1875 346.7469Q347.1875 345.8875 346.71875 345.3719Q346.25 344.85626 345.46875 344.85626Q344.76562 344.85626 344.35938 345.15314L344.07812 345.3875L343.20312 345.16876Z" fill-rule="nonzero"/><path fill="#000000" d="M455.0375 345.8094Q455.0375 347.71564 454.38126 348.65314Q453.74063 349.575 452.35 349.575Q450.99063 349.575 450.33438 348.66876Q449.67813 347.7625 449.64688 345.95L449.64688 344.5125Q449.64688 342.6219 450.2875 341.71564Q450.94376 340.79376 452.33438 340.79376Q453.70938 340.79376 454.36563 341.6844Q455.02188 342.5594 455.0375 344.40314L455.0375 345.8094ZM453.94376 344.325Q453.94376 342.95 453.55313 342.325Q453.17813 341.6844 452.33438 341.6844Q451.50626 341.6844 451.11563 342.325Q450.74063 342.95 450.74063 344.2469L450.74063 345.98126Q450.74063 347.35626 451.13126 348.02814Q451.5375 348.6844 452.35 348.6844Q453.14688 348.6844 453.5375 348.0594Q453.92813 347.4344 453.94376 346.10626L453.94376 344.325ZM456.81876 348.8875Q456.81876 348.60626 456.975 348.41876Q457.14688 348.23126 457.475 348.23126Q457.81876 348.23126 457.99063 348.41876Q458.1625 348.60626 458.1625 348.8875Q458.1625 349.15314 457.99063 349.34064Q457.81876 349.5125 457.475 349.5125Q457.14688 349.5125 456.975 349.34064Q456.81876 349.15314 456.81876 348.8875ZM465.19376 341.52814L461.6625 349.45L460.52188 349.45L464.0375 341.8094L459.42813 341.8094L459.42813 340.91876L465.19376 340.91876L465.19376 341.52814ZM467.17813 345.16876L467.61563 340.91876L471.99063 340.91876L471.99063 341.91876L468.5375 341.91876L468.27188 344.2469Q468.9125 343.8719 469.70938 343.8719Q470.86563 343.8719 471.55313 344.65314Q472.24063 345.41876 472.24063 346.73126Q472.24063 348.04376 471.52188 348.8094Q470.81876 349.575 469.5375 349.575Q468.4125 349.575 467.69376 348.95Q466.975 348.3094 466.88126 347.2L467.89688 347.2Q468.00626 347.9344 468.42813 348.3094Q468.85 348.6844 469.5375 348.6844Q470.2875 348.6844 470.725 348.16876Q471.1625 347.65314 471.1625 346.7469Q471.1625 345.8875 470.69376 345.3719Q470.225 344.85626 469.44376 344.85626Q468.74063 344.85626 468.33438 345.15314L468.05313 345.3875L467.17813 345.16876Z" fill-rule="nonzero"/><path fill="#000000" d="M582.21564 349.45L581.1375 349.45L581.1375 342.23126L578.95 343.02814L578.95 342.04376L582.0594 340.8719L582.21564 340.8719L582.21564 349.45Z" fill-rule="nonzero"/><path fill="#4285f4" d="M82.0 81.416664C82.0 80.86438 82.447716 80.416664 83.0 80.416664L93.0 80.416664C93.552284 80.416664 94.0 80.86438 94.0 81.416664L94.0 91.416664C94.0 91.96895 93.552284 92.416664 93.0 92.416664L83.0 92.416664C82.447716 92.416664 82.0 91.96895 82.0 91.416664Z" fill-rule="nonzero"/><path fill="#000000" d="M107.703125 87.15104L104.109375 87.15104L104.109375 90.916664L102.984375 90.916664L102.984375 82.385414L108.28125 82.385414L108.28125 83.30729L104.109375 83.30729L104.109375 86.229164L107.703125 86.229164L107.703125 87.15104ZM111.0 90.916664L109.921875 90.916664L109.921875 84.572914L111.0 84.572914L111.0 90.916664ZM109.828125 82.90104Q109.828125 82.635414 109.984375 82.447914Q110.15625 82.260414 110.46875 82.260414Q110.78125 82.260414 110.9375 82.447914Q111.109375 82.635414 111.109375 82.90104Q111.109375 83.15104 110.9375 83.33854Q110.78125 83.510414 110.46875 83.510414Q110.15625 83.510414 109.984375 83.33854Q109.828125 83.15104 109.828125 82.90104ZM113.84375 84.572914L113.875 85.36979Q114.609375 84.46354 115.78125 84.46354Q117.796875 84.46354 117.8125 86.729164L117.8125 90.916664L116.71875 90.916664L116.71875 86.71354Q116.71875 86.041664 116.40625 85.71354Q116.109375 85.385414 115.453125 85.385414Q114.921875 85.385414 114.515625 85.666664Q114.125 85.947914 113.90625 86.40104L113.90625 90.916664L112.828125 90.916664L112.828125 84.572914L113.84375 84.572914ZM123.734375 90.916664Q123.640625 90.729164 123.578125 90.24479Q122.828125 91.041664 121.78125 91.041664Q120.84375 91.041664 120.234375 90.510414Q119.640625 89.979164 119.640625 89.15104Q119.640625 88.166664 120.390625 87.61979Q121.140625 87.072914 122.515625 87.072914L123.5625 87.072914L123.5625 86.572914Q123.5625 86.010414 123.21875 85.68229Q122.890625 85.33854 122.21875 85.33854Q121.640625 85.33854 121.25 85.635414Q120.859375 85.916664 120.859375 86.33854L119.765625 86.33854Q119.765625 85.854164 120.09375 85.416664Q120.4375 84.979164 121.015625 84.729164Q121.59375 84.46354 122.28125 84.46354Q123.390625 84.46354 124.0 85.010414Q124.625 85.55729 124.65625 86.510414L124.65625 89.43229Q124.65625 90.30729 124.875 90.822914L124.875 90.916664L123.734375 90.916664ZM121.9375 90.08854Q122.453125 90.08854 122.90625 89.822914Q123.359375 89.55729 123.5625 89.135414L123.5625 87.83854L122.71875 87.83854Q120.71875 87.83854 120.71875 89.010414Q120.71875 89.510414 121.0625 89.80729Q121.40625 90.08854 121.9375 90.08854ZM128.0 90.916664L126.921875 90.916664L126.921875 81.916664L128.0 81.916664L128.0 90.916664ZM137.70312 88.68229L134.125 88.68229L133.32812 90.916664L132.17188 90.916664L135.42188 82.385414L136.40625 82.385414L139.67188 90.916664L138.51562 90.916664L137.70312 88.68229ZM134.46875 87.760414L137.375 87.760414L135.92188 83.77604L134.46875 87.760414ZM143.35938 90.15104Q143.9375 90.15104 144.375 89.80729Q144.8125 89.447914 144.85938 88.916664L145.89062 88.916664Q145.85938 89.46354 145.5 89.96354Q145.15625 90.447914 144.57812 90.74479Q144.01562 91.041664 143.35938 91.041664Q142.0625 91.041664 141.29688 90.18229Q140.54688 89.30729 140.54688 87.80729L140.54688 87.61979Q140.54688 86.697914 140.875 85.979164Q141.21875 85.260414 141.84375 84.86979Q142.48438 84.46354 143.35938 84.46354Q144.42188 84.46354 145.125 85.104164Q145.84375 85.729164 145.89062 86.760414L144.85938 86.760414Q144.8125 86.135414 144.39062 85.74479Q143.96875 85.354164 143.35938 85.354164Q142.53125 85.354164 142.07812 85.947914Q141.625 86.541664 141.625 87.666664L141.625 87.86979Q141.625 88.96354 142.07812 89.55729Q142.53125 90.15104 143.35938 90.15104ZM149.35938 90.15104Q149.9375 90.15104 150.375 89.80729Q150.8125 89.447914 150.85938 88.916664L151.89062 88.916664Q151.85938 89.46354 151.5 89.96354Q151.15625 90.447914 150.57812 90.74479Q150.01562 91.041664 149.35938 91.041664Q148.0625 91.041664 147.29688 90.18229Q146.54688 89.30729 146.54688 87.80729L146.54688 87.61979Q146.54688 86.697914 146.875 85.979164Q147.21875 85.260414 147.84375 84.86979Q148.48438 84.46354 149.35938 84.46354Q150.42188 84.46354 151.125 85.104164Q151.84375 85.729164 151.89062 86.760414L150.85938 86.760414Q150.8125 86.135414 150.39062 85.74479Q149.96875 85.354164 149.35938 85.354164Q148.53125 85.354164 148.07812 85.947914Q147.625 86.541664 147.625 87.666664L147.625 87.86979Q147.625 88.96354 148.07812 89.55729Q148.53125 90.15104 149.35938 90.15104ZM156.73438 90.291664Q156.10938 91.041664 154.875 91.041664Q153.85938 91.041664 153.32812 90.447914Q152.79688 89.854164 152.79688 88.697914L152.79688 84.572914L153.875 84.572914L153.875 88.666664Q153.875 90.11979 155.04688 90.11979Q156.29688 90.11979 156.70312 89.18229L156.70312 84.572914L157.79688 84.572914L157.79688 90.916664L156.76562 90.916664L156.73438 90.291664ZM162.89062 85.541664Q162.64062 85.510414 162.35938 85.510414Q161.28125 85.510414 160.90625 86.416664L160.90625 90.916664L159.82812 90.916664L159.82812 84.572914L160.875 84.572914L160.89062 85.30729Q161.42188 84.46354 162.40625 84.46354Q162.71875 84.46354 162.89062 84.541664L162.89062 85.541664ZM167.73438 90.916664Q167.64062 90.729164 167.57812 90.24479Q166.82812 91.041664 165.78125 91.041664Q164.84375 91.041664 164.23438 90.510414Q163.64062 89.979164 163.64062 89.15104Q163.64062 88.166664 164.39062 87.61979Q165.14062 87.072914 166.51562 87.072914L167.5625 87.072914L167.5625 86.572914Q167.5625 86.010414 167.21875 85.68229Q166.89062 85.33854 166.21875 85.33854Q165.64062 85.33854 165.25 85.635414Q164.85938 85.916664 164.85938 86.33854L163.76562 86.33854Q163.76562 85.854164 164.09375 85.416664Q164.4375 84.979164 165.01562 84.729164Q165.59375 84.46354 166.28125 84.46354Q167.39062 84.46354 168.0 85.010414Q168.625 85.55729 168.65625 86.510414L168.65625 89.43229Q168.65625 90.30729 168.875 90.822914L168.875 90.916664L167.73438 90.916664ZM165.9375 90.08854Q166.45312 90.08854 166.90625 89.822914Q167.35938 89.55729 167.5625 89.135414L167.5625 87.83854L166.71875 87.83854Q164.71875 87.83854 164.71875 89.010414Q164.71875 89.510414 165.0625 89.80729Q165.40625 90.08854 165.9375 90.08854ZM173.35938 90.15104Q173.9375 90.15104 174.375 89.80729Q174.8125 89.447914 174.85938 88.916664L175.89062 88.916664Q175.85938 89.46354 175.5 89.96354Q175.15625 90.447914 174.57812 90.74479Q174.01562 91.041664 173.35938 91.041664Q172.0625 91.041664 171.29688 90.18229Q170.54688 89.30729 170.54688 87.80729L170.54688 87.61979Q170.54688 86.697914 170.875 85.979164Q171.21875 85.260414 171.84375 84.86979Q172.48438 84.46354 173.35938 84.46354Q174.42188 84.46354 175.125 85.104164Q175.84375 85.729164 175.89062 86.760414L174.85938 86.760414Q174.8125 86.135414 174.39062 85.74479Q173.96875 85.354164 173.35938 85.354164Q172.53125 85.354164 172.07812 85.947914Q171.625 86.541664 171.625 87.666664L171.625 87.86979Q171.625 88.96354 172.07812 89.55729Q172.53125 90.15104 173.35938 90.15104ZM178.89062 89.322914L180.375 84.572914L181.53125 84.572914L178.98438 91.90104Q178.39062 93.479164 177.10938 93.479164L176.89062 93.46354L176.5 93.385414L176.5 92.510414L176.78125 92.52604Q177.34375 92.52604 177.64062 92.30729Q177.95312 92.08854 178.15625 91.49479L178.39062 90.83854L176.125 84.572914L177.3125 84.572914L178.89062 89.322914Z" fill-rule="nonzero"/><path fill="#db4437" d="M198.0 81.416664C198.0 80.86438 198.44771 80.416664 199.0 80.416664L209.0 80.416664C209.55229 80.416664 210.0 80.86438 210.0 81.416664L210.0 91.416664C210.0 91.96895 209.55229 92.416664 209.0 92.416664L199.0 92.416664C198.44771 92.416664 198.0 91.96895 198.0 91.416664Z" fill-rule="nonzero"/><path fill="#000000" d="M220.4375 82.385414L223.23438 89.33854L226.01562 82.385414L227.48438 82.385414L227.48438 90.916664L226.35938 90.916664L226.35938 87.58854L226.46875 84.010414L223.65625 90.916664L222.79688 90.916664L220.0 84.02604L220.10938 87.58854L220.10938 90.916664L218.98438 90.916664L218.98438 82.385414L220.4375 82.385414ZM230.0 90.916664L228.92188 90.916664L228.92188 84.572914L230.0 84.572914L230.0 90.916664ZM228.82812 82.90104Q228.82812 82.635414 228.98438 82.447914Q229.15625 82.260414 229.46875 82.260414Q229.78125 82.260414 229.9375 82.447914Q230.10938 82.635414 230.10938 82.90104Q230.10938 83.15104 229.9375 83.33854Q229.78125 83.510414 229.46875 83.510414Q229.15625 83.510414 228.98438 83.33854Q228.82812 83.15104 228.82812 82.90104ZM235.51562 89.229164Q235.51562 88.791664 235.17188 88.55729Q234.84375 88.30729 234.01562 88.135414Q233.20312 87.96354 232.71875 87.71354Q232.23438 87.46354 232.0 87.135414Q231.78125 86.791664 231.78125 86.322914Q231.78125 85.541664 232.4375 85.010414Q233.09375 84.46354 234.125 84.46354Q235.20312 84.46354 235.85938 85.02604Q236.53125 85.572914 236.53125 86.43229L235.45312 86.43229Q235.45312 85.99479 235.0625 85.68229Q234.6875 85.354164 234.125 85.354164Q233.53125 85.354164 233.1875 85.61979Q232.85938 85.86979 232.85938 86.27604Q232.85938 86.666664 233.17188 86.86979Q233.48438 87.072914 234.29688 87.260414Q235.10938 87.43229 235.60938 87.68229Q236.10938 87.93229 236.34375 88.291664Q236.59375 88.65104 236.59375 89.15104Q236.59375 90.010414 235.90625 90.52604Q235.23438 91.041664 234.15625 91.041664Q233.39062 91.041664 232.79688 90.77604Q232.21875 90.49479 231.89062 90.010414Q231.5625 89.52604 231.5625 88.96354L232.64062 88.96354Q232.67188 89.510414 233.07812 89.83854Q233.48438 90.15104 234.15625 90.15104Q234.76562 90.15104 235.14062 89.90104Q235.51562 89.65104 235.51562 89.229164ZM240.35938 90.15104Q240.9375 90.15104 241.375 89.80729Q241.8125 89.447914 241.85938 88.916664L242.89062 88.916664Q242.85938 89.46354 242.5 89.96354Q242.15625 90.447914 241.57812 90.74479Q241.01562 91.041664 240.35938 91.041664Q239.0625 91.041664 238.29688 90.18229Q237.54688 89.30729 237.54688 87.80729L237.54688 87.61979Q237.54688 86.697914 237.875 85.979164Q238.21875 85.260414 238.84375 84.86979Q239.48438 84.46354 240.35938 84.46354Q241.42188 84.46354 242.125 85.104164Q242.84375 85.729164 242.89062 86.760414L241.85938 86.760414Q241.8125 86.135414 241.39062 85.74479Q240.96875 85.354164 240.35938 85.354164Q239.53125 85.354164 239.07812 85.947914Q238.625 86.541664 238.625 87.666664L238.625 87.86979Q238.625 88.96354 239.07812 89.55729Q239.53125 90.15104 240.35938 90.15104ZM245.0 90.916664L243.92188 90.916664L243.92188 81.916664L245.0 81.916664L245.0 90.916664ZM250.73438 90.916664Q250.64062 90.729164 250.57812 90.24479Q249.82812 91.041664 248.78125 91.041664Q247.84375 91.041664 247.23438 90.510414Q246.64062 89.979164 246.64062 89.15104Q246.64062 88.166664 247.39062 87.61979Q248.14062 87.072914 249.51562 87.072914L250.5625 87.072914L250.5625 86.572914Q250.5625 86.010414 250.21875 85.68229Q249.89062 85.33854 249.21875 85.33854Q248.64062 85.33854 248.25 85.635414Q247.85938 85.916664 247.85938 86.33854L246.76562 86.33854Q246.76562 85.854164 247.09375 85.416664Q247.4375 84.979164 248.01562 84.729164Q248.59375 84.46354 249.28125 84.46354Q250.39062 84.46354 251.0 85.010414Q251.625 85.55729 251.65625 86.510414L251.65625 89.43229Q251.65625 90.30729 251.875 90.822914L251.875 90.916664L250.73438 90.916664ZM248.9375 90.08854Q249.45312 90.08854 249.90625 89.822914Q250.35938 89.55729 250.5625 89.135414L250.5625 87.83854L249.71875 87.83854Q247.71875 87.83854 247.71875 89.010414Q247.71875 89.510414 248.0625 89.80729Q248.40625 90.08854 248.9375 90.08854ZM257.51562 89.229164Q257.51562 88.791664 257.17188 88.55729Q256.84375 88.30729 256.01562 88.135414Q255.20312 87.96354 254.71875 87.71354Q254.23438 87.46354 254.0 87.135414Q253.78125 86.791664 253.78125 86.322914Q253.78125 85.541664 254.4375 85.010414Q255.09375 84.46354 256.125 84.46354Q257.20312 84.46354 257.85938 85.02604Q258.53125 85.572914 258.53125 86.43229L257.45312 86.43229Q257.45312 85.99479 257.0625 85.68229Q256.6875 85.354164 256.125 85.354164Q255.53125 85.354164 255.1875 85.61979Q254.85938 85.86979 254.85938 86.27604Q254.85938 86.666664 255.17188 86.86979Q255.48438 87.072914 256.29688 87.260414Q257.10938 87.43229 257.60938 87.68229Q258.10938 87.93229 258.34375 88.291664Q258.59375 88.65104 258.59375 89.15104Q258.59375 90.010414 257.90625 90.52604Q257.23438 91.041664 256.15625 91.041664Q255.39062 91.041664 254.79688 90.77604Q254.21875 90.49479 253.89062 90.010414Q253.5625 89.52604 253.5625 88.96354L254.64062 88.96354Q254.67188 89.510414 255.07812 89.83854Q255.48438 90.15104 256.15625 90.15104Q256.76562 90.15104 257.14062 89.90104Q257.51562 89.65104 257.51562 89.229164ZM263.51562 89.229164Q263.51562 88.791664 263.17188 88.55729Q262.84375 88.30729 262.01562 88.135414Q261.20312 87.96354 260.71875 87.71354Q260.23438 87.46354 260.0 87.135414Q259.78125 86.791664 259.78125 86.322914Q259.78125 85.541664 260.4375 85.010414Q261.09375 84.46354 262.125 84.46354Q263.20312 84.46354 263.85938 85.02604Q264.53125 85.572914 264.53125 86.43229L263.45312 86.43229Q263.45312 85.99479 263.0625 85.68229Q262.6875 85.354164 262.125 85.354164Q261.53125 85.354164 261.1875 85.61979Q260.85938 85.86979 260.85938 86.27604Q260.85938 86.666664 261.17188 86.86979Q261.48438 87.072914 262.29688 87.260414Q263.10938 87.43229 263.60938 87.68229Q264.10938 87.93229 264.34375 88.291664Q264.59375 88.65104 264.59375 89.15104Q264.59375 90.010414 263.90625 90.52604Q263.23438 91.041664 262.15625 91.041664Q261.39062 91.041664 260.79688 90.77604Q260.21875 90.49479 259.89062 90.010414Q259.5625 89.52604 259.5625 88.96354L260.64062 88.96354Q260.67188 89.510414 261.07812 89.83854Q261.48438 90.15104 262.15625 90.15104Q262.76562 90.15104 263.14062 89.90104Q263.51562 89.65104 263.51562 89.229164ZM267.0 90.916664L265.92188 90.916664L265.92188 84.572914L267.0 84.572914L267.0 90.916664ZM265.82812 82.90104Q265.82812 82.635414 265.98438 82.447914Q266.15625 82.260414 266.46875 82.260414Q266.78125 82.260414 266.9375 82.447914Q267.10938 82.635414 267.10938 82.90104Q267.10938 83.15104 266.9375 83.33854Q266.78125 83.510414 266.46875 83.510414Q266.15625 83.510414 265.98438 83.33854Q265.82812 83.15104 265.82812 82.90104ZM269.35938 90.916664L269.35938 85.416664L268.35938 85.416664L268.35938 84.572914L269.35938 84.572914L269.35938 83.93229Q269.35938 82.90104 269.89062 82.354164Q270.4375 81.791664 271.4375 81.791664Q271.8125 81.791664 272.1875 81.885414L272.125 82.77604Q271.84375 82.71354 271.54688 82.71354Q271.01562 82.71354 270.71875 83.02604Q270.4375 83.33854 270.4375 83.90104L270.4375 84.572914L271.79688 84.572914L271.79688 85.416664L270.4375 85.416664L270.4375 90.916664L269.35938 90.916664ZM274.0 90.916664L272.92188 90.916664L272.92188 84.572914L274.0 84.572914L274.0 90.916664ZM272.82812 82.90104Q272.82812 82.635414 272.98438 82.447914Q273.15625 82.260414 273.46875 82.260414Q273.78125 82.260414 273.9375 82.447914Q274.10938 82.635414 274.10938 82.90104Q274.10938 83.15104 273.9375 83.33854Q273.78125 83.510414 273.46875 83.510414Q273.15625 83.510414 272.98438 83.33854Q272.82812 83.15104 272.82812 82.90104ZM278.35938 90.15104Q278.9375 90.15104 279.375 89.80729Q279.8125 89.447914 279.85938 88.916664L280.89062 88.916664Q280.85938 89.46354 280.5 89.96354Q280.15625 90.447914 279.57812 90.74479Q279.01562 91.041664 278.35938 91.041664Q277.0625 91.041664 276.29688 90.18229Q275.54688 89.30729 275.54688 87.80729L275.54688 87.61979Q275.54688 86.697914 275.875 85.979164Q276.21875 85.260414 276.84375 84.86979Q277.48438 84.46354 278.35938 84.46354Q279.42188 84.46354 280.125 85.104164Q280.84375 85.729164 280.89062 86.760414L279.85938 86.760414Q279.8125 86.135414 279.39062 85.74479Q278.96875 85.354164 278.35938 85.354164Q277.53125 85.354164 277.07812 85.947914Q276.625 86.541664 276.625 87.666664L276.625 87.86979Q276.625 88.96354 277.07812 89.55729Q277.53125 90.15104 278.35938 90.15104ZM285.73438 90.916664Q285.64062 90.729164 285.57812 90.24479Q284.82812 91.041664 283.78125 91.041664Q282.84375 91.041664 282.23438 90.510414Q281.64062 89.979164 281.64062 89.15104Q281.64062 88.166664 282.39062 87.61979Q283.14062 87.072914 284.51562 87.072914L285.5625 87.072914L285.5625 86.572914Q285.5625 86.010414 285.21875 85.68229Q284.89062 85.33854 284.21875 85.33854Q283.64062 85.33854 283.25 85.635414Q282.85938 85.916664 282.85938 86.33854L281.76562 86.33854Q281.76562 85.854164 282.09375 85.416664Q282.4375 84.979164 283.01562 84.729164Q283.59375 84.46354 284.28125 84.46354Q285.39062 84.46354 286.0 85.010414Q286.625 85.55729 286.65625 86.510414L286.65625 89.43229Q286.65625 90.30729 286.875 90.822914L286.875 90.916664L285.73438 90.916664ZM283.9375 90.08854Q284.45312 90.08854 284.90625 89.822914Q285.35938 89.55729 285.5625 89.135414L285.5625 87.83854L284.71875 87.83854Q282.71875 87.83854 282.71875 89.010414Q282.71875 89.510414 283.0625 89.80729Q283.40625 90.08854 283.9375 90.08854ZM290.29688 83.041664L290.29688 84.572914L291.46875 84.572914L291.46875 85.416664L290.29688 85.416664L290.29688 89.33854Q290.29688 89.729164 290.45312 89.916664Q290.60938 90.104164 290.98438 90.104164Q291.17188 90.104164 291.5 90.041664L291.5 90.916664Q291.07812 91.041664 290.67188 91.041664Q289.95312 91.041664 289.57812 90.604164Q289.20312 90.15104 289.20312 89.33854L289.20312 85.416664L288.04688 85.416664L288.04688 84.572914L289.20312 84.572914L289.20312 83.041664L290.29688 83.041664ZM294.0 90.916664L292.92188 90.916664L292.92188 84.572914L294.0 84.572914L294.0 90.916664ZM292.82812 82.90104Q292.82812 82.635414 292.98438 82.447914Q293.15625 82.260414 293.46875 82.260414Q293.78125 82.260414 293.9375 82.447914Q294.10938 82.635414 294.10938 82.90104Q294.10938 83.15104 293.9375 83.33854Q293.78125 83.510414 293.46875 83.510414Q293.15625 83.510414 292.98438 83.33854Q292.82812 83.15104 292.82812 82.90104ZM295.53125 87.68229Q295.53125 86.760414 295.89062 86.010414Q296.26562 85.260414 296.92188 84.86979Q297.57812 84.46354 298.40625 84.46354Q299.70312 84.46354 300.5 85.354164Q301.3125 86.24479 301.3125 87.74479L301.3125 87.822914Q301.3125 88.74479 300.95312 89.479164Q300.59375 90.21354 299.9375 90.635414Q299.28125 91.041664 298.42188 91.041664Q297.14062 91.041664 296.32812 90.15104Q295.53125 89.24479 295.53125 87.760414L295.53125 87.68229ZM296.625 87.822914Q296.625 88.86979 297.10938 89.510414Q297.60938 90.15104 298.42188 90.15104Q299.25 90.15104 299.73438 89.510414Q300.21875 88.854164 300.21875 87.68229Q300.21875 86.65104 299.71875 86.010414Q299.23438 85.354164 298.40625 85.354164Q297.60938 85.354164 297.10938 85.99479Q296.625 86.61979 296.625 87.822914ZM303.84375 84.572914L303.875 85.36979Q304.60938 84.46354 305.78125 84.46354Q307.79688 84.46354 307.8125 86.729164L307.8125 90.916664L306.71875 90.916664L306.71875 86.71354Q306.71875 86.041664 306.40625 85.71354Q306.10938 85.385414 305.45312 85.385414Q304.92188 85.385414 304.51562 85.666664Q304.125 85.947914 303.90625 86.40104L303.90625 90.916664L302.82812 90.916664L302.82812 84.572914L303.84375 84.572914ZM316.125 87.46354L314.10938 87.46354L314.10938 90.916664L312.98438 90.916664L312.98438 82.385414L315.8125 82.385414Q317.25 82.385414 318.01562 83.041664Q318.79688 83.697914 318.79688 84.947914Q318.79688 85.74479 318.35938 86.33854Q317.9375 86.93229 317.17188 87.229164L319.17188 90.83854L319.17188 90.916664L317.96875 90.916664L316.125 87.46354ZM314.10938 86.541664L315.84375 86.541664Q316.6875 86.541664 317.17188 86.11979Q317.67188 85.68229 317.67188 84.947914Q317.67188 84.166664 317.20312 83.74479Q316.73438 83.322914 315.84375 83.30729L314.10938 83.30729L314.10938 86.541664ZM323.73438 90.916664Q323.64062 90.729164 323.57812 90.24479Q322.82812 91.041664 321.78125 91.041664Q320.84375 91.041664 320.23438 90.510414Q319.64062 89.979164 319.64062 89.15104Q319.64062 88.166664 320.39062 87.61979Q321.14062 87.072914 322.51562 87.072914L323.5625 87.072914L323.5625 86.572914Q323.5625 86.010414 323.21875 85.68229Q322.89062 85.33854 322.21875 85.33854Q321.64062 85.33854 321.25 85.635414Q320.85938 85.916664 320.85938 86.33854L319.76562 86.33854Q319.76562 85.854164 320.09375 85.416664Q320.4375 84.979164 321.01562 84.729164Q321.59375 84.46354 322.28125 84.46354Q323.39062 84.46354 324.0 85.010414Q324.625 85.55729 324.65625 86.510414L324.65625 89.43229Q324.65625 90.30729 324.875 90.822914L324.875 90.916664L323.73438 90.916664ZM321.9375 90.08854Q322.45312 90.08854 322.90625 89.822914Q323.35938 89.55729 323.5625 89.135414L323.5625 87.83854L322.71875 87.83854Q320.71875 87.83854 320.71875 89.010414Q320.71875 89.510414 321.0625 89.80729Q321.40625 90.08854 321.9375 90.08854ZM328.29688 83.041664L328.29688 84.572914L329.46875 84.572914L329.46875 85.416664L328.29688 85.416664L328.29688 89.33854Q328.29688 89.729164 328.45312 89.916664Q328.60938 90.104164 328.98438 90.104164Q329.17188 90.104164 329.5 90.041664L329.5 90.916664Q329.07812 91.041664 328.67188 91.041664Q327.95312 91.041664 327.57812 90.604164Q327.20312 90.15104 327.20312 89.33854L327.20312 85.416664L326.04688 85.416664L326.04688 84.572914L327.20312 84.572914L327.20312 83.041664L328.29688 83.041664ZM333.45312 91.041664Q332.15625 91.041664 331.34375 90.197914Q330.54688 89.33854 330.54688 87.916664L330.54688 87.729164Q330.54688 86.77604 330.90625 86.041664Q331.26562 85.291664 331.90625 84.885414Q332.5625 84.46354 333.3125 84.46354Q334.54688 84.46354 335.23438 85.27604Q335.92188 86.08854 335.92188 87.604164L335.92188 88.05729L331.625 88.05729Q331.65625 88.99479 332.17188 89.572914Q332.70312 90.15104 333.51562 90.15104Q334.07812 90.15104 334.46875 89.916664Q334.875 89.68229 335.1875 89.291664L335.84375 89.80729Q335.04688 91.041664 333.45312 91.041664ZM333.3125 85.354164Q332.65625 85.354164 332.20312 85.83854Q331.76562 86.30729 331.67188 87.166664L334.84375 87.166664L334.84375 87.08854Q334.79688 86.260414 334.39062 85.80729Q334.0 85.354164 333.3125 85.354164Z" fill-rule="nonzero"/><path fill="#f4b400" d="M352.0 81.416664C352.0 80.86438 352.44772 80.416664 353.0 80.416664L363.0 80.416664C363.55228 80.416664 364.0 80.86438 364.0 81.416664L364.0 91.416664C364.0 91.96895 363.55228 92.416664 363.0 92.416664L353.0 92.416664C352.44772 92.416664 352.0 91.96895 352.0 91.416664Z" fill-rule="nonzero"/><path fill="#000000" d="M374.4375 82.385414L377.23438 89.33854L380.01562 82.385414L381.48438 82.385414L381.48438 90.916664L380.35938 90.916664L380.35938 87.58854L380.46875 84.010414L377.65625 90.916664L376.79688 90.916664L374.0 84.02604L374.10938 87.58854L374.10938 90.916664L372.98438 90.916664L372.98438 82.385414L374.4375 82.385414ZM385.45312 91.041664Q384.15625 91.041664 383.34375 90.197914Q382.54688 89.33854 382.54688 87.916664L382.54688 87.729164Q382.54688 86.77604 382.90625 86.041664Q383.26562 85.291664 383.90625 84.885414Q384.5625 84.46354 385.3125 84.46354Q386.54688 84.46354 387.23438 85.27604Q387.92188 86.08854 387.92188 87.604164L387.92188 88.05729L383.625 88.05729Q383.65625 88.99479 384.17188 89.572914Q384.70312 90.15104 385.51562 90.15104Q386.07812 90.15104 386.46875 89.916664Q386.875 89.68229 387.1875 89.291664L387.84375 89.80729Q387.04688 91.041664 385.45312 91.041664ZM385.3125 85.354164Q384.65625 85.354164 384.20312 85.83854Q383.76562 86.30729 383.67188 87.166664L386.84375 87.166664L386.84375 87.08854Q386.79688 86.260414 386.39062 85.80729Q386.0 85.354164 385.3125 85.354164ZM392.73438 90.916664Q392.64062 90.729164 392.57812 90.24479Q391.82812 91.041664 390.78125 91.041664Q389.84375 91.041664 389.23438 90.510414Q388.64062 89.979164 388.64062 89.15104Q388.64062 88.166664 389.39062 87.61979Q390.14062 87.072914 391.51562 87.072914L392.5625 87.072914L392.5625 86.572914Q392.5625 86.010414 392.21875 85.68229Q391.89062 85.33854 391.21875 85.33854Q390.64062 85.33854 390.25 85.635414Q389.85938 85.916664 389.85938 86.33854L388.76562 86.33854Q388.76562 85.854164 389.09375 85.416664Q389.4375 84.979164 390.01562 84.729164Q390.59375 84.46354 391.28125 84.46354Q392.39062 84.46354 393.0 85.010414Q393.625 85.55729 393.65625 86.510414L393.65625 89.43229Q393.65625 90.30729 393.875 90.822914L393.875 90.916664L392.73438 90.916664ZM390.9375 90.08854Q391.45312 90.08854 391.90625 89.822914Q392.35938 89.55729 392.5625 89.135414L392.5625 87.83854L391.71875 87.83854Q389.71875 87.83854 389.71875 89.010414Q389.71875 89.510414 390.0625 89.80729Q390.40625 90.08854 390.9375 90.08854ZM396.84375 84.572914L396.875 85.36979Q397.60938 84.46354 398.78125 84.46354Q400.79688 84.46354 400.8125 86.729164L400.8125 90.916664L399.71875 90.916664L399.71875 86.71354Q399.71875 86.041664 399.40625 85.71354Q399.10938 85.385414 398.45312 85.385414Q397.92188 85.385414 397.51562 85.666664Q397.125 85.947914 396.90625 86.40104L396.90625 90.916664L395.82812 90.916664L395.82812 84.572914L396.84375 84.572914ZM410.70312 88.68229L407.125 88.68229L406.32812 90.916664L405.17188 90.916664L408.42188 82.385414L409.40625 82.385414L412.67188 90.916664L411.51562 90.916664L410.70312 88.68229ZM407.46875 87.760414L410.375 87.760414L408.92188 83.77604L407.46875 87.760414ZM419.1875 87.822914Q419.1875 89.27604 418.51562 90.166664Q417.85938 91.041664 416.73438 91.041664Q415.53125 91.041664 414.875 90.18229L414.8125 90.916664L413.82812 90.916664L413.82812 81.916664L414.90625 81.916664L414.90625 85.27604Q415.5625 84.46354 416.71875 84.46354Q417.875 84.46354 418.53125 85.33854Q419.1875 86.197914 419.1875 87.729164L419.1875 87.822914ZM418.10938 87.697914Q418.10938 86.58854 417.67188 85.99479Q417.25 85.385414 416.45312 85.385414Q415.375 85.385414 414.90625 86.36979L414.90625 89.11979Q415.40625 90.11979 416.45312 90.11979Q417.23438 90.11979 417.67188 89.510414Q418.10938 88.90104 418.10938 87.697914ZM424.51562 89.229164Q424.51562 88.791664 424.17188 88.55729Q423.84375 88.30729 423.01562 88.135414Q422.20312 87.96354 421.71875 87.71354Q421.23438 87.46354 421.0 87.135414Q420.78125 86.791664 420.78125 86.322914Q420.78125 85.541664 421.4375 85.010414Q422.09375 84.46354 423.125 84.46354Q424.20312 84.46354 424.85938 85.02604Q425.53125 85.572914 425.53125 86.43229L424.45312 86.43229Q424.45312 85.99479 424.0625 85.68229Q423.6875 85.354164 423.125 85.354164Q422.53125 85.354164 422.1875 85.61979Q421.85938 85.86979 421.85938 86.27604Q421.85938 86.666664 422.17188 86.86979Q422.48438 87.072914 423.29688 87.260414Q424.10938 87.43229 424.60938 87.68229Q425.10938 87.93229 425.34375 88.291664Q425.59375 88.65104 425.59375 89.15104Q425.59375 90.010414 424.90625 90.52604Q424.23438 91.041664 423.15625 91.041664Q422.39062 91.041664 421.79688 90.77604Q421.21875 90.49479 420.89062 90.010414Q420.5625 89.52604 420.5625 88.96354L421.64062 88.96354Q421.67188 89.510414 422.07812 89.83854Q422.48438 90.15104 423.15625 90.15104Q423.76562 90.15104 424.14062 89.90104Q424.51562 89.65104 424.51562 89.229164ZM426.53125 87.68229Q426.53125 86.760414 426.89062 86.010414Q427.26562 85.260414 427.92188 84.86979Q428.57812 84.46354 429.40625 84.46354Q430.70312 84.46354 431.5 85.354164Q432.3125 86.24479 432.3125 87.74479L432.3125 87.822914Q432.3125 88.74479 431.95312 89.479164Q431.59375 90.21354 430.9375 90.635414Q430.28125 91.041664 429.42188 91.041664Q428.14062 91.041664 427.32812 90.15104Q426.53125 89.24479 426.53125 87.760414L426.53125 87.68229ZM427.625 87.822914Q427.625 88.86979 428.10938 89.510414Q428.60938 90.15104 429.42188 90.15104Q430.25 90.15104 430.73438 89.510414Q431.21875 88.854164 431.21875 87.68229Q431.21875 86.65104 430.71875 86.010414Q430.23438 85.354164 429.40625 85.354164Q428.60938 85.354164 428.10938 85.99479Q427.625 86.61979 427.625 87.822914ZM435.0 90.916664L433.92188 90.916664L433.92188 81.916664L435.0 81.916664L435.0 90.916664ZM440.73438 90.291664Q440.10938 91.041664 438.875 91.041664Q437.85938 91.041664 437.32812 90.447914Q436.79688 89.854164 436.79688 88.697914L436.79688 84.572914L437.875 84.572914L437.875 88.666664Q437.875 90.11979 439.04688 90.11979Q440.29688 90.11979 440.70312 89.18229L440.70312 84.572914L441.79688 84.572914L441.79688 90.916664L440.76562 90.916664L440.73438 90.291664ZM445.29688 83.041664L445.29688 84.572914L446.46875 84.572914L446.46875 85.416664L445.29688 85.416664L445.29688 89.33854Q445.29688 89.729164 445.45312 89.916664Q445.60938 90.104164 445.98438 90.104164Q446.17188 90.104164 446.5 90.041664L446.5 90.916664Q446.07812 91.041664 445.67188 91.041664Q444.95312 91.041664 444.57812 90.604164Q444.20312 90.15104 444.20312 89.33854L444.20312 85.416664L443.04688 85.416664L443.04688 84.572914L444.20312 84.572914L444.20312 83.041664L445.29688 83.041664ZM450.45312 91.041664Q449.15625 91.041664 448.34375 90.197914Q447.54688 89.33854 447.54688 87.916664L447.54688 87.729164Q447.54688 86.77604 447.90625 86.041664Q448.26562 85.291664 448.90625 84.885414Q449.5625 84.46354 450.3125 84.46354Q451.54688 84.46354 452.23438 85.27604Q452.92188 86.08854 452.92188 87.604164L452.92188 88.05729L448.625 88.05729Q448.65625 88.99479 449.17188 89.572914Q449.70312 90.15104 450.51562 90.15104Q451.07812 90.15104 451.46875 89.916664Q451.875 89.68229 452.1875 89.291664L452.84375 89.80729Q452.04688 91.041664 450.45312 91.041664ZM450.3125 85.354164Q449.65625 85.354164 449.20312 85.83854Q448.76562 86.30729 448.67188 87.166664L451.84375 87.166664L451.84375 87.08854Q451.79688 86.260414 451.39062 85.80729Q451.0 85.354164 450.3125 85.354164ZM461.8125 86.979164L458.10938 86.979164L458.10938 89.99479L462.40625 89.99479L462.40625 90.916664L456.98438 90.916664L456.98438 82.385414L462.35938 82.385414L462.35938 83.30729L458.10938 83.30729L458.10938 86.05729L461.8125 86.05729L461.8125 86.979164ZM466.89062 85.541664Q466.64062 85.510414 466.35938 85.510414Q465.28125 85.510414 464.90625 86.416664L464.90625 90.916664L463.82812 90.916664L463.82812 84.572914L464.875 84.572914L464.89062 85.30729Q465.42188 84.46354 466.40625 84.46354Q466.71875 84.46354 466.89062 84.541664L466.89062 85.541664ZM470.89062 85.541664Q470.64062 85.510414 470.35938 85.510414Q469.28125 85.510414 468.90625 86.416664L468.90625 90.916664L467.82812 90.916664L467.82812 84.572914L468.875 84.572914L468.89062 85.30729Q469.42188 84.46354 470.40625 84.46354Q470.71875 84.46354 470.89062 84.541664L470.89062 85.541664ZM471.53125 87.68229Q471.53125 86.760414 471.89062 86.010414Q472.26562 85.260414 472.92188 84.86979Q473.57812 84.46354 474.40625 84.46354Q475.70312 84.46354 476.5 85.354164Q477.3125 86.24479 477.3125 87.74479L477.3125 87.822914Q477.3125 88.74479 476.95312 89.479164Q476.59375 90.21354 475.9375 90.635414Q475.28125 91.041664 474.42188 91.041664Q473.14062 91.041664 472.32812 90.15104Q471.53125 89.24479 471.53125 87.760414L471.53125 87.68229ZM472.625 87.822914Q472.625 88.86979 473.10938 89.510414Q473.60938 90.15104 474.42188 90.15104Q475.25 90.15104 475.73438 89.510414Q476.21875 88.854164 476.21875 87.68229Q476.21875 86.65104 475.71875 86.010414Q475.23438 85.354164 474.40625 85.354164Q473.60938 85.354164 473.10938 85.99479Q472.625 86.61979 472.625 87.822914ZM481.89062 85.541664Q481.64062 85.510414 481.35938 85.510414Q480.28125 85.510414 479.90625 86.416664L479.90625 90.916664L478.82812 90.916664L478.82812 84.572914L479.875 84.572914L479.89062 85.30729Q480.42188 84.46354 481.40625 84.46354Q481.71875 84.46354 481.89062 84.541664L481.89062 85.541664ZM485.78125 87.447914Q485.78125 86.135414 486.125 84.916664Q486.48438 83.697914 487.1875 82.697914Q487.89062 81.697914 488.65625 81.291664L488.875 82.010414Q488.01562 82.666664 487.46875 84.010414Q486.92188 85.354164 486.875 87.02604L486.85938 87.52604Q486.85938 89.791664 487.6875 91.447914Q488.1875 92.447914 488.875 93.010414L488.65625 93.666664Q487.875 93.24479 487.15625 92.21354Q485.78125 90.229164 485.78125 87.447914ZM491.4375 82.385414L494.23438 89.33854L497.01562 82.385414L498.48438 82.385414L498.48438 90.916664L497.35938 90.916664L497.35938 87.58854L497.46875 84.010414L494.65625 90.916664L493.79688 90.916664L491.0 84.02604L491.10938 87.58854L491.10938 90.916664L489.98438 90.916664L489.98438 82.385414L491.4375 82.385414ZM504.70312 88.68229L501.125 88.68229L500.32812 90.916664L499.17188 90.916664L502.42188 82.385414L503.40625 82.385414L506.67188 90.916664L505.51562 90.916664L504.70312 88.68229ZM501.46875 87.760414L504.375 87.760414L502.92188 83.77604L501.46875 87.760414ZM512.8125 86.979164L509.10938 86.979164L509.10938 89.99479L513.40625 89.99479L513.40625 90.916664L507.98438 90.916664L507.98438 82.385414L513.3594 82.385414L513.3594 83.30729L509.10938 83.30729L509.10938 86.05729L512.8125 86.05729L512.8125 86.979164ZM517.3281 87.510414Q517.3281 88.822914 516.9844 90.02604Q516.6406 91.21354 515.9219 92.229164Q515.21875 93.24479 514.4531 93.666664L514.21875 93.010414Q515.125 92.322914 515.6719 90.86979Q516.21875 89.40104 516.2344 87.635414L516.2344 87.447914Q516.2344 86.21354 515.96875 85.15104Q515.71875 84.08854 515.25 83.260414Q514.7969 82.416664 514.21875 81.947914L514.4531 81.291664Q515.21875 81.71354 515.9219 82.71354Q516.625 83.71354 516.96875 84.93229Q517.3281 86.135414 517.3281 87.510414Z" fill-rule="nonzero"/><path fill="#000000" d="M28.05 31.26875L22.08125 31.26875L22.08125 37.55L20.20625 37.55L20.20625 23.33125L29.003124 23.33125L29.003124 24.878124L22.08125 24.878124L22.08125 29.7375L28.05 29.7375L28.05 31.26875ZM32.878124 37.55L31.08125 37.55L31.08125 26.9875L32.878124 26.9875L32.878124 37.55ZM30.925 24.175Q30.925 23.7375 31.190624 23.440624Q31.471874 23.128124 31.9875 23.128124Q32.51875 23.128124 32.784374 23.440624Q33.065624 23.7375 33.065624 24.175Q33.065624 24.6125 32.784374 24.909374Q32.51875 25.20625 31.9875 25.20625Q31.471874 25.20625 31.190624 24.909374Q30.925 24.6125 30.925 24.175ZM37.628124 26.9875L37.690624 28.315624Q38.89375 26.784374 40.846874 26.784374Q44.20625 26.784374 44.221874 30.565624L44.221874 37.55L42.425 37.55L42.425 30.55Q42.409374 29.409374 41.89375 28.8625Q41.39375 28.315624 40.3 28.315624Q39.425 28.315624 38.753124 28.784374Q38.096874 29.253124 37.721874 30.01875L37.721874 37.55L35.925 37.55L35.925 26.9875L37.628124 26.9875ZM53.440624 37.55Q53.284374 37.2375 53.190624 36.440624Q51.925 37.753124 50.175 37.753124Q48.6125 37.753124 47.6125 36.8625Q46.6125 35.971874 46.6125 34.6125Q46.6125 32.971874 47.8625 32.065624Q49.128124 31.14375 51.39375 31.14375L53.159374 31.14375L53.159374 30.315624Q53.159374 29.3625 52.58125 28.8Q52.01875 28.2375 50.925 28.2375Q49.95625 28.2375 49.3 28.7375Q48.64375 29.221874 48.64375 29.909374L46.83125 29.909374Q46.83125 29.128124 47.39375 28.39375Q47.95625 27.64375 48.909374 27.221874Q49.878124 26.784374 51.034374 26.784374Q52.8625 26.784374 53.89375 27.70625Q54.925 28.6125 54.971874 30.221874L54.971874 35.08125Q54.971874 36.534374 55.33125 37.39375L55.33125 37.55L53.440624 37.55ZM50.440624 36.175Q51.3 36.175 52.05 35.7375Q52.815624 35.3 53.159374 34.596874L53.159374 32.425L51.7375 32.425Q48.425 32.425 48.425 34.3625Q48.425 35.221874 48.9875 35.70625Q49.55 36.175 50.440624 36.175ZM59.878124 37.55L58.08125 37.55L58.08125 22.55L59.878124 22.55L59.878124 37.55ZM76.05 33.83125L70.09688 33.83125L68.75313 37.55L66.83125 37.55L72.25313 23.33125L73.89375 23.33125L79.33125 37.55L77.40938 37.55L76.05 33.83125ZM70.65938 32.3L75.50313 32.3L73.08125 25.64375L70.65938 32.3ZM85.15938 36.26875Q86.12813 36.26875 86.84688 35.690624Q87.56563 35.096874 87.64375 34.221874L89.3625 34.221874Q89.3 35.128124 88.72188 35.95625Q88.15938 36.76875 87.19063 37.26875Q86.2375 37.753124 85.15938 37.753124Q83.00313 37.753124 81.72188 36.315624Q80.45625 34.8625 80.45625 32.3625L80.45625 32.065624Q80.45625 30.51875 81.01875 29.315624Q81.58125 28.1125 82.64375 27.45625Q83.70625 26.784374 85.14375 26.784374Q86.925 26.784374 88.09688 27.846874Q89.28438 28.909374 89.3625 30.6125L87.64375 30.6125Q87.56563 29.596874 86.8625 28.940624Q86.175 28.26875 85.14375 28.26875Q83.76875 28.26875 83.00313 29.26875Q82.25313 30.253124 82.25313 32.128124L82.25313 32.471874Q82.25313 34.3 83.00313 35.284374Q83.75313 36.26875 85.15938 36.26875ZM95.15938 36.26875Q96.12813 36.26875 96.84688 35.690624Q97.56563 35.096874 97.64375 34.221874L99.3625 34.221874Q99.3 35.128124 98.72188 35.95625Q98.15938 36.76875 97.19063 37.26875Q96.2375 37.753124 95.15938 37.753124Q93.00313 37.753124 91.72188 36.315624Q90.45625 34.8625 90.45625 32.3625L90.45625 32.065624Q90.45625 30.51875 91.01875 29.315624Q91.58125 28.1125 92.64375 27.45625Q93.70625 26.784374 95.14375 26.784374Q96.925 26.784374 98.09688 27.846874Q99.28438 28.909374 99.3625 30.6125L97.64375 30.6125Q97.56563 29.596874 96.8625 28.940624Q96.175 28.26875 95.14375 28.26875Q93.76875 28.26875 93.00313 29.26875Q92.25313 30.253124 92.25313 32.128124L92.25313 32.471874Q92.25313 34.3 93.00313 35.284374Q93.75313 36.26875 95.15938 36.26875ZM107.44063 36.503124Q106.39375 37.753124 104.34688 37.753124Q102.65938 37.753124 101.76875 36.76875Q100.89375 35.784374 100.87813 33.8625L100.87813 26.9875L102.69063 26.9875L102.69063 33.815624Q102.69063 36.20625 104.64375 36.20625Q106.70625 36.20625 107.39375 34.675L107.39375 26.9875L109.20625 26.9875L109.20625 37.55L107.4875 37.55L107.44063 36.503124ZM117.01875 28.596874Q116.6125 28.534374 116.14375 28.534374Q114.3625 28.534374 113.72188 30.05L113.72188 37.55L111.925 37.55L111.925 26.9875L113.675 26.9875L113.70625 28.20625Q114.59688 26.784374 116.22188 26.784374Q116.75313 26.784374 117.01875 26.925L117.01875 28.596874ZM125.44063 37.55Q125.28438 37.2375 125.19063 36.440624Q123.925 37.753124 122.175 37.753124Q120.6125 37.753124 119.6125 36.8625Q118.6125 35.971874 118.6125 34.6125Q118.6125 32.971874 119.8625 32.065624Q121.12813 31.14375 123.39375 31.14375L125.15938 31.14375L125.15938 30.315624Q125.15938 29.3625 124.58125 28.8Q124.01875 28.2375 122.925 28.2375Q121.95625 28.2375 121.3 28.7375Q120.64375 29.221874 120.64375 29.909374L118.83125 29.909374Q118.83125 29.128124 119.39375 28.39375Q119.95625 27.64375 120.90938 27.221874Q121.87813 26.784374 123.03438 26.784374Q124.8625 26.784374 125.89375 27.70625Q126.925 28.6125 126.97188 30.221874L126.97188 35.08125Q126.97188 36.534374 127.33125 37.39375L127.33125 37.55L125.44063 37.55ZM122.44063 36.175Q123.3 36.175 124.05 35.7375Q124.81563 35.3 125.15938 34.596874L125.15938 32.425L123.7375 32.425Q120.425 32.425 120.425 34.3625Q120.425 35.221874 120.9875 35.70625Q121.55 36.175 122.44063 36.175ZM134.15938 36.26875Q135.12813 36.26875 135.84688 35.690624Q136.56563 35.096874 136.64375 34.221874L138.3625 34.221874Q138.3 35.128124 137.72188 35.95625Q137.15938 36.76875 136.19063 37.26875Q135.2375 37.753124 134.15938 37.753124Q132.00313 37.753124 130.72188 36.315624Q129.45625 34.8625 129.45625 32.3625L129.45625 32.065624Q129.45625 30.51875 130.01875 29.315624Q130.58125 28.1125 131.64375 27.45625Q132.70625 26.784374 134.14375 26.784374Q135.925 26.784374 137.09688 27.846874Q138.28438 28.909374 138.3625 30.6125L136.64375 30.6125Q136.56563 29.596874 135.8625 28.940624Q135.175 28.26875 134.14375 28.26875Q132.76875 28.26875 132.00313 29.26875Q131.25313 30.253124 131.25313 32.128124L131.25313 32.471874Q131.25313 34.3 132.00313 35.284374Q132.75313 36.26875 134.15938 36.26875ZM143.37813 34.909374L145.83125 26.9875L147.76875 26.9875L143.51875 39.175Q142.53438 41.815624 140.39375 41.815624L140.05 41.784374L139.37813 41.659374L139.37813 40.190624L139.8625 40.2375Q140.78438 40.2375 141.28438 39.8625Q141.8 39.4875 142.12813 38.503124L142.53438 37.425L138.76875 26.9875L140.7375 26.9875L143.37813 34.909374ZM148.8625 40.378124L147.83125 39.675Q148.75313 38.39375 148.78438 37.034374L148.78438 35.409374L150.56563 35.409374L150.56563 36.83125Q150.56563 37.815624 150.08125 38.8Q149.59688 39.784374 148.8625 40.378124ZM160.62813 23.33125L165.26875 34.925L169.925 23.33125L172.34688 23.33125L172.34688 37.55L170.47188 37.55L170.47188 32.01875L170.65938 26.034374L165.9875 37.55L164.55 37.55L159.89375 26.065624L160.08125 32.01875L160.08125 37.55L158.20625 37.55L158.20625 23.33125L160.62813 23.33125ZM176.87813 37.55L175.08125 37.55L175.08125 26.9875L176.87813 26.9875L176.87813 37.55ZM174.925 24.175Q174.925 23.7375 175.19063 23.440624Q175.47188 23.128124 175.9875 23.128124Q176.51875 23.128124 176.78438 23.440624Q177.06563 23.7375 177.06563 24.175Q177.06563 24.6125 176.78438 24.909374Q176.51875 25.20625 175.9875 25.20625Q175.47188 25.20625 175.19063 24.909374Q174.925 24.6125 174.925 24.175ZM186.06563 34.753124Q186.06563 34.01875 185.51875 33.6125Q184.97188 33.20625 183.59688 32.909374Q182.22188 32.6125 181.40938 32.20625Q180.6125 31.8 180.22188 31.2375Q179.84688 30.659374 179.84688 29.878124Q179.84688 28.58125 180.94063 27.690624Q182.03438 26.784374 183.75313 26.784374Q185.55 26.784374 186.65938 27.721874Q187.78438 28.64375 187.78438 30.08125L185.95625 30.08125Q185.95625 29.346874 185.33125 28.815624Q184.70625 28.26875 183.75313 28.26875Q182.75313 28.26875 182.19063 28.70625Q181.64375 29.128124 181.64375 29.83125Q181.64375 30.471874 182.15938 30.815624Q182.675 31.14375 184.03438 31.45625Q185.39375 31.753124 186.22188 32.175Q187.06563 32.58125 187.47188 33.175Q187.87813 33.76875 187.87813 34.6125Q187.87813 36.034374 186.7375 36.89375Q185.6125 37.753124 183.8 37.753124Q182.53438 37.753124 181.55 37.3Q180.58125 36.846874 180.01875 36.05Q179.47188 35.2375 179.47188 34.3L181.28438 34.3Q181.33125 35.20625 182.00313 35.7375Q182.69063 36.26875 183.8 36.26875Q184.83125 36.26875 185.44063 35.8625Q186.06563 35.440624 186.06563 34.753124ZM194.15938 36.26875Q195.12813 36.26875 195.84688 35.690624Q196.56563 35.096874 196.64375 34.221874L198.3625 34.221874Q198.3 35.128124 197.72188 35.95625Q197.15938 36.76875 196.19063 37.26875Q195.2375 37.753124 194.15938 37.753124Q192.00313 37.753124 190.72188 36.315624Q189.45625 34.8625 189.45625 32.3625L189.45625 32.065624Q189.45625 30.51875 190.01875 29.315624Q190.58125 28.1125 191.64375 27.45625Q192.70625 26.784374 194.14375 26.784374Q195.925 26.784374 197.09688 27.846874Q198.28438 28.909374 198.3625 30.6125L196.64375 30.6125Q196.56563 29.596874 195.8625 28.940624Q195.175 28.26875 194.14375 28.26875Q192.76875 28.26875 192.00313 29.26875Q191.25313 30.253124 191.25313 32.128124L191.25313 32.471874Q191.25313 34.3 192.00313 35.284374Q192.75313 36.26875 194.15938 36.26875ZM201.87813 37.55L200.08125 37.55L200.08125 22.55L201.87813 22.55L201.87813 37.55ZM211.44063 37.55Q211.28438 37.2375 211.19063 36.440624Q209.925 37.753124 208.175 37.753124Q206.6125 37.753124 205.6125 36.8625Q204.6125 35.971874 204.6125 34.6125Q204.6125 32.971874 205.8625 32.065624Q207.12813 31.14375 209.39375 31.14375L211.15938 31.14375L211.15938 30.315624Q211.15938 29.3625 210.58125 28.8Q210.01875 28.2375 208.925 28.2375Q207.95625 28.2375 207.3 28.7375Q206.64375 29.221874 206.64375 29.909374L204.83125 29.909374Q204.83125 29.128124 205.39375 28.39375Q205.95625 27.64375 206.90938 27.221874Q207.87813 26.784374 209.03438 26.784374Q210.8625 26.784374 211.89375 27.70625Q212.925 28.6125 212.97188 30.221874L212.97188 35.08125Q212.97188 36.534374 213.33125 37.39375L213.33125 37.55L211.44063 37.55ZM208.44063 36.175Q209.3 36.175 210.05 35.7375Q210.81563 35.3 211.15938 34.596874L211.15938 32.425L209.7375 32.425Q206.425 32.425 206.425 34.3625Q206.425 35.221874 206.9875 35.70625Q207.55 36.175 208.44063 36.175ZM222.06563 34.753124Q222.06563 34.01875 221.51875 33.6125Q220.97188 33.20625 219.59688 32.909374Q218.22188 32.6125 217.40938 32.20625Q216.6125 31.8 216.22188 31.2375Q215.84688 30.659374 215.84688 29.878124Q215.84688 28.58125 216.94063 27.690624Q218.03438 26.784374 219.75313 26.784374Q221.55 26.784374 222.65938 27.721874Q223.78438 28.64375 223.78438 30.08125L221.95625 30.08125Q221.95625 29.346874 221.33125 28.815624Q220.70625 28.26875 219.75313 28.26875Q218.75313 28.26875 218.19063 28.70625Q217.64375 29.128124 217.64375 29.83125Q217.64375 30.471874 218.15938 30.815624Q218.675 31.14375 220.03438 31.45625Q221.39375 31.753124 222.22188 32.175Q223.06563 32.58125 223.47188 33.175Q223.87813 33.76875 223.87813 34.6125Q223.87813 36.034374 222.7375 36.89375Q221.6125 37.753124 219.8 37.753124Q218.53438 37.753124 217.55 37.3Q216.58125 36.846874 216.01875 36.05Q215.47188 35.2375 215.47188 34.3L217.28438 34.3Q217.33125 35.20625 218.00313 35.7375Q218.69063 36.26875 219.8 36.26875Q220.83125 36.26875 221.44063 35.8625Q222.06563 35.440624 222.06563 34.753124ZM232.06563 34.753124Q232.06563 34.01875 231.51875 33.6125Q230.97188 33.20625 229.59688 32.909374Q228.22188 32.6125 227.40938 32.20625Q226.6125 31.8 226.22188 31.2375Q225.84688 30.659374 225.84688 29.878124Q225.84688 28.58125 226.94063 27.690624Q228.03438 26.784374 229.75313 26.784374Q231.55 26.784374 232.65938 27.721874Q233.78438 28.64375 233.78438 30.08125L231.95625 30.08125Q231.95625 29.346874 231.33125 28.815624Q230.70625 28.26875 229.75313 28.26875Q228.75313 28.26875 228.19063 28.70625Q227.64375 29.128124 227.64375 29.83125Q227.64375 30.471874 228.15938 30.815624Q228.675 31.14375 230.03438 31.45625Q231.39375 31.753124 232.22188 32.175Q233.06563 32.58125 233.47188 33.175Q233.87813 33.76875 233.87813 34.6125Q233.87813 36.034374 232.7375 36.89375Q231.6125 37.753124 229.8 37.753124Q228.53438 37.753124 227.55 37.3Q226.58125 36.846874 226.01875 36.05Q225.47188 35.2375 225.47188 34.3L227.28438 34.3Q227.33125 35.20625 228.00313 35.7375Q228.69063 36.26875 229.8 36.26875Q230.83125 36.26875 231.44063 35.8625Q232.06563 35.440624 232.06563 34.753124ZM237.87813 37.55L236.08125 37.55L236.08125 26.9875L237.87813 26.9875L237.87813 37.55ZM235.925 24.175Q235.925 23.7375 236.19063 23.440624Q236.47188 23.128124 236.9875 23.128124Q237.51875 23.128124 237.78438 23.440624Q238.06563 23.7375 238.06563 24.175Q238.06563 24.6125 237.78438 24.909374Q237.51875 25.20625 236.9875 25.20625Q236.47188 25.20625 236.19063 24.909374Q235.925 24.6125 235.925 24.175ZM241.8 37.55L241.8 28.378124L240.14375 28.378124L240.14375 26.9875L241.8 26.9875L241.8 25.89375Q241.8 24.20625 242.70625 23.284374Q243.62813 22.346874 245.28438 22.346874Q245.90938 22.346874 246.51875 22.503124L246.425 23.971874Q245.97188 23.89375 245.45625 23.89375Q244.56563 23.89375 244.08125 24.409374Q243.6125 24.909374 243.6125 25.8625L243.6125 26.9875L245.8625 26.9875L245.8625 28.378124L243.6125 28.378124L243.6125 37.55L241.8 37.55ZM249.87813 37.55L248.08125 37.55L248.08125 26.9875L249.87813 26.9875L249.87813 37.55ZM247.925 24.175Q247.925 23.7375 248.19063 23.440624Q248.47188 23.128124 248.9875 23.128124Q249.51875 23.128124 249.78438 23.440624Q250.06563 23.7375 250.06563 24.175Q250.06563 24.6125 249.78438 24.909374Q249.51875 25.20625 248.9875 25.20625Q248.47188 25.20625 248.19063 24.909374Q247.925 24.6125 247.925 24.175ZM257.15936 36.26875Q258.1281 36.26875 258.84686 35.690624Q259.5656 35.096874 259.64374 34.221874L261.3625 34.221874Q261.3 35.128124 260.72186 35.95625Q260.15936 36.76875 259.1906 37.26875Q258.2375 37.753124 257.15936 37.753124Q255.00313 37.753124 253.72188 36.315624Q252.45625 34.8625 252.45625 32.3625L252.45625 32.065624Q252.45625 30.51875 253.01875 29.315624Q253.58125 28.1125 254.64375 27.45625Q255.70625 26.784374 257.14374 26.784374Q258.925 26.784374 260.09686 27.846874Q261.28436 28.909374 261.3625 30.6125L259.64374 30.6125Q259.5656 29.596874 258.8625 28.940624Q258.175 28.26875 257.14374 28.26875Q255.76875 28.26875 255.00313 29.26875Q254.25313 30.253124 254.25313 32.128124L254.25313 32.471874Q254.25313 34.3 255.00313 35.284374Q255.75313 36.26875 257.15936 36.26875ZM269.4406 37.55Q269.28436 37.2375 269.1906 36.440624Q267.925 37.753124 266.175 37.753124Q264.6125 37.753124 263.6125 36.8625Q262.6125 35.971874 262.6125 34.6125Q262.6125 32.971874 263.8625 32.065624Q265.1281 31.14375 267.39374 31.14375L269.15936 31.14375L269.15936 30.315624Q269.15936 29.3625 268.58124 28.8Q268.01874 28.2375 266.925 28.2375Q265.95624 28.2375 265.3 28.7375Q264.64374 29.221874 264.64374 29.909374L262.83124 29.909374Q262.83124 29.128124 263.39374 28.39375Q263.95624 27.64375 264.90936 27.221874Q265.8781 26.784374 267.03436 26.784374Q268.8625 26.784374 269.89374 27.70625Q270.925 28.6125 270.97186 30.221874L270.97186 35.08125Q270.97186 36.534374 271.33124 37.39375L271.33124 37.55L269.4406 37.55ZM266.4406 36.175Q267.3 36.175 268.05 35.7375Q268.8156 35.3 269.15936 34.596874L269.15936 32.425L267.7375 32.425Q264.425 32.425 264.425 34.3625Q264.425 35.221874 264.9875 35.70625Q265.55 36.175 266.4406 36.175ZM276.3625 24.425L276.3625 26.9875L278.34686 26.9875L278.34686 28.378124L276.3625 28.378124L276.3625 34.925Q276.3625 35.565624 276.6281 35.89375Q276.89374 36.20625 277.53436 36.20625Q277.84686 36.20625 278.39374 36.08125L278.39374 37.55Q277.675 37.753124 277.0031 37.753124Q275.8 37.753124 275.175 37.01875Q274.5656 36.284374 274.5656 34.925L274.5656 28.378124L272.64374 28.378124L272.64374 26.9875L274.5656 26.9875L274.5656 24.425L276.3625 24.425ZM282.8781 37.55L281.08124 37.55L281.08124 26.9875L282.8781 26.9875L282.8781 37.55ZM280.925 24.175Q280.925 23.7375 281.1906 23.440624Q281.47186 23.128124 281.9875 23.128124Q282.51874 23.128124 282.78436 23.440624Q283.0656 23.7375 283.0656 24.175Q283.0656 24.6125 282.78436 24.909374Q282.51874 25.20625 281.9875 25.20625Q281.47186 25.20625 281.1906 24.909374Q280.925 24.6125 280.925 24.175ZM285.4406 32.175Q285.4406 30.6125 286.05 29.378124Q286.65936 28.128124 287.7375 27.45625Q288.83124 26.784374 290.2375 26.784374Q292.39374 26.784374 293.72186 28.284374Q295.0656 29.76875 295.0656 32.253124L295.0656 32.378124Q295.0656 33.925 294.47186 35.159374Q293.8781 36.378124 292.76874 37.065624Q291.675 37.753124 290.2531 37.753124Q288.1125 37.753124 286.76874 36.253124Q285.4406 34.753124 285.4406 32.3L285.4406 32.175ZM287.2531 32.378124Q287.2531 34.14375 288.0656 35.20625Q288.89374 36.26875 290.2531 36.26875Q291.6281 36.26875 292.4406 35.190624Q293.2531 34.1125 293.2531 32.175Q293.2531 30.425 292.425 29.346874Q291.59686 28.26875 290.2375 28.26875Q288.89374 28.26875 288.0656 29.33125Q287.2531 30.39375 287.2531 32.378124ZM298.6281 26.9875L298.6906 28.315624Q299.89374 26.784374 301.84686 26.784374Q305.20624 26.784374 305.22186 30.565624L305.22186 37.55L303.425 37.55L303.425 30.55Q303.40936 29.409374 302.89374 28.8625Q302.39374 28.315624 301.3 28.315624Q300.425 28.315624 299.7531 28.784374Q299.09686 29.253124 298.72186 30.01875L298.72186 37.55L296.925 37.55L296.925 26.9875L298.6281 26.9875ZM318.40936 31.8L315.08124 31.8L315.08124 37.55L313.1906 37.55L313.1906 23.33125L317.89374 23.33125Q320.3 23.33125 321.59686 24.425Q322.89374 25.51875 322.89374 27.6125Q322.89374 28.940624 322.175 29.925Q321.45624 30.909374 320.175 31.39375L323.51874 37.425L323.51874 37.55L321.5031 37.55L318.40936 31.8ZM315.08124 30.26875L317.95624 30.26875Q319.34686 30.26875 320.175 29.55Q321.0031 28.815624 321.0031 27.6125Q321.0031 26.284374 320.20624 25.58125Q319.425 24.878124 317.9406 24.878124L315.08124 24.878124L315.08124 30.26875ZM331.4406 37.55Q331.28436 37.2375 331.1906 36.440624Q329.925 37.753124 328.175 37.753124Q326.6125 37.753124 325.6125 36.8625Q324.6125 35.971874 324.6125 34.6125Q324.6125 32.971874 325.8625 32.065624Q327.1281 31.14375 329.39374 31.14375L331.15936 31.14375L331.15936 30.315624Q331.15936 29.3625 330.58124 28.8Q330.01874 28.2375 328.925 28.2375Q327.95624 28.2375 327.3 28.7375Q326.64374 29.221874 326.64374 29.909374L324.83124 29.909374Q324.83124 29.128124 325.39374 28.39375Q325.95624 27.64375 326.90936 27.221874Q327.8781 26.784374 329.03436 26.784374Q330.8625 26.784374 331.89374 27.70625Q332.925 28.6125 332.97186 30.221874L332.97186 35.08125Q332.97186 36.534374 333.33124 37.39375L333.33124 37.55L331.4406 37.55ZM328.4406 36.175Q329.3 36.175 330.05 35.7375Q330.8156 35.3 331.15936 34.596874L331.15936 32.425L329.7375 32.425Q326.425 32.425 326.425 34.3625Q326.425 35.221874 326.9875 35.70625Q327.55 36.175 328.4406 36.175ZM338.3625 24.425L338.3625 26.9875L340.34686 26.9875L340.34686 28.378124L338.3625 28.378124L338.3625 34.925Q338.3625 35.565624 338.6281 35.89375Q338.89374 36.20625 339.53436 36.20625Q339.84686 36.20625 340.39374 36.08125L340.39374 37.55Q339.675 37.753124 339.0031 37.753124Q337.8 37.753124 337.175 37.01875Q336.5656 36.284374 336.5656 34.925L336.5656 28.378124L334.64374 28.378124L334.64374 26.9875L336.5656 26.9875L336.5656 24.425L338.3625 24.425ZM347.3 37.753124Q345.15936 37.753124 343.8 36.346874Q342.45624 34.925 342.45624 32.565624L342.45624 32.221874Q342.45624 30.659374 343.05 29.425Q343.65936 28.190624 344.7375 27.4875Q345.8156 26.784374 347.08124 26.784374Q349.14374 26.784374 350.28436 28.14375Q351.425 29.503124 351.425 32.034374L351.425 32.784374L344.26874 32.784374Q344.3 34.346874 345.175 35.315624Q346.05 36.26875 347.39374 36.26875Q348.3625 36.26875 349.01874 35.878124Q349.6906 35.4875 350.1906 34.846874L351.28436 35.70625Q349.95624 37.753124 347.3 37.753124ZM347.08124 28.26875Q345.9875 28.26875 345.2375 29.065624Q344.5031 29.8625 344.33124 31.3L349.6125 31.3L349.6125 31.159374Q349.53436 29.784374 348.8625 29.034374Q348.20624 28.26875 347.08124 28.26875ZM365.4406 37.55Q365.28436 37.2375 365.1906 36.440624Q363.925 37.753124 362.175 37.753124Q360.6125 37.753124 359.6125 36.8625Q358.6125 35.971874 358.6125 34.6125Q358.6125 32.971874 359.8625 32.065624Q361.1281 31.14375 363.39374 31.14375L365.15936 31.14375L365.15936 30.315624Q365.15936 29.3625 364.58124 28.8Q364.01874 28.2375 362.925 28.2375Q361.95624 28.2375 361.3 28.7375Q360.64374 29.221874 360.64374 29.909374L358.83124 29.909374Q358.83124 29.128124 359.39374 28.39375Q359.95624 27.64375 360.90936 27.221874Q361.8781 26.784374 363.03436 26.784374Q364.8625 26.784374 365.89374 27.70625Q366.925 28.6125 366.97186 30.221874L366.97186 35.08125Q366.97186 36.534374 367.33124 37.39375L367.33124 37.55L365.4406 37.55ZM362.4406 36.175Q363.3 36.175 364.05 35.7375Q364.8156 35.3 365.15936 34.596874L365.15936 32.425L363.7375 32.425Q360.425 32.425 360.425 34.3625Q360.425 35.221874 360.9875 35.70625Q361.55 36.175 362.4406 36.175ZM371.6281 26.9875L371.6906 28.315624Q372.89374 26.784374 374.84686 26.784374Q378.20624 26.784374 378.22186 30.565624L378.22186 37.55L376.425 37.55L376.425 30.55Q376.40936 29.409374 375.89374 28.8625Q375.39374 28.315624 374.3 28.315624Q373.425 28.315624 372.7531 28.784374Q372.09686 29.253124 371.72186 30.01875L371.72186 37.55L369.925 37.55L369.925 26.9875L371.6281 26.9875ZM380.47186 32.175Q380.47186 29.753124 381.6281 28.26875Q382.78436 26.784374 384.64374 26.784374Q386.5031 26.784374 387.58124 28.05L387.58124 22.55L389.39374 22.55L389.39374 37.55L387.7375 37.55L387.64374 36.409374Q386.5656 37.753124 384.6281 37.753124Q382.8 37.753124 381.6281 36.253124Q380.47186 34.7375 380.47186 32.315624L380.47186 32.175ZM382.28436 32.378124Q382.28436 34.175 383.01874 35.190624Q383.76874 36.20625 385.08124 36.20625Q386.8 36.20625 387.58124 34.675L387.58124 29.815624Q386.78436 28.315624 385.09686 28.315624Q383.76874 28.315624 383.01874 29.346874Q382.28436 30.378124 382.28436 32.378124ZM399.6281 23.33125L404.26874 34.925L408.925 23.33125L411.34686 23.33125L411.34686 37.55L409.47186 37.55L409.47186 32.01875L409.65936 26.034374L404.9875 37.55L403.55 37.55L398.89374 26.065624L399.08124 32.01875L399.08124 37.55L397.20624 37.55L397.20624 23.33125L399.6281 23.33125ZM418.3 37.753124Q416.15936 37.753124 414.8 36.346874Q413.45624 34.925 413.45624 32.565624L413.45624 32.221874Q413.45624 30.659374 414.05 29.425Q414.65936 28.190624 415.7375 27.4875Q416.8156 26.784374 418.08124 26.784374Q420.14374 26.784374 421.28436 28.14375Q422.425 29.503124 422.425 32.034374L422.425 32.784374L415.26874 32.784374Q415.3 34.346874 416.175 35.315624Q417.05 36.26875 418.39374 36.26875Q419.3625 36.26875 420.01874 35.878124Q420.6906 35.4875 421.1906 34.846874L422.28436 35.70625Q420.95624 37.753124 418.3 37.753124ZM418.08124 28.26875Q416.9875 28.26875 416.2375 29.065624Q415.5031 29.8625 415.33124 31.3L420.6125 31.3L420.6125 31.159374Q420.53436 29.784374 419.8625 29.034374Q419.20624 28.26875 418.08124 28.26875ZM431.4406 37.55Q431.28436 37.2375 431.1906 36.440624Q429.925 37.753124 428.175 37.753124Q426.6125 37.753124 425.6125 36.8625Q424.6125 35.971874 424.6125 34.6125Q424.6125 32.971874 425.8625 32.065624Q427.1281 31.14375 429.39374 31.14375L431.15936 31.14375L431.15936 30.315624Q431.15936 29.3625 430.58124 28.8Q430.01874 28.2375 428.925 28.2375Q427.95624 28.2375 427.3 28.7375Q426.64374 29.221874 426.64374 29.909374L424.83124 29.909374Q424.83124 29.128124 425.39374 28.39375Q425.95624 27.64375 426.90936 27.221874Q427.8781 26.784374 429.03436 26.784374Q430.8625 26.784374 431.89374 27.70625Q432.925 28.6125 432.97186 30.221874L432.97186 35.08125Q432.97186 36.534374 433.33124 37.39375L433.33124 37.55L431.4406 37.55ZM428.4406 36.175Q429.3 36.175 430.05 35.7375Q430.8156 35.3 431.15936 34.596874L431.15936 32.425L429.7375 32.425Q426.425 32.425 426.425 34.3625Q426.425 35.221874 426.9875 35.70625Q427.55 36.175 428.4406 36.175ZM437.6281 26.9875L437.6906 28.315624Q438.89374 26.784374 440.84686 26.784374Q444.20624 26.784374 444.22186 30.565624L444.22186 37.55L442.425 37.55L442.425 30.55Q442.40936 29.409374 441.89374 28.8625Q441.39374 28.315624 440.3 28.315624Q439.425 28.315624 438.7531 28.784374Q438.09686 29.253124 437.72186 30.01875L437.72186 37.55L435.925 37.55L435.925 26.9875L437.6281 26.9875ZM460.05 33.83125L454.09686 33.83125L452.7531 37.55L450.83124 37.55L456.2531 23.33125L457.89374 23.33125L463.33124 37.55L461.40936 37.55L460.05 33.83125ZM454.65936 32.3L459.5031 32.3L457.08124 25.64375L454.65936 32.3ZM473.8625 32.378124Q473.8625 34.8 472.7531 36.284374Q471.64374 37.753124 469.76874 37.753124Q467.7531 37.753124 466.65936 36.33125L466.58124 37.55L464.925 37.55L464.925 22.55L466.72186 22.55L466.72186 28.14375Q467.8156 26.784374 469.7375 26.784374Q471.65936 26.784374 472.7531 28.2375Q473.8625 29.690624 473.8625 32.221874L473.8625 32.378124ZM472.05 32.175Q472.05 30.33125 471.33124 29.33125Q470.6281 28.315624 469.3 28.315624Q467.5031 28.315624 466.72186 29.9875L466.72186 34.55Q467.55 36.20625 469.3156 36.20625Q470.6125 36.20625 471.33124 35.20625Q472.05 34.20625 472.05 32.175ZM482.0656 34.753124Q482.0656 34.01875 481.51874 33.6125Q480.97186 33.20625 479.59686 32.909374Q478.22186 32.6125 477.40936 32.20625Q476.6125 31.8 476.22186 31.2375Q475.84686 30.659374 475.84686 29.878124Q475.84686 28.58125 476.9406 27.690624Q478.03436 26.784374 479.7531 26.784374Q481.55 26.784374 482.65936 27.721874Q483.78436 28.64375 483.78436 30.08125L481.95624 30.08125Q481.95624 29.346874 481.33124 28.815624Q480.70624 28.26875 479.7531 28.26875Q478.7531 28.26875 478.1906 28.70625Q477.64374 29.128124 477.64374 29.83125Q477.64374 30.471874 478.15936 30.815624Q478.675 31.14375 480.03436 31.45625Q481.39374 31.753124 482.22186 32.175Q483.0656 32.58125 483.47186 33.175Q483.8781 33.76875 483.8781 34.6125Q483.8781 36.034374 482.7375 36.89375Q481.6125 37.753124 479.8 37.753124Q478.53436 37.753124 477.55 37.3Q476.58124 36.846874 476.01874 36.05Q475.47186 35.2375 475.47186 34.3L477.28436 34.3Q477.33124 35.20625 478.0031 35.7375Q478.6906 36.26875 479.8 36.26875Q480.83124 36.26875 481.4406 35.8625Q482.0656 35.440624 482.0656 34.753124ZM485.4406 32.175Q485.4406 30.6125 486.05 29.378124Q486.65936 28.128124 487.7375 27.45625Q488.83124 26.784374 490.2375 26.784374Q492.39374 26.784374 493.72186 28.284374Q495.0656 29.76875 495.0656 32.253124L495.0656 32.378124Q495.0656 33.925 494.47186 35.159374Q493.8781 36.378124 492.76874 37.065624Q491.675 37.753124 490.2531 37.753124Q488.1125 37.753124 486.76874 36.253124Q485.4406 34.753124 485.4406 32.3L485.4406 32.175ZM487.2531 32.378124Q487.2531 34.14375 488.0656 35.20625Q488.89374 36.26875 490.2531 36.26875Q491.6281 36.26875 492.4406 35.190624Q493.2531 34.1125 493.2531 32.175Q493.2531 30.425 492.425 29.346874Q491.59686 28.26875 490.2375 28.26875Q488.89374 28.26875 488.0656 29.33125Q487.2531 30.39375 487.2531 32.378124ZM498.8781 37.55L497.08124 37.55L497.08124 22.55L498.8781 22.55L498.8781 37.55ZM508.4406 36.503124Q507.39374 37.753124 505.34686 37.753124Q503.65936 37.753124 502.76874 36.76875Q501.89374 35.784374 501.8781 33.8625L501.8781 26.9875L503.6906 26.9875L503.6906 33.815624Q503.6906 36.20625 505.64374 36.20625Q507.70624 36.20625 508.39374 34.675L508.39374 26.9875L510.20624 26.9875L510.20624 37.55L508.4875 37.55L508.4406 36.503124ZM515.3625 24.425L515.3625 26.9875L517.34686 26.9875L517.34686 28.378124L515.3625 28.378124L515.3625 34.925Q515.3625 35.565624 515.6281 35.89375Q515.89374 36.20625 516.53436 36.20625Q516.84686 36.20625 517.39374 36.08125L517.39374 37.55Q516.675 37.753124 516.0031 37.753124Q514.8 37.753124 514.175 37.01875Q513.5656 36.284374 513.5656 34.925L513.5656 28.378124L511.64374 28.378124L511.64374 26.9875L513.5656 26.9875L513.5656 24.425L515.3625 24.425ZM524.3 37.753124Q522.15936 37.753124 520.8 36.346874Q519.45624 34.925 519.45624 32.565624L519.45624 32.221874Q519.45624 30.659374 520.05 29.425Q520.65936 28.190624 521.7375 27.4875Q522.8156 26.784374 524.08124 26.784374Q526.14374 26.784374 527.28436 28.14375Q528.425 29.503124 528.425 32.034374L528.425 32.784374L521.26874 32.784374Q521.3 34.346874 522.175 35.315624Q523.05 36.26875 524.39374 36.26875Q525.3625 36.26875 526.01874 35.878124Q526.6906 35.4875 527.1906 34.846874L528.28436 35.70625Q526.95624 37.753124 524.3 37.753124ZM524.08124 28.26875Q522.9875 28.26875 522.2375 29.065624Q521.5031 29.8625 521.33124 31.3L526.6125 31.3L526.6125 31.159374Q526.53436 29.784374 525.8625 29.034374Q525.20624 28.26875 524.08124 28.26875ZM544.2375 30.971874L538.08124 30.971874L538.08124 36.01875L545.2375 36.01875L545.2375 37.55L536.20624 37.55L536.20624 23.33125L545.14374 23.33125L545.14374 24.878124L538.08124 24.878124L538.08124 29.440624L544.2375 29.440624L544.2375 30.971874ZM552.01874 28.596874Q551.6125 28.534374 551.14374 28.534374Q549.3625 28.534374 548.72186 30.05L548.72186 37.55L546.925 37.55L546.925 26.9875L548.675 26.9875L548.70624 28.20625Q549.59686 26.784374 551.22186 26.784374Q551.7531 26.784374 552.01874 26.925L552.01874 28.596874ZM559.01874 28.596874Q558.6125 28.534374 558.14374 28.534374Q556.3625 28.534374 555.72186 30.05L555.72186 37.55L553.925 37.55L553.925 26.9875L555.675 26.9875L555.70624 28.20625Q556.59686 26.784374 558.22186 26.784374Q558.7531 26.784374 559.01874 26.925L559.01874 28.596874ZM560.4406 32.175Q560.4406 30.6125 561.05 29.378124Q561.65936 28.128124 562.7375 27.45625Q563.83124 26.784374 565.2375 26.784374Q567.39374 26.784374 568.72186 28.284374Q570.0656 29.76875 570.0656 32.253124L570.0656 32.378124Q570.0656 33.925 569.47186 35.159374Q568.8781 36.378124 567.76874 37.065624Q566.675 37.753124 565.2531 37.753124Q563.1125 37.753124 561.76874 36.253124Q560.4406 34.753124 560.4406 32.3L560.4406 32.175ZM562.2531 32.378124Q562.2531 34.14375 563.0656 35.20625Q563.89374 36.26875 565.2531 36.26875Q566.6281 36.26875 567.4406 35.190624Q568.2531 34.1125 568.2531 32.175Q568.2531 30.425 567.425 29.346874Q566.59686 28.26875 565.2375 28.26875Q563.89374 28.26875 563.0656 29.33125Q562.2531 30.39375 562.2531 32.378124ZM577.01874 28.596874Q576.6125 28.534374 576.14374 28.534374Q574.3625 28.534374 573.72186 30.05L573.72186 37.55L571.925 37.55L571.925 26.9875L573.675 26.9875L573.70624 28.20625Q574.59686 26.784374 576.22186 26.784374Q576.7531 26.784374 577.01874 26.925L577.01874 28.596874Z" fill-rule="nonzero"/><path fill="#000000" d="M19.846874 55.784374Q19.846874 53.565624 20.440624 51.534374Q21.034374 49.503124 22.20625 47.846874Q23.378124 46.190624 24.628124 45.503124L25.003124 46.690624Q23.58125 47.784374 22.659374 50.034374Q21.753124 52.284374 21.659374 55.065624L21.659374 55.89375Q21.659374 59.659374 23.034374 62.440624Q23.8625 64.09688 25.003124 65.03438L24.628124 66.14375Q23.33125 65.425 22.159374 63.721874Q19.846874 60.39375 19.846874 55.784374ZM29.628124 47.33125L34.26875 58.925L38.925 47.33125L41.346874 47.33125L41.346874 61.55L39.471874 61.55L39.471874 56.01875L39.659374 50.034374L34.9875 61.55L33.55 61.55L28.89375 50.065624L29.08125 56.01875L29.08125 61.55L27.20625 61.55L27.20625 47.33125L29.628124 47.33125ZM52.05 57.83125L46.096874 57.83125L44.753124 61.55L42.83125 61.55L48.253124 47.33125L49.89375 47.33125L55.33125 61.55L53.409374 61.55L52.05 57.83125ZM46.659374 56.3L51.503124 56.3L49.08125 49.64375L46.659374 56.3ZM65.2375 54.971874L59.08125 54.971874L59.08125 60.01875L66.2375 60.01875L66.2375 61.55L57.20625 61.55L57.20625 47.33125L66.14375 47.33125L66.14375 48.878124L59.08125 48.878124L59.08125 53.440624L65.2375 53.440624L65.2375 54.971874ZM72.08125 55.878124Q72.08125 58.05 71.50313 60.05Q70.94063 62.05 69.76875 63.7375Q68.59688 65.425 67.3 66.14375L66.925 65.03438Q68.425 63.878124 69.33125 61.45625Q70.25313 59.034374 70.26875 56.065624L70.26875 55.753124Q70.26875 53.70625 69.83125 51.940624Q69.40938 50.175 68.64375 48.784374Q67.87813 47.39375 66.925 46.6125L67.3 45.503124Q68.59688 46.221874 69.75313 47.89375Q70.925 49.55 71.50313 51.565624Q72.08125 53.58125 72.08125 55.878124Z" fill-rule="nonzero"/></svg>